<?xml version="1.0" encoding="UTF-8"?>
<svg version="1.1" xmlns="http://www.w3.org/2000/svg" width="1000" height="144">
<path d="M0 0 C8.91 0 17.82 0 27 0 C27.99181274 3.38439331 27.99181274 3.38439331 29.00366211 6.8371582 C31.18644218 14.28522726 33.36983036 21.73311795 35.55351925 29.1809206 C36.87768821 33.69726939 38.20165118 38.21367836 39.52514648 42.73022461 C40.80198741 47.08753073 42.07936539 51.44467908 43.35711861 55.80171776 C43.84492759 57.46545979 44.33254182 59.12925894 44.81995964 60.79311562 C45.5017747 63.12044721 46.18427693 65.44757622 46.86694336 67.7746582 C47.06906433 68.46517776 47.2711853 69.15569733 47.47943115 69.86714172 C48.28000743 72.59396482 49.10119296 75.30357888 50 78 C61.385 39.39 61.385 39.39 73 0 C81.58 0 90.16 0 99 0 C99 36.3 99 72.6 99 110 C93.72 110 88.44 110 83 110 C82.67 81.29 82.34 52.58 82 23 C73.42 51.71 64.84 80.42 56 110 C51.71 110 47.42 110 43 110 C41.22264893 104.20061921 39.44888961 98.40015298 37.67773438 92.59887695 C37.08159229 90.64776667 36.48465419 88.69689933 35.88671875 86.74633789 C29.39157145 65.55369546 23.22725966 44.27647049 17 23 C16.67 51.71 16.34 80.42 16 110 C10.72 110 5.44 110 0 110 C0 73.7 0 37.4 0 0 Z " fill="#000000" transform="translate(0,1)"/>
<path d="M0 0 C0 -1.65 0 -3.3 0 -5 C5.28 -5 10.56 -5 16 -5 C16.09295925 6.54449523 16.16389623 18.0889004 16.20724869 29.63369465 C16.22806287 34.99527077 16.25626728 40.35658953 16.30175781 45.71801758 C16.34543622 50.89869378 16.36918343 56.07912348 16.37950897 61.25996971 C16.38686101 63.22979801 16.40121725 65.19961386 16.42292023 67.16933632 C16.56269133 80.3886017 16.62779652 92.20621261 6.921875 102.34765625 C-2.71092762 110.62951704 -15.35079006 110.86598775 -27.40966797 110.25585938 C-35.19163931 109.48719717 -43.97735789 107.1343024 -50 102 C-48.58707905 97.1725201 -46.57025846 93.2837641 -44 89 C-42.93072266 89.50660156 -42.93072266 89.50660156 -41.83984375 90.0234375 C-32.18846788 94.5178871 -22.29006785 98.56912646 -11.5546875 95.2421875 C-6.30408318 92.78157219 -3.85305967 90.28979175 -1.8125 84.8125 C-0.88176175 80.44518973 -0.8187349 76.44099485 -1 72 C-1.86625 72.61875 -2.7325 73.2375 -3.625 73.875 C-11.88764753 79.0774077 -20.79796963 79.84165838 -30.2265625 77.84765625 C-38.53670083 75.30779707 -44.74390755 70.56490414 -49 63 C-55.56489108 49.17362167 -56.59959494 31.30475869 -52.375 16.5625 C-48.76081604 7.09258245 -44.03030396 0.78998732 -35 -4 C-22.8976215 -9.23643003 -10.74437822 -7.16291881 0 0 Z M-33.60546875 13.6953125 C-37.83144071 20.67941182 -38.52430036 27.85950734 -38.4375 35.875 C-38.43065186 36.84300537 -38.42380371 37.81101074 -38.41674805 38.80834961 C-38.22419273 47.37093133 -37.06687428 54.2253855 -31.5625 61 C-30.716875 61.66 -29.87125 62.32 -29 63 C-28.29875 63.598125 -27.5975 64.19625 -26.875 64.8125 C-21.38816154 67.07880284 -15.74143623 66.98691704 -10.16796875 64.98046875 C-6.30289124 63.1073492 -2.77816133 61.33989904 0 58 C0.48473591 55.97368845 0.48473591 55.97368845 0.4675293 53.71557617 C0.49312424 52.85425583 0.51871918 51.99293549 0.54508972 51.10551453 C0.5547023 50.17737442 0.56431488 49.24923431 0.57421875 48.29296875 C0.5889473 47.33481766 0.60367584 46.37666656 0.61885071 45.38948059 C0.64280898 43.36121604 0.65822502 41.33283536 0.66577148 39.30444336 C0.6873564 36.20809971 0.76751311 33.11673532 0.84960938 30.02148438 C0.86560687 28.04950526 0.87809095 26.07749388 0.88671875 24.10546875 C0.91859787 23.18340134 0.95047699 22.26133392 0.98332214 21.31132507 C0.94329791 17.47248397 0.91286994 15.0041906 -1.73764038 12.08853149 C-12.58075035 3.78576034 -24.22948718 3.31199406 -33.60546875 13.6953125 Z " fill="#000000" transform="translate(300,34)"/>
<path d="M0 0 C7.10158192 4.95042312 13.30925191 11.31374819 15.69921875 19.71484375 C13.7433655 20.71968579 11.78445638 21.7185818 9.82421875 22.71484375 C8.73367188 23.27171875 7.643125 23.82859375 6.51953125 24.40234375 C3.69921875 25.71484375 3.69921875 25.71484375 1.69921875 25.71484375 C0.79103845 24.3749056 -0.05197494 22.99056063 -0.86328125 21.58984375 C-4.35827844 16.14554838 -8.98250829 12.17517257 -15.18359375 10.078125 C-22.45496435 8.8304544 -30.30825031 8.55373858 -36.77734375 12.45703125 C-39.87818602 15.01721384 -40.99198631 17.76044537 -41.609375 21.66796875 C-41.83080472 25.18400425 -41.36920554 27.54378302 -40.05078125 30.83984375 C-32.54926577 38.6823372 -20.82038588 41.4356785 -10.75073242 44.64794922 C0.13341786 48.22744387 8.98464122 53.23050298 15.69921875 62.71484375 C19.17180198 70.23877407 18.9099349 80.25502488 16.19921875 88.02734375 C12.40705587 96.16662018 6.10834164 101.38280191 -2.125 104.7421875 C-16.30213619 109.08426242 -30.88508058 108.4796769 -44.4765625 102.328125 C-51.80432859 98.14227798 -58.06692294 92.01459946 -62.30078125 84.71484375 C-60.98865066 80.77845199 -59.47276603 80.42830778 -55.86328125 78.52734375 C-54.87457031 77.99753906 -53.88585937 77.46773438 -52.8671875 76.921875 C-50.30078125 75.71484375 -50.30078125 75.71484375 -48.30078125 75.71484375 C-47.41720918 77.0581121 -46.594502 78.44160313 -45.80078125 79.83984375 C-41.6005402 86.34509513 -35.57427651 89.97806853 -28.17578125 92.08984375 C-20.27215833 93.36462164 -13.69016682 92.9397646 -6.30078125 89.71484375 C-3.04722311 86.99247878 -0.53732648 84.87089539 -0.0625 80.54296875 C0.05540962 76.44716092 -0.068091 73.31983839 -1.55078125 69.46484375 C-9.22773268 61.78789232 -20.75568418 59.00214122 -30.85083008 55.78173828 C-42.09943831 52.08238353 -51.59680457 46.83989438 -57.67578125 36.33984375 C-59.89584125 27.01559176 -60.0123435 17.96948646 -55.11328125 9.46484375 C-43.13024784 -7.81301838 -17.49996053 -9.7750204 0 0 Z " fill="#000000" transform="translate(575.30078125,5.28515625)"/>
<path d="M0 0 C5.79640003 4.69232383 9.08116986 10.32809388 9.92489624 17.77026367 C10.06546989 20.7974059 10.11831921 23.81340883 10.13671875 26.84375 C10.15466995 27.94223267 10.17262115 29.04071533 10.19111633 30.17248535 C10.24499197 33.65661868 10.2790426 37.14061679 10.3125 40.625 C10.34569308 42.99741455 10.38018456 45.36981132 10.41601562 47.7421875 C10.50070531 53.53633702 10.56915094 59.33050454 10.625 65.125 C12.935 65.785 15.245 66.445 17.625 67.125 C17.625 71.085 17.625 75.045 17.625 79.125 C11.25014324 80.12107137 6.7231304 80.36098115 0.625 78.125 C-2.375 75.5 -2.375 75.5 -4.375 73.125 C-4.92285156 73.40214844 -5.47070312 73.67929688 -6.03515625 73.96484375 C-8.61178633 75.24240491 -11.20428665 76.47563943 -13.8125 77.6875 C-15.20275391 78.33912109 -15.20275391 78.33912109 -16.62109375 79.00390625 C-25.44418346 82.59571724 -33.70585989 81.4615262 -42.375 78.125 C-47.69811809 75.61409524 -50.07002575 72.27275103 -52.45703125 67.04296875 C-54.52544235 60.46806197 -54.63901791 53.14566476 -51.875 46.75 C-44.14163131 33.99531205 -29.62956163 31.0039115 -16.14160156 27.64794922 C-9.79659441 26.125 -9.79659441 26.125 -6.375 26.125 C-6.62696976 19.34762808 -6.62696976 19.34762808 -9.0625 13.125 C-13.15704347 9.58377321 -16.82781321 8.90912718 -22.125 9.125 C-30.32535277 10.16395872 -37.00847519 15.04293855 -42.375 21.125 C-46.96806496 19.6390084 -49.81069245 17.27485318 -53.375 14.125 C-52.65952609 9.25760932 -49.63668984 7.15639277 -46.0390625 4.08984375 C-32.52635007 -5.876277 -14.84171591 -8.24539773 0 0 Z M-16.4375 40.3125 C-17.68950195 40.60737305 -17.68950195 40.60737305 -18.96679688 40.90820312 C-25.69373205 42.61222022 -31.686726 45.10069175 -36.375 50.375 C-37.82203731 54.35435259 -38.05781187 57.94467399 -37.375 62.125 C-35.58122099 65.2475042 -34.17285562 66.67216303 -31.0625 68.4375 C-23.76884464 70.30331881 -17.88711335 68.51716194 -11.375 65.125 C-10.45589844 64.6609375 -9.53679688 64.196875 -8.58984375 63.71875 C-4.9574541 59.46494625 -5.85030788 54.76141544 -6.0625 49.375 C-6.08505859 48.29605469 -6.10761719 47.21710938 -6.13085938 46.10546875 C-6.1897435 43.4439065 -6.27192999 40.78515772 -6.375 38.125 C-9.69683102 38.125 -13.23564497 39.51024014 -16.4375 40.3125 Z " fill="#000000" transform="translate(703.375,31.875)"/>
<path d="M0 0 C5.86554635 5.69727248 8.34888886 12.01514396 8.64918518 20.16511536 C8.67801315 23.00384233 8.67485091 25.84085153 8.66015625 28.6796875 C8.6587413 29.71441193 8.65732635 30.74913635 8.65586853 31.81521606 C8.65029039 35.10600732 8.63774188 38.39672946 8.625 41.6875 C8.61998218 43.92447818 8.61541976 46.16145743 8.61132812 48.3984375 C8.60032812 53.86981508 8.58361177 59.3411526 8.5625 64.8125 C10.8725 65.1425 13.1825 65.4725 15.5625 65.8125 C15.5625 69.7725 15.5625 73.7325 15.5625 77.8125 C8.84850625 78.98478462 3.74244554 78.93970136 -2.4375 75.8125 C-4.1953125 74.328125 -4.1953125 74.328125 -5.4375 72.8125 C-5.4375 72.1525 -5.4375 71.4925 -5.4375 70.8125 C-6.03175781 71.21082031 -6.62601562 71.60914062 -7.23828125 72.01953125 C-17.69611681 78.70408866 -27.08314863 81.13294164 -39.4375 78.8125 C-45.63544367 76.9389386 -49.95753728 73.2384945 -53.4375 67.8125 C-56.47400776 60.2212306 -56.14952066 53.35705508 -53.33203125 45.84375 C-49.72505173 37.65322881 -41.36741058 33.79430594 -33.375 30.6875 C-25.39916543 27.96404429 -15.89700796 24.8125 -7.4375 24.8125 C-8.22375019 17.63168113 -8.22375019 17.63168113 -11.25 11.25 C-16.32850317 7.91269792 -19.90714014 7.50169012 -25.88671875 8.28125 C-33.57324367 9.8821189 -38.85459165 14.52655486 -44.4375 19.8125 C-47.42970268 18.44879701 -49.72776529 16.86341917 -52.1875 14.6875 C-52.80109375 14.14867188 -53.4146875 13.60984375 -54.046875 13.0546875 C-54.50578125 12.64476563 -54.9646875 12.23484375 -55.4375 11.8125 C-50.52425893 2.65600529 -41.05043097 -2.12884014 -31.4375 -5.1875 C-20.97212515 -7.80384371 -8.58121251 -6.9732302 0 0 Z M-18.1875 39.125 C-18.98671875 39.33833984 -19.7859375 39.55167969 -20.609375 39.77148438 C-27.824453 41.7591909 -33.39184575 44.046038 -38.4375 49.8125 C-39.93506381 54.30519144 -40.12268388 58.13760608 -38.3125 62.5625 C-35.17154502 66.33164597 -31.99979199 67.60219146 -27.1875 68.25 C-22.18206086 67.6660321 -17.931613 66.06302954 -13.4375 63.8125 C-12.35339844 63.3484375 -11.26929688 62.884375 -10.15234375 62.40625 C-6.96383543 59.35996292 -7.01022406 58.63332661 -6.8515625 54.390625 C-6.89137705 52.28045403 -6.96284 50.17069226 -7.0625 48.0625 C-7.08957031 46.98355469 -7.11664063 45.90460938 -7.14453125 44.79296875 C-7.21520858 42.13078935 -7.31381599 39.47265764 -7.4375 36.8125 C-11.11995989 36.8125 -14.65667955 38.15011366 -18.1875 39.125 Z " fill="#000000" transform="translate(384.4375,33.1875)"/>
<path d="M0 0 C5.61 0 11.22 0 17 0 C17.83978394 2.3987439 17.83978394 2.3987439 18.6965332 4.84594727 C20.55449687 10.15116653 22.41471322 15.45559227 24.27644062 20.75949192 C25.40424172 23.97275968 26.53115867 27.18633163 27.65600586 30.40063477 C28.9515795 34.10266906 30.25108748 37.80331633 31.55078125 41.50390625 C32.15095818 43.22148888 32.15095818 43.22148888 32.76325989 44.97377014 C34.67363936 50.403849 36.64002023 55.74863244 39 61 C39.18934616 60.44226898 39.37869232 59.88453796 39.57377625 59.30990601 C41.56829267 53.43564786 43.56436129 47.56191873 45.5612793 41.68847656 C46.30352893 39.50468901 47.04539998 37.32077275 47.78686523 35.13671875 C51.77398983 23.39311777 55.78234719 11.66301625 60 0 C65.28 0 70.56 0 76 0 C74.5134334 7.68595246 72.06370311 14.82380319 69.37890625 22.16796875 C68.91440462 23.45070292 68.45038065 24.73361014 67.98680115 26.01667786 C66.76462818 29.39512689 65.53575575 32.7711008 64.30548096 36.14660645 C63.09588507 39.46924404 61.89296857 42.79429687 60.68945312 46.11914062 C59.25367334 50.08507071 57.81520445 54.04995432 56.36587524 58.01095581 C54.1459611 64.07963773 51.93780995 70.15073986 49.79961872 76.2487936 C48.84284646 78.97290989 47.87461373 81.69288446 46.9051342 84.41250038 C46.23887696 86.2953627 45.58832102 88.18375836 44.93836975 90.0723114 C41.52419634 99.61289394 37.34537167 109.11491936 28 114 C24.37762495 115.20745835 21.0229405 115.22246029 17.25 115.25 C16.5590625 115.270625 15.868125 115.29125 15.15625 115.3125 C10.05147958 115.35088173 6.57053254 114.27330153 2 112 C3.32 108.04 4.64 104.08 6 100 C9.25520833 100.32552083 12.51041667 100.65104167 15.765625 100.9765625 C19.02360215 101.00017103 20.42719771 100.9339185 23 99 C24.52774277 96.89472423 24.52774277 96.89472423 25.6875 94.375 C26.10386719 93.55773437 26.52023437 92.74046875 26.94921875 91.8984375 C30.2014939 82.9274778 28.11976913 77.1367229 24.78515625 68.48828125 C24.33659775 67.28423141 23.88803925 66.08018158 23.42588806 64.83964539 C22.23270011 61.6377114 21.01873563 58.44405611 19.8001709 55.25170898 C18.59296615 52.07817686 17.40579812 48.89718305 16.21679688 45.71679688 C12.69849586 36.32389119 9.14446641 26.94493349 5.52294922 17.59130859 C5.14665878 16.61582565 4.77036835 15.64034271 4.38267517 14.63529968 C3.68688864 12.83453404 2.98677117 11.0354334 2.2815094 9.23835754 C1.82589882 8.05919014 1.82589882 8.05919014 1.36108398 6.85620117 C1.09633774 6.17869308 0.83159149 5.501185 0.55882263 4.80314636 C0 3 0 3 0 0 Z " fill="#000000" transform="translate(924,29)"/>
<path d="M0 0 C10.10260845 11.06717911 10.0546875 23.51009688 10.0546875 38.328125 C-7.7653125 38.328125 -25.5853125 38.328125 -43.9453125 38.328125 C-41.22936921 51.26106749 -41.22936921 51.26106749 -34.1328125 61.078125 C-29.00674972 64.00730373 -24.05997262 64.83516963 -18.28515625 63.99609375 C-12.59800157 62.37254876 -7.68873371 58.85380398 -4.3828125 53.953125 C-3.9084375 53.086875 -3.4340625 52.220625 -2.9453125 51.328125 C1.66981862 52.64673389 5.15366362 54.54167937 9.0546875 57.328125 C7.84976254 64.10582793 2.05306258 68.85691968 -3.3203125 72.703125 C-11.93548019 78.04946853 -21.98223949 78.4463513 -31.83984375 76.86328125 C-40.26684815 74.87144385 -47.1511367 71.27720443 -52.2578125 64.140625 C-60.58107815 50.43035685 -62.02269934 34.45919248 -58.3203125 19.015625 C-55.84652348 9.54702309 -51.29149242 1.71699708 -42.9453125 -3.671875 C-28.76794804 -10.80629066 -12.46438252 -10.71236088 0 0 Z M-38.7578125 11.703125 C-42.18657622 16.99289534 -42.9453125 20.94134799 -42.9453125 27.328125 C-30.4053125 27.328125 -17.8653125 27.328125 -4.9453125 27.328125 C-6.8118208 15.73541532 -6.8118208 15.73541532 -13.4765625 6.94921875 C-22.19610687 1.04707433 -32.64740642 3.69209842 -38.7578125 11.703125 Z " fill="#000000" transform="translate(909.9453125,35.671875)"/>
<path d="M0 0 C10.11967588 9.6699125 12.78750699 21.7971574 13.125 35.4375 C12.86651105 46.26032001 10.78108208 55.80929118 4.75 64.875 C4.193125 65.761875 3.63625 66.64875 3.0625 67.5625 C-4.46349418 75.08849418 -13.24779195 77.8195139 -23.625 78.1875 C-34.47234842 77.92959102 -42.13621979 74.6625228 -49.93359375 67.28125 C-58.56368582 58.15616512 -60.71452837 44.84993232 -60.4375 32.6953125 C-59.49348202 18.49570869 -55.98961323 7.61557944 -45.25 -2.125 C-32.28572496 -11.60480586 -12.16311086 -9.7673466 0 0 Z M-38.9296875 12.91796875 C-44.91360075 21.78761532 -45.46320644 33.72957092 -43.71875 44.00390625 C-41.81902466 52.25325706 -39.59237769 58.98008154 -32.25 63.875 C-26.64787117 65.74237628 -20.56671283 65.57438501 -14.9375 63.875 C-8.34302726 58.96748541 -5.4047678 53.11687877 -3.71875 45.1484375 C-2.08453922 33.7361989 -2.2734057 21.09521069 -9.0625 11.3125 C-12.39403181 7.39448826 -15.39815112 5.20119187 -20.640625 4.6015625 C-28.81991966 4.28320672 -33.80365714 6.54397811 -38.9296875 12.91796875 Z " fill="#000000" transform="translate(174.25,35.125)"/>
<path d="M0 0 C4.75287779 3.82296692 8.90399168 8.87278154 10 15 C10.08735207 17.16947036 10.11766895 19.34147104 10.11352539 21.51269531 C10.11367142 22.15701508 10.11381744 22.80133484 10.1139679 23.46517944 C10.1132735 25.58619603 10.10550336 27.70712383 10.09765625 29.828125 C10.09579039 31.30214388 10.09436728 32.77616338 10.09336853 34.25018311 C10.08955661 38.12338992 10.07973765 41.99655903 10.06866455 45.86975098 C10.05842193 49.82462046 10.0538648 53.77949606 10.04882812 57.734375 C10.03811417 65.48960248 10.02052812 73.24479115 10 81 C4.72 81 -0.56 81 -6 81 C-6.01458252 79.11772705 -6.02916504 77.2354541 -6.04418945 75.29614258 C-6.09588498 69.06943826 -6.16118275 62.84299216 -6.23571491 56.61652088 C-6.28039737 52.84226947 -6.31965788 49.06812546 -6.34643555 45.29370117 C-6.37249018 41.64952822 -6.41290709 38.00576905 -6.46318626 34.36185265 C-6.47984053 32.97328536 -6.4913638 31.58464652 -6.49761391 30.19599342 C-6.50726972 28.2474898 -6.53704261 26.29911758 -6.56762695 24.35083008 C-6.58428154 22.68870232 -6.58428154 22.68870232 -6.60127258 20.99299622 C-7.13047309 17.02062045 -8.4955043 14.17016332 -11.6875 11.6875 C-19.13394872 9.47369092 -25.31460727 11.49847773 -31.88404846 15.00588989 C-35.1601018 17.2569221 -36.7646416 18.94966709 -37.6491394 22.89691162 C-37.90819486 26.5904421 -37.94283937 30.22723448 -37.90234375 33.9296875 C-37.91173653 35.2887714 -37.9241991 36.64783725 -37.93959045 38.00686646 C-37.97173462 41.56808106 -37.96240552 45.12800428 -37.94421387 48.68927002 C-37.9330324 52.3294472 -37.96138182 55.96929785 -37.98632812 59.609375 C-38.02940724 66.73983103 -38.02498521 73.86941013 -38 81 C-43.28 81 -48.56 81 -54 81 C-54 53.94 -54 26.88 -54 -1 C-48.72 -1 -43.44 -1 -38 -1 C-37.67 0.98 -37.34 2.96 -37 5 C-36.38253906 4.59007812 -35.76507812 4.18015625 -35.12890625 3.7578125 C-23.91797155 -3.37486742 -12.49945974 -5.39700334 0 0 Z " fill="#000000" transform="translate(787,30)"/>
<path d="M0 0 C6.17044987 6.45744754 7.81861694 13.38514741 7.80102539 22.16333008 C7.80091209 24.05472466 7.80091209 24.05472466 7.80079651 25.98432922 C7.79569069 27.35023031 7.7904747 28.71613098 7.78515625 30.08203125 C7.7832897 31.48736012 7.78186692 32.89268965 7.78086853 34.29801941 C7.777062 37.98544125 7.76724774 41.6728233 7.75616455 45.36022949 C7.74591025 49.12751731 7.74136232 52.8948116 7.73632812 56.66210938 C7.7256237 64.0455931 7.7080421 71.42903589 7.6875 78.8125 C2.4075 78.8125 -2.8725 78.8125 -8.3125 78.8125 C-8.32708252 77.03157959 -8.34166504 75.25065918 -8.35668945 73.41577148 C-8.40846667 67.51238727 -8.47378633 61.60923509 -8.54821491 55.70609951 C-8.59282303 52.12920347 -8.63209953 48.55241882 -8.65893555 44.9753418 C-8.68506487 41.51918193 -8.7255335 38.0634529 -8.77568626 34.60756111 C-8.8003363 32.65631509 -8.81037487 30.70490204 -8.82014465 28.75352478 C-8.92498298 22.39401755 -9.07879 17.37026995 -12.3125 11.8125 C-15.58129109 8.91728503 -18.69211738 8.22929361 -23.05859375 8.38671875 C-27.53585673 9.2325102 -31.44334845 11.47653265 -35.3125 13.8125 C-36.00861389 14.21169144 -36.70472778 14.61088287 -37.42193604 15.02217102 C-39.565458 16.70297914 -39.565458 16.70297914 -39.83148193 19.52702332 C-39.84036438 20.62178482 -39.84924683 21.71654633 -39.85839844 22.84448242 C-39.88797638 24.70607246 -39.88797638 24.70607246 -39.91815186 26.60527039 C-39.91981501 27.95950272 -39.92104588 29.31373565 -39.921875 30.66796875 C-39.93685489 32.05375607 -39.95358165 33.43952552 -39.97198486 34.82527161 C-40.01569323 38.46996881 -40.03566477 42.1144252 -40.05072021 45.75933838 C-40.07027908 49.47967795 -40.1122503 53.19975696 -40.15234375 56.91992188 C-40.22768365 64.21741085 -40.27587996 71.51469518 -40.3125 78.8125 C-45.5925 78.8125 -50.8725 78.8125 -56.3125 78.8125 C-56.3125 51.7525 -56.3125 24.6925 -56.3125 -3.1875 C-51.0325 -3.1875 -45.7525 -3.1875 -40.3125 -3.1875 C-39.9825 -1.2075 -39.6525 0.7725 -39.3125 2.8125 C-38.85101563 2.48636719 -38.38953125 2.16023438 -37.9140625 1.82421875 C-25.89841964 -6.22578704 -12.44439458 -8.21799642 0 0 Z " fill="#000000" transform="translate(469.3125,32.1875)"/>
<path d="M0 0 C5.28 0 10.56 0 16 0 C16 7.26 16 14.52 16 22 C20.95 22 25.9 22 31 22 C31 25.96 31 29.92 31 34 C26.05 34 21.1 34 16 34 C16.04408807 41.47520757 16.11385581 48.9495653 16.20751953 56.42431641 C16.23575956 58.96754191 16.2569589 61.51085567 16.27099609 64.05419922 C16.29238277 67.70846853 16.33901391 71.36167314 16.390625 75.015625 C16.39185364 76.15429016 16.39308228 77.29295532 16.39434814 78.46612549 C16.42392609 80.05732208 16.42392609 80.05732208 16.45410156 81.68066406 C16.46298401 82.61332092 16.47186646 83.54597778 16.48101807 84.50689697 C17.15598238 87.74931348 18.44798834 88.9535721 21 91 C24.36148764 91.79453344 27.52777293 91.81725121 31 92 C31 95.96 31 99.92 31 104 C12.4119508 105.95663676 12.4119508 105.95663676 5.0625 100.3125 C1.7272306 97.51339684 0.74484085 94.16911345 0 90 C-0.26765238 85.68698994 -0.23282255 81.38626474 -0.1953125 77.06640625 C-0.1924826 75.83333237 -0.18965271 74.60025848 -0.18673706 73.32981873 C-0.1755786 69.40727875 -0.15048151 65.4849705 -0.125 61.5625 C-0.11383396 58.89648772 -0.10583976 56.23047761 -0.09765625 53.56445312 C-0.07565338 47.04288002 -0.04115297 40.52147925 0 34 C-4.29 34 -8.58 34 -13 34 C-13 30.04 -13 26.08 -13 22 C-8.71 22 -4.42 22 0 22 C0 14.74 0 7.48 0 0 Z " fill="#000000" transform="translate(610,7)"/>
<path d="M0 0 C5.28 0 10.56 0 16 0 C16.33 31.35 16.66 62.7 17 95 C21.21629134 97.10814567 23.39790775 97.17700355 28 97 C28 101.29 28 105.58 28 110 C20.11753914 111.00822174 13.25931643 111.72272637 6 108 C3.34913979 105.70340222 1.57381993 103.14763987 0 100 C-0.09141784 98.6568787 -0.12194152 97.30933202 -0.12025452 95.96310425 C-0.12162918 95.11893951 -0.12300385 94.27477478 -0.12442017 93.4050293 C-0.12082489 92.477146 -0.11722961 91.5492627 -0.11352539 90.59326172 C-0.11367142 89.61761261 -0.11381744 88.6419635 -0.1139679 87.63674927 C-0.11326935 84.40103966 -0.10547966 81.1653871 -0.09765625 77.9296875 C-0.09579186 75.69052156 -0.09436806 73.45135521 -0.09336853 71.21218872 C-0.08954498 65.31027099 -0.07971607 59.40837776 -0.06866455 53.50646973 C-0.05844694 47.48738944 -0.05387016 41.4683052 -0.04882812 35.44921875 C-0.03809367 23.63280172 -0.02101918 11.81640289 0 0 Z " fill="#000000" transform="translate(816,1)"/>
<path d="M0 0 C0 4.95 0 9.9 0 15 C-1.155 14.938125 -2.31 14.87625 -3.5 14.8125 C-10.342947 14.82461141 -16.08503867 17.21787546 -21 22 C-26.70208944 28.24065877 -26.73482746 33.46691438 -26.70703125 41.71484375 C-26.72215256 42.92572159 -26.73727386 44.13659943 -26.75285339 45.38417053 C-26.79569448 49.23547033 -26.80456567 53.08598575 -26.8125 56.9375 C-26.83564684 59.55535934 -26.86101255 62.17320007 -26.88867188 64.79101562 C-26.9514899 71.19407967 -26.98385312 77.59665505 -27 84 C-32.28 84 -37.56 84 -43 84 C-43 56.94 -43 29.88 -43 2 C-37.72 2 -32.44 2 -27 2 C-26.67 5.3 -26.34 8.6 -26 12 C-24.4840625 10.14375 -24.4840625 10.14375 -22.9375 8.25 C-15.72991704 0.15223748 -10.8447364 -0.48740388 0 0 Z " fill="#000000" transform="translate(244,27)"/>
</svg>
