<?xml version="1.0" encoding="UTF-8"?>
<svg version="1.1" xmlns="http://www.w3.org/2000/svg" width="640" height="480">
<path d="M0 0 C1.24563522 3.661899 0.8291802 6.63626377 0.30322266 10.43334961 C0.12618805 11.73827866 -0.05084656 13.0432077 -0.23324585 14.38768005 C-0.43393797 15.80926359 -0.63484032 17.23081746 -0.8359375 18.65234375 C-1.03737165 20.11429991 -1.23817832 21.57634265 -1.43838501 23.03846741 C-1.96714776 26.88604864 -2.50527637 30.73226616 -3.04510498 34.57830811 C-3.48326927 37.71177051 -3.91465732 40.84614783 -4.34569359 43.9805975 C-4.86088374 47.7256778 -5.37928794 51.47031051 -5.8984375 55.21484375 C-5.99694378 55.92626966 -6.09545006 56.63769558 -6.19694138 57.37067986 C-6.47771893 59.39311661 -6.76068886 61.41523351 -7.04443359 63.43725586 C-7.20511322 64.58657089 -7.36579285 65.73588593 -7.53134155 66.92002869 C-7.94449589 69.63523314 -8.43392956 72.31307818 -9 75 C-8.43716309 74.95810547 -7.87432617 74.91621094 -7.29443359 74.87304688 C6.09765402 74.01062591 15.11635508 74.69683218 26 83 C27 84 27 84 27.09765625 86.28515625 C27.08605469 87.20167969 27.07445312 88.11820312 27.0625 89.0625 C27.05347656 89.98160156 27.04445313 90.90070313 27.03515625 91.84765625 C27.02355469 92.55792969 27.01195312 93.26820312 27 94 C24.35261084 95.4606285 23.10551666 96 20 96 C19.96744792 94.046875 19.93489583 92.09375 19.90234375 90.140625 C18.70515793 87.30054782 16.90138528 86.18366596 14.21264648 84.79003906 C9.94034244 83.26458658 5.55726489 83.31759045 1.0625 83.25 C-0.3925293 83.20552734 -0.3925293 83.20552734 -1.87695312 83.16015625 C-4.25086548 83.08999135 -6.6254343 83.04266964 -9 83 C-9 88.61 -9 94.22 -9 100 C-7.73027344 99.9071875 -6.46054687 99.814375 -5.15234375 99.71875 C7.39022841 99.09156026 15.6391135 100.84569443 26 108 C27 109 27 109 27.0625 112.5625 C27.041875 113.696875 27.02125 114.83125 27 116 C23.48030692 115.34820498 21.04395169 113.84052893 18 112 C9.49549661 107.57850445 0.39875938 108.01857462 -9 108 C-8.75878418 109.1152002 -8.75878418 109.1152002 -8.51269531 110.25292969 C-3.09669832 135.32412833 -3.09669832 135.32412833 -0.625 147.5625 C-0.45774414 148.38137695 -0.29048828 149.20025391 -0.11816406 150.04394531 C0.48861039 153.08042737 1 155.89498796 1 159 C2.1446875 159.33515625 3.289375 159.6703125 4.46875 160.015625 C11.29427293 162.29611514 17.70511802 165.52242851 24.17922974 168.63476562 C28.17499902 170.55491228 32.17922459 172.45724313 36.18359375 174.359375 C37.00077377 174.74782593 37.8179538 175.13627686 38.65989685 175.53649902 C46.91793634 179.45266273 55.23337068 183.23797911 63.5625 187 C72.56699795 191.07150929 81.56545788 195.15130354 90.5 199.375 C91.27158447 199.73851562 92.04316895 200.10203125 92.83813477 200.4765625 C97.87307987 202.87307987 97.87307987 202.87307987 99 204 C99.04092937 206.33297433 99.04241723 208.66705225 99 211 C94.27745353 210.34825629 90.25049849 208.43019132 85.984375 206.4140625 C84.79604568 205.86057129 84.79604568 205.86057129 83.58370972 205.29589844 C80.97011947 204.07723686 78.36011796 202.85107847 75.75 201.625 C73.92653775 200.77335125 72.10280311 199.92228552 70.27880859 199.07177734 C66.46377772 197.29231026 62.64995279 195.51029411 58.83691406 193.7265625 C50.33034332 189.74974157 41.80923847 185.80429832 33.28820801 181.85858154 C30.6809765 180.65092797 28.07429514 179.44209485 25.46777344 178.23291016 C23.84570883 177.48078197 22.22363879 176.72866549 20.6015625 175.9765625 C19.89160126 175.6470459 19.18164001 175.3175293 18.45016479 174.97802734 C12.64655574 172.28854377 6.82370117 169.64713689 1 167 C1.33 206.93 1.66 246.86 2 288 C33.54762344 298.48946407 33.54762344 298.48946407 65.09741211 308.97241211 C71.18664551 310.99914551 71.18664551 310.99914551 74.03346252 311.94752502 C76.02971851 312.61191733 78.02637128 313.27511816 80.02333069 313.93739319 C83.04114346 314.93847912 86.05769107 315.94329208 89.07397461 316.94897461 C89.96973929 317.2451641 90.86550398 317.54135359 91.78841305 317.84651852 C97.88597366 319.88597366 97.88597366 319.88597366 99 321 C99.04092937 323.33297433 99.04241723 325.66705225 99 328 C93.38000631 327.39119115 88.41281253 325.96027141 83.08642578 324.10083008 C82.22203888 323.80486435 81.35765198 323.50889862 80.46707153 323.20396423 C78.59964548 322.56420634 76.73309626 321.92188439 74.8673439 321.27726173 C71.90977975 320.25727696 68.94882182 319.24782381 65.98654175 318.24162292 C57.56750988 315.38147468 49.1510454 312.51429083 40.74658203 309.61157227 C35.596792 307.83379372 30.43988229 306.07823458 25.27770615 304.3367672 C23.31737721 303.67077099 21.35982211 302.99654959 19.40524673 302.31385231 C16.66759781 301.35856461 13.92172857 300.43191315 11.17236328 299.51098633 C10.37415161 299.22484467 9.57593994 298.938703 8.75354004 298.64389038 C2.89369206 296.72877001 -1.174302 297.14467727 -7 299 C-7.71703346 299.21700593 -8.43406693 299.43401186 -9.17282867 299.65759373 C-11.44258653 300.36785828 -13.69336509 301.12222416 -15.94458008 301.88916016 C-17.20975464 302.31387856 -17.20975464 302.31387856 -18.50048828 302.74717712 C-20.31478443 303.35682994 -22.12838901 303.96854406 -23.94135475 304.58214188 C-26.81068767 305.55298788 -29.68198879 306.51779501 -32.55387878 307.48104858 C-39.67818388 309.8717849 -46.79952581 312.2712892 -53.92004395 314.67327881 C-59.95526094 316.70912258 -65.992 318.74031036 -72.03110313 320.76459885 C-74.86005134 321.71497903 -77.6865854 322.67231361 -80.51313782 323.62979126 C-82.2427642 324.21011044 -83.9725094 324.79007567 -85.70239258 325.36962891 C-86.48738632 325.63765823 -87.27238007 325.90568756 -88.0811615 326.18183899 C-91.59759592 327.35210199 -94.25415984 328 -98 328 C-98 289.06 -98 250.12 -98 210 C-77.68163979 200.40521879 -57.40615456 190.86073301 -36.94140625 181.60546875 C-28.91772931 177.97238585 -20.92327168 174.2780518 -12.9375 170.5625 C-12.32302002 170.27661011 -11.70854004 169.99072021 -11.07543945 169.69616699 C-7.71607565 168.13267087 -4.35761004 166.56725851 -1 165 C-1 163.68 -1 162.36 -1 161 C-2.03777588 161.48130371 -3.07555176 161.96260742 -4.14477539 162.45849609 C-25.38411777 172.30823863 -46.62864594 182.14650781 -67.89086914 191.94677734 C-68.65136063 192.29747284 -69.41185211 192.64816833 -70.19538879 193.00949097 C-71.6735278 193.69102421 -73.15186453 194.37212882 -74.63041687 195.05276489 C-78.22000372 196.70734348 -81.80235502 198.37541134 -85.37402344 200.06835938 C-86.06825409 200.39636536 -86.76248474 200.72437134 -87.47775269 201.06231689 C-88.78721077 201.68200287 -90.0951843 202.30483908 -91.40139771 202.93133545 C-95.77760667 205 -95.77760667 205 -98 205 C-96.31803743 200.91949908 -93.44815714 197.88767767 -90.5625 194.625 C-85.91689302 189.29654477 -81.44934863 183.87639494 -77.16870117 178.25024414 C-74.8101389 175.18193526 -72.38501118 172.30533893 -69.6796875 169.53515625 C-62.2450289 161.90819325 -62.2450289 161.90819325 -60.375 151.625 C-60.39949219 150.39910156 -60.42398438 149.17320312 -60.44921875 147.91015625 C-59.86089584 142.78918901 -57.91341761 139.36774192 -55.1875 135.0625 C-54.74776855 134.35754395 -54.30803711 133.65258789 -53.85498047 132.92626953 C-52.54296875 130.97265625 -52.54296875 130.97265625 -50 128 C-45.0316049 128 -42.32949401 129.22130901 -38.16113281 131.82519531 C-34.62577076 135.38292296 -34.81970681 138.92920929 -34.765625 143.76953125 C-34.80171875 144.95933594 -34.8378125 146.14914063 -34.875 147.375 C-34.87113281 149.19451172 -34.87113281 149.19451172 -34.8671875 151.05078125 C-34.8671875 154.03700372 -34.91286818 157.01525832 -35 160 C-33.15984502 156.7121022 -31.32904953 153.41908674 -29.5 150.125 C-28.97535156 149.18785156 -28.45070313 148.25070313 -27.91015625 147.28515625 C-27.16572266 145.94130859 -27.16572266 145.94130859 -26.40625 144.5703125 C-25.94541016 143.74289551 -25.48457031 142.91547852 -25.00976562 142.06298828 C-23.85345683 140.08341625 -23.85345683 140.08341625 -24 138 C-26.14281033 136.53417645 -28.26706396 135.18876486 -30.5 133.875 C-31.12003906 133.50246094 -31.74007812 133.12992188 -32.37890625 132.74609375 C-33.91537838 131.82421047 -35.45720675 130.91126525 -37 130 C-36.10886235 128.62195209 -35.21180008 127.24773513 -34.3125 125.875 C-33.81363281 125.10929687 -33.31476563 124.34359375 -32.80078125 123.5546875 C-28.43383426 117.35949589 -24.95631459 113.95434995 -18.1875 110.625 C-17.49462891 110.27050781 -16.80175781 109.91601562 -16.08789062 109.55078125 C-14.39806466 108.68838731 -12.69985888 107.84244578 -11 107 C-11 105.68 -11 104.36 -11 103 C-13.97 104.32 -16.94 105.64 -20 107 C-20.21651873 103.76725509 -20.3745723 100.54898265 -20.5 97.3125 C-20.56703125 96.40048828 -20.6340625 95.48847656 -20.703125 94.54882812 C-20.78253533 91.81909791 -20.74999667 89.63004073 -20 87 C-17.63575807 84.61658497 -15.12903929 83.18686331 -12 82 C-11.34 82 -10.68 82 -10 82 C-10 80.35 -10 78.7 -10 77 C-10.98742187 77.5775 -11.97484375 78.155 -12.9921875 78.75 C-14.28632735 79.500226 -15.58060537 80.25021368 -16.875 81 C-17.52597656 81.3815625 -18.17695313 81.763125 -18.84765625 82.15625 C-23.7734375 85 -23.7734375 85 -26 85 C-24.0156122 76.69606009 -21.71539296 68.54081649 -19.1640625 60.39453125 C-18.62221817 58.64930428 -18.62221817 58.64930428 -18.06942749 56.86882019 C-16.92439107 53.18240551 -15.77496692 49.49737928 -14.625 45.8125 C-13.1154283 40.96538966 -11.60801444 36.117612 -10.1015625 31.26953125 C-9.74145081 30.11268829 -9.38133911 28.95584534 -9.01031494 27.76394653 C-6.73571597 20.43731933 -4.51677023 13.09752372 -2.42642212 5.71601868 C-1.10425641 1.10425641 -1.10425641 1.10425641 0 0 Z M-49.0625 145 C-51.021875 145.99 -52.98125 146.98 -55 148 C-55 154.6 -55 161.2 -55 168 C-49.29835358 167.0877058 -49.29835358 167.0877058 -42 163 C-42 156.07 -42 149.14 -42 142 C-44.33248171 142 -47.06332416 143.9898901 -49.0625 145 Z M-26 201 C-26.82011312 202.55851755 -27.63076213 204.12201716 -28.4375 205.6875 C-29.11619141 206.99267578 -29.11619141 206.99267578 -29.80859375 208.32421875 C-31.88297795 212.98308162 -32.1236702 217.28856833 -32.11352539 222.35083008 C-32.11344986 223.6117598 -32.11337433 224.87268951 -32.11329651 226.17182922 C-32.10819069 227.53773031 -32.1029747 228.90363098 -32.09765625 230.26953125 C-32.0957897 231.67486012 -32.09436692 233.08018965 -32.09336853 234.48551941 C-32.089562 238.17294125 -32.07974774 241.8603233 -32.06866455 245.54772949 C-32.05841025 249.31501731 -32.05386232 253.0823116 -32.04882812 256.84960938 C-32.0381237 264.233091 -32.0210698 271.61653991 -32 279 C-30.20763933 278.52343588 -28.41613103 278.04366502 -26.625 277.5625 C-25.62726563 277.29566406 -24.62953125 277.02882813 -23.6015625 276.75390625 C-21.04582299 276.09815644 -21.04582299 276.09815644 -19 275 C-18.90703713 266.66327561 -18.83610278 258.32677028 -18.79275131 249.98965454 C-18.77193744 246.1177531 -18.7437349 242.24620808 -18.69824219 238.37451172 C-18.65456071 234.63325532 -18.63081633 230.89234026 -18.62049103 227.15084839 C-18.61313936 225.72836947 -18.59878362 224.30590777 -18.57707977 222.88357544 C-18.46056748 214.92666986 -18.37544672 208.6810702 -23 202 C-23.99 201.67 -24.98 201.34 -26 201 Z M-49 211 C-49.61875 211.99 -50.2375 212.98 -50.875 214 C-51.39707031 214.8353125 -51.39707031 214.8353125 -51.9296875 215.6875 C-55.58936133 223.5945325 -55.26352428 231.58075873 -55.1953125 240.125 C-55.1915756 241.48119904 -55.18873183 242.8374008 -55.18673706 244.19360352 C-55.1791538 247.73801315 -55.15955195 251.28225508 -55.1373291 254.82659912 C-55.11675534 258.45338677 -55.10771085 262.08020189 -55.09765625 265.70703125 C-55.07630021 272.8047555 -55.04222958 279.90236672 -55 287 C-53.20763933 286.52343588 -51.41613103 286.04366502 -49.625 285.5625 C-48.62726563 285.29566406 -47.62953125 285.02882813 -46.6015625 284.75390625 C-44.04582299 284.09815644 -44.04582299 284.09815644 -42 283 C-41.90702026 274.92404507 -41.8360944 266.84831652 -41.79275131 258.7719574 C-41.77194103 255.02111811 -41.74374533 251.27064698 -41.69824219 247.52001953 C-41.6545475 243.89547138 -41.63081364 240.27127573 -41.62049103 236.64648438 C-41.61314168 235.26866106 -41.59879054 233.89085545 -41.57707977 232.51318359 C-41.45824197 224.65449073 -41.4662378 218.60721642 -46 212 C-46.99 211.67 -47.98 211.34 -49 211 Z M-72 221 C-78.88350418 228.81726925 -78.41355696 239.28234925 -78.29296875 249.1015625 C-78.28872391 250.41917572 -78.28447906 251.73678894 -78.28010559 253.09432983 C-78.26876133 256.56318881 -78.23938711 260.0316588 -78.20599365 263.50036621 C-78.17506511 267.05357606 -78.16155206 270.60685001 -78.14648438 274.16015625 C-78.11450474 281.10694477 -78.06182494 288.05341355 -78 295 C-73.71 293.68 -69.42 292.36 -65 291 C-64.88652124 283.34978575 -64.79501116 275.6998903 -64.74093914 268.04903603 C-64.71497179 264.49542306 -64.67981517 260.9424214 -64.62280273 257.38916016 C-64.55750317 253.29323852 -64.53371371 249.19794739 -64.51171875 245.1015625 C-64.47300911 243.21034164 -64.47300911 243.21034164 -64.43351746 241.28091431 C-64.43101205 233.31672853 -65.70398016 227.75075784 -70 221 C-70.66 221 -71.32 221 -72 221 Z " fill="#B10737" transform="translate(315,20)"/>
<path d="M0 0 C5.94 0 11.88 0 18 0 C18.96679688 1.67964844 19.93359375 3.35929687 20.9296875 5.08984375 C21.90619468 6.78478122 22.88270824 8.47971503 23.859375 10.17456055 C24.83647232 11.87062299 25.81278359 13.56713821 26.7890625 15.26367188 C32.13749051 24.54319448 37.56887319 33.76708442 43 43 C43.33 28.81 43.66 14.62 44 0 C48.62 0 53.24 0 58 0 C58 23.76 58 47.52 58 72 C44 72 44 72 41.18164062 69.65942383 C40.67826172 68.58200928 40.17488281 67.50459473 39.65625 66.39453125 C39.0465439 65.19433046 38.43583054 63.99464094 37.82421875 62.79541016 C37.5288623 62.16926819 37.23350586 61.54312622 36.92919922 60.89801025 C35.39074656 57.75552061 33.54021588 54.80839116 31.71875 51.82421875 C30.31115382 49.44610878 28.90513984 47.06706215 27.5 44.6875 C25.025 40.500625 22.55 36.31375 20 32 C19.67 45.2 19.34 58.4 19 72 C14.38 72 9.76 72 5 72 C4.98598145 69.19230103 4.98598145 69.19230103 4.97167969 66.32788086 C4.93607686 60.12509616 4.88223125 53.92267672 4.81609726 47.72014523 C4.77668359 43.96160644 4.74446557 40.20329977 4.72900391 36.44458008 C4.71379643 32.81328125 4.67928016 29.18262084 4.63169098 25.55160713 C4.61691897 24.17027923 4.60896139 22.78886016 4.60811615 21.40745354 C4.59873989 13.76340323 4.53426757 8.28850324 0 2 C0 1.34 0 0.68 0 0 Z " fill="#B10737" transform="translate(416,387)"/>
<path d="M0 0 C13.53 0 27.06 0 41 0 C41.66 4.29 42.32 8.58 43 13 C33.43 13 23.86 13 14 13 C14 17.62 14 22.24 14 27 C20.6 27 27.2 27 34 27 C34 31.29 34 35.58 34 40 C27.4 40 20.8 40 14 40 C14 46.27 14 52.54 14 59 C23.9 59 33.8 59 44 59 C43.34 63.29 42.68 67.58 42 72 C28.14 72 14.28 72 0 72 C0 48.24 0 24.48 0 0 Z " fill="#B10737" transform="translate(359,387)"/>
<path d="M0 0 C13.2 0 26.4 0 40 0 C42 7 42 7 42 13 C32.76 13 23.52 13 14 13 C14 17.62 14 22.24 14 27 C20.6 27 27.2 27 34 27 C34 31.29 34 35.58 34 40 C27.4 40 20.8 40 14 40 C14 46.27 14 52.54 14 59 C23.57 59 33.14 59 43 59 C42 71 42 71 41 72 C37.97043757 72.08870641 34.9631329 72.11526582 31.93359375 72.09765625 C31.1286145 72.09664917 30.32363525 72.09564209 29.4942627 72.09460449 C26.47532739 72.08935614 23.45641233 72.075395 20.4375 72.0625 C10.3209375 72.0315625 10.3209375 72.0315625 0 72 C0 48.24 0 24.48 0 0 Z " fill="#B10737" transform="translate(231,387)"/>
<path d="M0 0 C4.95 0 9.9 0 15 0 C20.1607465 16.6216251 25.18369669 33.2752043 30 50 C31.79886068 47.30170897 32.54020438 45.60297881 33.40454102 42.56030273 C33.66143204 41.66605087 33.91832306 40.77179901 34.18299866 39.85044861 C34.45389816 38.88788651 34.72479767 37.9253244 35.00390625 36.93359375 C35.28725327 35.94375992 35.57060028 34.95392609 35.86253357 33.93409729 C36.76747671 30.76995399 37.66533741 27.60385734 38.5625 24.4375 C39.46436158 21.26790881 40.3677073 18.09875307 41.2731781 14.93019104 C41.83646456 12.95766897 42.39744983 10.98448806 42.95594788 9.01060486 C43.20968674 8.11950516 43.4634256 7.22840546 43.72485352 6.31030273 C44.05888939 5.13140724 44.05888939 5.13140724 44.39967346 3.92869568 C45 2 45 2 46 0 C50.95 0 55.9 0 61 0 C59.4289515 7.92697008 57.00131498 15.48862499 54.46484375 23.15234375 C54.02136132 24.50221553 53.57821631 25.8521982 53.13539124 27.20228577 C52.21259606 30.01276365 51.28700738 32.82229922 50.35913086 35.63110352 C49.16920185 39.23334409 47.98445912 42.83726325 46.80153561 46.44180965 C45.88926377 49.22085112 44.97526736 51.99932266 44.06064034 54.7775898 C43.6229534 56.10718225 43.18557758 57.43687715 42.74851799 58.76667595 C42.13986659 60.61703604 41.52885353 62.4666188 40.91772461 64.31616211 C40.57067978 65.36823349 40.22363495 66.42030487 39.86607361 67.5042572 C39 70 39 70 38 72 C33.05 72 28.1 72 23 72 C18.61428692 59.1952925 14.2401669 46.38667297 9.87713623 33.57421875 C9.07041292 31.20664778 8.26228425 28.83956253 7.45361328 26.47265625 C6.1698921 22.71346852 4.89641242 18.95087017 3.625 15.1875 C3.25060791 14.09397217 2.87621582 13.00044434 2.49047852 11.8737793 C2.15588623 10.87773682 1.82129395 9.88169434 1.4765625 8.85546875 C1.18861816 8.00621826 0.90067383 7.15696777 0.60400391 6.28198242 C0 4 0 4 0 0 Z " fill="#B10737" transform="translate(285,387)"/>
<path d="M0 0 C1 1 1 1 1.09765625 4.37890625 C1.09098369 5.77347077 1.07902532 7.16801743 1.0625 8.5625 C1.05798828 9.27341797 1.05347656 9.98433594 1.04882812 10.71679688 C1.03700864 12.47790013 1.01907263 14.23896036 1 16 C-1.33970475 15.06897562 -3.67663167 14.13822411 -5.9921875 13.1484375 C-11.22834493 10.99748486 -15.7720031 10.06557985 -21.375 11.6875 C-23.1884836 12.94430077 -23.1884836 12.94430077 -24 15.3125 C-24 19.15734488 -22.63661817 20.2126015 -20 23 C-16.56847993 25.48842019 -12.91665118 27.62268457 -9.28710938 29.80664062 C-3.25839559 33.54476131 2.1959745 37.783898 4 45 C4.60641653 51.34571584 4.21648388 56.34342489 1 62 C-2.91082845 66.52832768 -7.05288243 69.8672157 -13 71 C-21.54989865 71.51757244 -29.03923655 71.43136356 -37 68 C-38 67 -38 67 -38.09765625 63.62109375 C-38.09098369 62.22652923 -38.07902532 60.83198257 -38.0625 59.4375 C-38.05798828 58.72658203 -38.05347656 58.01566406 -38.04882812 57.28320312 C-38.03700864 55.52209987 -38.01907263 53.76103964 -38 52 C-35.67808837 52.92075806 -33.36200116 53.83960111 -31.078125 54.8515625 C-26.0381272 56.98386926 -21.45617858 57.77179736 -16 57 C-13.36073536 56.08686892 -13.36073536 56.08686892 -12 54 C-11.16600125 51.08681086 -11.16600125 51.08681086 -12 48 C-16.00837137 44.26848311 -20.33483767 41.45463669 -25 38.625 C-31.08957875 34.82449095 -36.61943537 31.14169389 -39 24 C-39.95585973 10.23194351 -39.95585973 10.23194351 -36 5 C-26.676987 -4.9493653 -12.07542913 -5.65669374 0 0 Z " fill="#B10738" transform="translate(528,389)"/>
<path d="M0 0 C0 5.28 0 10.56 0 16 C-1.835625 15.175 -3.67125 14.35 -5.5625 13.5 C-11.50584886 11.03875435 -15.74634671 9.75392002 -21.9375 12.125 C-24.27369181 13.88230771 -24.27369181 13.88230771 -24.625 16.9375 C-23.79608779 20.99916982 -22.33401066 21.60762208 -19 24 C-17.31781873 25.05782557 -15.63491104 26.11479342 -13.9362793 27.14599609 C-6.95410365 31.40174462 0.29037645 35.87112934 3 44 C3.6350156 51.70346797 3.88954348 57.78895828 -1 64 C-6.07352862 68.93640623 -11.80112319 71.35288722 -18.84936523 71.41625977 C-19.51782471 71.40264404 -20.18628418 71.38902832 -20.875 71.375 C-21.92119507 71.36521118 -21.92119507 71.36521118 -22.98852539 71.35522461 C-28.12719492 71.22208608 -35.1132661 70.8867339 -39 67 C-39.07313567 64.46950598 -39.09247527 61.96695163 -39.0625 59.4375 C-39.05798828 58.72658203 -39.05347656 58.01566406 -39.04882812 57.28320312 C-39.03700864 55.52209987 -39.01907263 53.76103964 -39 52 C-36.67808837 52.92075806 -34.36200116 53.83960111 -32.078125 54.8515625 C-26.49262855 57.21465715 -20.62451052 58.39057597 -14.80078125 56.15625 C-12.70439844 55.0629226 -12.70439844 55.0629226 -11.9375 52.1875 C-11.66926889 48.89614719 -11.66926889 48.89614719 -13.96875 46.64453125 C-18.08950169 42.77664882 -23.04730094 40.03360558 -27.84960938 37.10546875 C-33.73185267 33.42582757 -37.89529243 29.85624435 -40 23 C-40.91320178 15.89613967 -40.24697307 9.87613978 -36 4 C-26.29426822 -5.97533544 -11.99583252 -4.29701463 0 0 Z " fill="#B10737" transform="translate(148,389)"/>
<path d="M0 0 C19.8 0 39.6 0 60 0 C59.34 4.29 58.68 8.58 58 13 C50.41 13 42.82 13 35 13 C35 32.47 35 51.94 35 72 C30.71 72 26.42 72 22 72 C22 52.53 22 33.06 22 13 C14.74 13 7.48 13 0 13 C0 8.71 0 4.42 0 0 Z " fill="#B10737" transform="translate(160,387)"/>
<path d="M0 0 C2.50663276 0.98793912 3.77488538 1.6426752 5.23046875 3.953125 C5.70419922 5.09007812 5.70419922 5.09007812 6.1875 6.25 C6.51105469 6.99765625 6.83460938 7.7453125 7.16796875 8.515625 C8.8426103 13.51596316 9.12372578 18.40494926 9.11352539 23.64794922 C9.11344986 24.94884491 9.11337433 26.2497406 9.11329651 27.59005737 C9.10819101 28.99493448 9.10297504 30.39981119 9.09765625 31.8046875 C9.09578923 33.25342764 9.09436667 34.70216842 9.09336853 36.15090942 C9.08956573 39.94846363 9.07975474 43.74597908 9.06866455 47.54351807 C9.05840215 51.42484005 9.05386059 55.30616834 9.04882812 59.1875 C9.0381303 66.79168426 9.02108098 74.39583668 9 82 C7.43662827 81.54464901 5.87434151 81.08557224 4.3125 80.625 C3.44238281 80.36976563 2.57226562 80.11453125 1.67578125 79.8515625 C-0.94208453 79.01843149 -3.46291773 78.05140346 -6 77 C-6.09294702 68.40250625 -6.16388933 59.80522472 -6.20724869 51.20735168 C-6.22806593 47.21438771 -6.25627489 43.22176914 -6.30175781 39.22900391 C-6.3454269 35.37103919 -6.36918115 31.51340533 -6.37950897 27.6552124 C-6.38686282 26.18807776 -6.40122288 24.72095991 -6.42292023 23.25396729 C-6.53615183 15.27620561 -6.54296829 8.83451668 -2 2 C-1.34 1.34 -0.68 0.68 0 0 Z " fill="#B10737" transform="translate(340,219)"/>
<path d="M0 0 C2.53265572 0.99288599 3.77903226 1.6429442 5.23046875 3.98828125 C5.70419922 5.13876953 5.70419922 5.13876953 6.1875 6.3125 C6.51105469 7.07175781 6.83460938 7.83101562 7.16796875 8.61328125 C8.77482982 13.2226339 9.12327949 17.48353349 9.11352539 22.35083008 C9.11344986 23.6117598 9.11337433 24.87268951 9.11329651 26.17182922 C9.10819069 27.53773031 9.1029747 28.90363098 9.09765625 30.26953125 C9.0957897 31.67486012 9.09436692 33.08018965 9.09336853 34.48551941 C9.089562 38.17294125 9.07974774 41.8603233 9.06866455 45.54772949 C9.05841025 49.31501731 9.05386232 53.0823116 9.04882812 56.84960938 C9.0381237 64.233091 9.0210698 71.61653991 9 79 C3.54520815 78.43179252 -0.91059256 77.05362055 -6 75 C-6.09296287 66.66327561 -6.16389722 58.32677028 -6.20724869 49.98965454 C-6.22806256 46.1177531 -6.2562651 42.24620808 -6.30175781 38.37451172 C-6.34543929 34.63325532 -6.36918367 30.89234026 -6.37950897 27.15084839 C-6.38686064 25.72836947 -6.40121638 24.30590777 -6.42292023 22.88357544 C-6.54065794 14.84298298 -6.49374938 8.81896699 -2 2 C-1.34 1.34 -0.68 0.68 0 0 Z " fill="#B10737" transform="translate(363,229)"/>
<path d="M0 0 C5.18752624 4.20610235 6.7232688 8.51160776 8 15 C8.38021001 19.85243981 8.3507092 24.67425609 8.29296875 29.5390625 C8.28736007 30.91482069 8.283096 32.29058495 8.28010559 33.66635132 C8.26875667 37.25357165 8.2393781 40.84041635 8.20599365 44.42749023 C8.17507545 48.10134808 8.16155422 51.77526777 8.14648438 55.44921875 C8.11449645 62.63298209 8.06342413 69.81643803 8 77 C4.22740967 76.43684521 0.72649742 75.69256728 -2.875 74.4375 C-3.65617187 74.16808594 -4.43734375 73.89867187 -5.2421875 73.62109375 C-5.82226562 73.41613281 -6.40234375 73.21117187 -7 73 C-7.11641113 65.08900553 -7.20497411 57.1783754 -7.25906086 49.26673317 C-7.28503438 45.59206274 -7.32020304 41.91798295 -7.37719727 38.24365234 C-7.43196167 34.69039575 -7.46151236 31.13770327 -7.47438622 27.58405685 C-7.48797276 25.58446372 -7.52693404 23.58509411 -7.56648254 21.58584595 C-7.5688796 13.7119214 -6.67680532 7.52312087 -2 1 C-1.34 0.67 -0.68 0.34 0 0 Z " fill="#B10737" transform="translate(387,239)"/>
<path d="M0 0 C-0.78028564 0.31461182 -1.56057129 0.62922363 -2.36450195 0.95336914 C-5.82237361 2.6694817 -8.29387821 4.22908596 -11 7 C-12.53780287 12.49365266 -12.36360296 17.77439942 -12.1875 23.4375 C-12.18053366 24.94725082 -12.17853378 26.45703318 -12.18164062 27.96679688 C-12.17846854 31.64665134 -12.10771311 35.32154953 -12 39 C-15.92068805 34.03325682 -18.69092385 28.42661996 -21.6875 22.875 C-22.29400391 21.76511719 -22.90050781 20.65523437 -23.52539062 19.51171875 C-24.09837891 18.45339844 -24.67136719 17.39507812 -25.26171875 16.3046875 C-25.78725342 15.33515137 -26.31278809 14.36561523 -26.85424805 13.36669922 C-28 11 -28 11 -28 9 C-8.11661808 -2.70553936 -8.11661808 -2.70553936 0 0 Z " fill="#B10738" transform="translate(365,148)"/>
<path d="M0 0 C5 1 5 1 15 6 C15 13.59 15 21.18 15 29 C6 26 6 26 0 23 C0 15.41 0 7.82 0 0 Z " fill="#B10737" transform="translate(357,161)"/>
<path d="M0 0 C2 3 2 3 2.9375 4.8671875 C6.25143827 11.12955614 10.5474892 13.39393739 17 16 C14 18 14 18 12.1328125 18.97265625 C6.25122502 22.16519109 3.73224767 25.97066499 1 32 C-1.53855095 30.73072452 -1.58587108 29.83325507 -2.625 27.25 C-4.96189847 22.32928548 -8.32179338 20.47839283 -13 18 C-13.99 17.34 -14.98 16.68 -16 16 C-14.98679687 15.56300781 -14.98679687 15.56300781 -13.953125 15.1171875 C-7.05396456 11.94676406 -3.82830913 9.205111 -0.75 2.125 C-0.5025 1.42375 -0.255 0.7225 0 0 Z " fill="#7D7E80" transform="translate(315,335)"/>
</svg>
