<?xml version="1.0" encoding="UTF-8"?>
<svg version="1.1" xmlns="http://www.w3.org/2000/svg" width="1024" height="1024">
<path d="M0 0 C0.89303833 0.03055481 1.78607666 0.06110962 2.70617676 0.09259033 C4.15824524 0.15165558 4.15824524 0.15165558 5.63964844 0.21191406 C7.16809387 0.26832062 7.16809387 0.26832062 8.72741699 0.3258667 C12.06828711 0.45238135 15.40863175 0.58899473 18.74902344 0.72753906 C20.45209656 0.79606079 20.45209656 0.79606079 22.1895752 0.8659668 C37.89290318 1.5040752 53.57493005 2.32368654 69.24902344 3.47753906 C70.08582642 3.53711792 70.92262939 3.59669678 71.78479004 3.65808105 C74.14344821 3.82852022 76.50094112 4.0100457 78.85839844 4.19628906 C80.17291992 4.29876953 81.48744141 4.40125 82.84179688 4.50683594 C86.60772602 4.99152962 89.88719125 5.84089139 93.49902344 6.97753906 C93.49902344 7.63753906 93.49902344 8.29753906 93.49902344 8.97753906 C92.03027344 10.42285156 92.03027344 10.42285156 89.99902344 12.10253906 C84.45175032 16.82508485 79.19000881 21.78679483 74.62402344 27.47753906 C73.92277344 28.30253906 73.22152344 29.12753906 72.49902344 29.97753906 C71.83902344 29.97753906 71.17902344 29.97753906 70.49902344 29.97753906 C70.27183121 30.53037567 70.04463898 31.08321228 69.81056213 31.65280151 C68.11209645 34.66337753 65.96976081 36.7379662 63.5144043 39.17333984 C63.00853287 39.67789703 62.50266144 40.18245422 61.98146057 40.70230103 C60.31348426 42.3638024 58.6386503 44.01821415 56.96386719 45.67285156 C55.80276075 46.827686 54.64216904 47.98303815 53.48207092 49.1388855 C50.43052182 52.1771439 47.3734527 55.20978162 44.3147583 58.24084473 C39.41411201 63.09833387 34.52020647 67.96259166 29.62948799 72.83007431 C27.91843276 74.53088813 26.2040157 76.2282592 24.48924255 77.92532349 C23.44413026 78.96360991 22.39912615 80.00200524 21.35424805 81.04052734 C20.43872665 81.94779572 19.52320526 82.85506409 18.5799408 83.78982544 C16.46722073 85.79747674 16.46722073 85.79747674 15.49902344 87.97753906 C14.83902344 87.97753906 14.17902344 87.97753906 13.49902344 87.97753906 C13.16902344 88.96753906 12.83902344 89.95753906 12.49902344 90.97753906 C10.84899516 92.33140842 9.18158474 93.66432049 7.49902344 94.97753906 C6.83902344 95.96753906 6.17902344 96.95753906 5.49902344 97.97753906 C4.83902344 97.97753906 4.17902344 97.97753906 3.49902344 97.97753906 C3.09993398 98.86392852 3.09993398 98.86392852 2.6927821 99.76822484 C1.46883427 102.03341079 0.21387649 103.5122866 -1.60111523 105.3265667 C-2.24172522 105.97177548 -2.88233521 106.61698427 -3.54235762 107.28174484 C-4.24769159 107.98193524 -4.95302555 108.68212564 -5.67973328 109.40353394 C-6.4278768 110.15409187 -7.17602032 110.90464981 -7.94683486 111.67795193 C-10.46233781 114.1991037 -12.98494421 116.71302586 -15.50756836 119.22705078 C-17.30971319 121.03026823 -19.11142507 122.83391848 -20.91273499 124.63796997 C-25.303921 129.03350715 -29.69973544 133.42436886 -34.09771886 137.81310354 C-39.22152695 142.92652412 -44.34010031 148.04517132 -49.45847366 153.16403092 C-58.59507707 162.30113509 -67.73650399 171.43339826 -76.88061523 180.56298828 C-85.7471912 189.41549108 -94.61027199 198.27147365 -103.46948242 207.13134766 C-104.01460634 207.67651153 -104.55973026 208.2216754 -105.12137308 208.78335939 C-105.66556573 209.3275924 -106.20975838 209.8718254 -106.77044171 210.43255031 C-116.86080891 220.52360839 -126.95446775 230.61136831 -137.04965192 240.6976073 C-140.61583368 244.2607783 -144.18104353 247.82492 -147.74594688 251.38936996 C-152.55079984 256.19346731 -157.35844985 260.99474927 -162.16794395 265.7942009 C-163.93161791 267.55495844 -165.69445243 269.31655727 -167.45637894 271.07906342 C-169.86438068 273.48755745 -172.27544272 275.89294631 -174.68730164 278.2975769 C-175.38148199 278.99330586 -176.07566235 279.68903482 -176.79087847 280.40584648 C-180.40631719 284.00345025 -184.09364218 287.43593025 -188.00901604 290.70592493 C-190.30922264 292.66641596 -192.39102299 294.8150415 -194.50097656 296.97753906 C-195.78402913 298.26743866 -197.06840725 299.55602031 -198.35368347 300.84370422 C-199.87960373 302.37568605 -201.40550694 303.90768485 -202.93139648 305.43969727 C-211.43225934 313.9732146 -219.93815425 322.50169418 -228.44703197 331.02721882 C-233.59459731 336.18512807 -238.74024752 341.34492225 -243.8815918 346.5090332 C-248.37710206 351.02443935 -252.87608376 355.53635217 -257.3793171 360.04405659 C-259.76063162 362.42798171 -262.14014446 364.81364548 -264.51549339 367.20351601 C-267.15865342 369.86108956 -269.80789952 372.51244436 -272.45874023 375.16235352 C-273.64241684 376.35681595 -273.64241684 376.35681595 -274.8500061 377.57540894 C-275.56914688 378.29180038 -276.28828766 379.00819183 -277.02922058 379.74629211 C-277.65507648 380.37399159 -278.28093237 381.00169107 -278.92575359 381.64841175 C-280.50097656 382.97753906 -280.50097656 382.97753906 -282.50097656 382.97753906 C-282.72785156 383.55503906 -282.95472656 384.13253906 -283.18847656 384.72753906 C-284.84498169 387.56726214 -286.92665644 388.92978442 -289.50097656 390.97753906 C-290.48045037 392.08418212 -291.43755516 393.21087666 -292.37597656 394.35253906 C-294.41206828 396.80522244 -296.47531772 398.89271402 -298.93847656 400.91503906 C-302.29496658 403.68618093 -305.05447748 406.7787453 -307.86816406 410.09082031 C-309.96014838 412.5081132 -312.2413138 414.7178763 -314.50097656 416.97753906 C-315.03722656 417.74066406 -315.57347656 418.50378906 -316.12597656 419.29003906 C-316.80660156 420.12535156 -316.80660156 420.12535156 -317.50097656 420.97753906 C-318.49097656 420.97753906 -319.48097656 420.97753906 -320.50097656 420.97753906 C-321.71200794 417.34444494 -320.85718084 416.20470077 -319.31350708 412.8576355 C-318.08323973 410.01094703 -317.43596845 407.0933949 -316.74707031 404.07519531 C-316.60113937 403.44027161 -316.45520844 402.8053479 -316.30485535 402.15118408 C-315.84077037 400.11596627 -315.38828819 398.07845592 -314.93847656 396.04003906 C-314.7054483 394.99401016 -314.7054483 394.99401016 -314.4677124 393.92684937 C-310.77727865 377.30172978 -309.06356466 360.987147 -308.50097656 343.97753906 C-308.47229492 343.28112305 -308.44361328 342.58470703 -308.4140625 341.8671875 C-306.9579572 304.28492545 -315.70562217 256.81862765 -338.27441406 225.73925781 C-339.50097656 223.97753906 -339.50097656 223.97753906 -340.43847656 222.09863281 C-352.0714324 198.87548935 -373.66588649 178.97880391 -394.50097656 163.97753906 C-385.86636571 155.26485759 -376.83318318 147.27471581 -367.12597656 139.79003906 C-364.68180634 137.90544129 -362.26835723 135.98995793 -359.87597656 134.04003906 C-342.12625914 119.57809365 -323.08153476 106.81967306 -303.50097656 94.97753906 C-302.43492187 94.31625 -301.36886719 93.65496094 -300.27050781 92.97363281 C-287.99943358 85.407915 -275.25203757 78.69087173 -262.50097656 71.97753906 C-261.11845703 71.24615723 -261.11845703 71.24615723 -259.70800781 70.5 C-242.77232769 61.5954776 -225.20052815 54.20519939 -207.50097656 46.97753906 C-206.8472406 46.71007874 -206.19350464 46.44261841 -205.5199585 46.16705322 C-146.46651518 22.05640953 -84.98761495 6.3201607 -21.29516602 1.92773438 C-20.47611282 1.87060776 -19.65705963 1.81348114 -18.81318665 1.75462341 C-17.27085695 1.64823637 -15.72828913 1.54522783 -14.18547058 1.44618225 C-10.33390602 1.20054005 -10.33390602 1.20054005 -6.55792236 0.45579529 C-4.27353657 -0.07534254 -2.34221275 -0.0865776 0 0 Z " fill="#0A0A0B" transform="translate(692.5009765625,251.0224609375)"/>
<path d="M0 0 C19.93303247 9.42519558 34.74501767 43.27996225 42 63 C44.25997057 69.59335753 46.18792609 76.27151401 48 83 C48.47953125 84.75183594 48.47953125 84.75183594 48.96875 86.5390625 C59.56429297 130.08674409 50.98489399 178.19135497 28.50488281 216.55126953 C19.87646705 230.5070144 9.73928611 243.34571386 -1.4921875 255.28125 C-3.27309712 257.21195576 -4.95982157 259.13690563 -6.62109375 261.1640625 C-9.24199234 264.28848348 -11.75919618 266.55139267 -15 269 C-15.66 269 -16.32 269 -17 269 C-17 269.66 -17 270.32 -17 271 C-18.98309847 272.73253749 -20.97205999 274.34281105 -23.0625 275.9375 C-23.6922876 276.42331543 -24.3220752 276.90913086 -24.97094727 277.40966797 C-26.97440799 278.94812365 -28.98635324 280.47490856 -31 282 C-31.62487305 282.47743652 -32.24974609 282.95487305 -32.89355469 283.44677734 C-41.31302913 289.86256809 -49.9328467 295.6529726 -59.1171875 300.91601562 C-60.97373374 301.98487783 -62.81532878 303.07636953 -64.65625 304.171875 C-106.31206729 328.64997951 -153.70719742 341.67841998 -201.0625 349.4375 C-202.06031494 349.6015332 -203.05812988 349.76556641 -204.08618164 349.93457031 C-209.45999106 350.76524129 -214.56304582 351.16009877 -220 351 C-220.33 351.66 -220.66 352.32 -221 353 C-221.55236328 353.02505615 -222.10472656 353.0501123 -222.67382812 353.07592773 C-225.28261721 353.19507396 -227.89131202 353.31616048 -230.5 353.4375 C-231.46760254 353.48189209 -232.43520508 353.52628418 -233.43212891 353.57202148 C-238.75550861 353.82264229 -244.06146035 354.14830426 -249.375 354.5625 C-282.70429598 356.63930035 -316.98984861 354.89764857 -350 350 C-350 349.34 -350 348.68 -350 348 C-349.443125 347.773125 -348.88625 347.54625 -348.3125 347.3125 C-343.49817648 344.58004611 -340.12101967 340.0548646 -336.625 335.84375 C-334.51853241 333.45371947 -332.26247369 331.24327307 -330 329 C-328.83857032 327.81765581 -327.67849901 326.63397629 -326.51953125 325.44921875 C-325.28393164 324.19523615 -324.04825327 322.94133117 -322.8125 321.6875 C-322.18408203 321.04232422 -321.55566406 320.39714844 -320.90820312 319.73242188 C-320.30556641 319.12333984 -319.70292969 318.51425781 -319.08203125 317.88671875 C-318.53780518 317.33201904 -317.9935791 316.77731934 -317.43286133 316.20581055 C-316 315 -316 315 -314 315 C-313.73650757 314.41184509 -313.47301514 313.82369019 -313.20153809 313.2177124 C-311.94762429 310.90332869 -310.62938424 309.37571885 -308.77539062 307.51660156 C-308.12131226 306.85621887 -307.46723389 306.19583618 -306.79333496 305.51544189 C-306.08809692 304.81425232 -305.38285889 304.11306274 -304.65625 303.390625 C-303.56890564 302.30041046 -303.56890564 302.30041046 -302.45959473 301.18817139 C-300.92880989 299.65602721 -299.39550303 298.12639925 -297.85986328 296.59912109 C-295.5018923 294.25188369 -293.15480454 291.89414222 -290.80859375 289.53515625 C-289.32095364 288.04883718 -287.83269356 286.56313831 -286.34375 285.078125 C-285.28589294 284.01419525 -285.28589294 284.01419525 -284.20666504 282.92877197 C-283.22554749 281.9571109 -283.22554749 281.9571109 -282.22460938 280.96582031 C-281.64884155 280.39164368 -281.07307373 279.81746704 -280.4798584 279.22589111 C-279 278 -279 278 -277 278 C-276.690625 277.1646875 -276.690625 277.1646875 -276.375 276.3125 C-274.8570529 273.75958897 -273.03966431 272.31993959 -270.72265625 270.50390625 C-268.00768025 268.13368911 -265.79764537 265.35478861 -263.515625 262.57421875 C-263.01546875 262.05472656 -262.5153125 261.53523438 -262 261 C-261.34 261 -260.68 261 -260 261 C-259.75612549 260.43015381 -259.51225098 259.86030762 -259.26098633 259.27319336 C-257.7711548 256.58745834 -256.01094824 254.78524827 -253.82421875 252.62890625 C-252.99599609 251.80712891 -252.16777344 250.98535156 -251.31445312 250.13867188 C-250.44755859 249.28853516 -249.58066406 248.43839844 -248.6875 247.5625 C-247.83220703 246.71623047 -246.97691406 245.86996094 -246.09570312 244.99804688 C-244.49275927 243.41248584 -242.88776427 241.82899373 -241.2800293 240.24829102 C-235.82180398 234.86604485 -230.42898224 229.41750171 -225.01879883 223.98706055 C-215.91923435 214.85482774 -206.81462388 205.72764256 -197.70703602 196.60341167 C-192.1962658 191.08229848 -186.68740849 185.55930059 -181.18286133 180.03198242 C-176.37092435 175.20015044 -171.55551605 170.37181025 -166.73585719 165.5476802 C-164.1868697 162.99608175 -161.63968272 160.44274167 -159.09665871 157.88519859 C-156.26751354 155.04002587 -153.43065359 152.20267121 -150.59301758 149.3659668 C-149.74779541 148.51355408 -148.90257324 147.66114136 -148.03173828 146.78289795 C-147.26211258 146.01602158 -146.49248688 145.2491452 -145.69953918 144.45903015 C-145.02943723 143.78708461 -144.35933527 143.11513906 -143.66892719 142.42283154 C-142 141 -142 141 -140 141 C-139.7525 140.4225 -139.505 139.845 -139.25 139.25 C-137.81700012 136.67060021 -136.21575324 134.93878408 -134 133 C-133.34 133 -132.68 133 -132 133 C-131.76732422 132.44280273 -131.53464844 131.88560547 -131.29492188 131.31152344 C-129.66430607 128.40076355 -127.63760806 126.37818867 -125.28125 124.015625 C-124.34925781 123.08105469 -123.41726563 122.14648438 -122.45703125 121.18359375 C-121.97186035 120.7026123 -121.48668945 120.22163086 -120.98681641 119.72607422 C-119.49793661 118.24795152 -118.02008349 116.75940089 -116.54296875 115.26953125 C-115.61097656 114.34011719 -114.67898438 113.41070313 -113.71875 112.453125 C-112.86216797 111.59879883 -112.00558594 110.74447266 -111.12304688 109.86425781 C-109 108 -109 108 -107 108 C-106.5968457 107.11006348 -106.5968457 107.11006348 -106.18554688 106.20214844 C-104.99709268 103.99459967 -103.79257611 102.53457118 -102.03125 100.765625 C-101.46019531 100.19199219 -100.88914062 99.61835937 -100.30078125 99.02734375 C-99.70652344 98.44082031 -99.11226562 97.85429688 -98.5 97.25 C-97.90574219 96.64800781 -97.31148437 96.04601562 -96.69921875 95.42578125 C-96.12816406 94.85730469 -95.55710937 94.28882813 -94.96875 93.703125 C-94.44732422 93.18395508 -93.92589844 92.66478516 -93.38867188 92.12988281 C-92 91 -92 91 -90 91 C-89.62600822 90.13803261 -89.62600822 90.13803261 -89.24446106 89.25865173 C-87.81894369 86.67138935 -86.18376581 84.94358792 -84.08862305 82.86157227 C-82.88178108 81.65495689 -82.88178108 81.65495689 -81.65055847 80.42396545 C-80.77974136 79.56347092 -79.90892426 78.70297638 -79.01171875 77.81640625 C-78.11636917 76.92388657 -77.22101959 76.03136688 -76.29853821 75.11180115 C-73.91859395 72.74115451 -71.53442385 70.37492677 -69.14807129 68.01074219 C-66.73381683 65.61686714 -64.32512919 63.21740603 -61.91601562 60.81835938 C-57.6203596 56.54254881 -53.32304265 52.26845664 -49.01303101 48.0071106 C-47.35248725 46.35145057 -45.72450697 44.67164753 -44.10083008 42.98022461 C-42 41 -42 41 -39 40 C-39 39.34 -39 38.68 -39 38 C-38.34 38 -37.68 38 -37 38 C-36.67 37.01 -36.34 36.02 -36 35 C-34.328125 33.3515625 -34.328125 33.3515625 -32.25 31.625 C-28.98817731 28.89851462 -25.99638158 26.01637727 -23 23 C-15.33333333 15.33333333 -7.66666667 7.66666667 0 0 Z " fill="#0A0A0B" transform="translate(646,463)"/>
<path d="M0 0 C3.875 1.75 3.875 1.75 5 4 C3.9790625 4.0309375 3.9790625 4.0309375 2.9375 4.0625 C-0.89084803 5.2843132 -2.66295394 7.42128772 -5.37890625 10.30078125 C-7.11998877 12.12577137 -8.95406808 13.52948643 -11 15 C-15.85318731 18.9685567 -20.34789564 23.22171245 -24.74609375 27.68359375 C-25.36090103 28.30218765 -25.97570831 28.92078156 -26.60914612 29.55812073 C-29.20692186 32.17204823 -31.79864894 34.79194184 -34.39086914 37.41137695 C-51.45816942 54.64198012 -51.45816942 54.64198012 -55 57 C-55.99 57 -56.98 57 -58 57 C-49.89453125 48.89453125 -49.89453125 48.89453125 -48.43212891 47.43994141 C-47.0443046 46.04454629 -45.68371657 44.62222596 -44.32421875 43.19921875 C-42 41 -42 41 -39 40 C-39 39.34 -39 38.68 -39 38 C-38.34 38 -37.68 38 -37 38 C-36.67 37.01 -36.34 36.02 -36 35 C-34.328125 33.3515625 -34.328125 33.3515625 -32.25 31.625 C-28.98817731 28.89851462 -25.99638158 26.01637727 -23 23 C-15.33333333 15.33333333 -7.66666667 7.66666667 0 0 Z " fill="#2E2F2F" transform="translate(646,463)"/>
<path d="M0 0 C0 0.66 0 1.32 0 2 C20.79 2 41.58 2 63 2 C63 2.33 63 2.66 63 3 C35.05433703 5.53639729 6.93378459 3.76567252 -21 2 C-21 1.67 -21 1.34 -21 1 C-18.43761495 0.83138242 -15.87511576 0.66504227 -13.3125 0.5 C-12.59126953 0.45230469 -11.87003906 0.40460937 -11.12695312 0.35546875 C-7.41171286 0.11796481 -3.72305126 -0.05874637 0 0 Z " fill="#333232" transform="translate(341,814)"/>
<path d="M0 0 C0.66 0.33 1.32 0.66 2 1 C-5.06726457 8.39013453 -5.06726457 8.39013453 -9.25 11.125 C-12.51033828 13.34795792 -13.88334417 15.69272527 -16 19 C-19.23284552 22.80016939 -22.10056806 25.55899061 -27 27 C-25.6489735 23.98984706 -24.13664313 21.88032534 -21.8125 19.546875 C-21.19632812 18.928125 -20.58015625 18.309375 -19.9453125 17.671875 C-19.30335938 17.03765625 -18.66140625 16.4034375 -18 15.75 C-17.35804688 15.1003125 -16.71609375 14.450625 -16.0546875 13.78125 C-15.43851562 13.16765625 -14.82234375 12.5540625 -14.1875 11.921875 C-13.62417969 11.36081055 -13.06085938 10.79974609 -12.48046875 10.22167969 C-11 9 -11 9 -9 9 C-8.7525 8.4225 -8.505 7.845 -8.25 7.25 C-6.17445909 3.51402637 -4.06826056 1.35608685 0 0 Z " fill="#2A2A2A" transform="translate(341,769)"/>
<path d="M0 0 C0.66 0.33 1.32 0.66 2 1 C-0.61150614 6.10430745 -4.46932625 9.76539109 -8.5 13.75 C-9.17675781 14.43449219 -9.85351562 15.11898437 -10.55078125 15.82421875 C-11.20433594 16.47519531 -11.85789062 17.12617187 -12.53125 17.796875 C-13.12486328 18.38823242 -13.71847656 18.97958984 -14.33007812 19.58886719 C-16 21 -16 21 -19 22 C-18.51061681 17.72538761 -16.04257174 15.67448934 -13.0625 12.75 C-12.16660156 11.85796875 -11.27070313 10.9659375 -10.34765625 10.046875 C-8 8 -8 8 -6 8 C-5.7525 7.4225 -5.505 6.845 -5.25 6.25 C-3.83316683 3.6997003 -2.12372463 1.98214299 0 0 Z " fill="#191919" transform="translate(512,596)"/>
<path d="M0 0 C0.66 0.33 1.32 0.66 2 1 C0.4466384 2.9454723 -1.11691235 4.88101135 -2.6875 6.8125 C-3.12255859 7.35970703 -3.55761719 7.90691406 -4.00585938 8.47070312 C-6.72525145 11.79440455 -9.2778099 13.91068777 -13 16 C-13.495 16.825 -13.99 17.65 -14.5 18.5 C-16.30413801 21.50689668 -17.99285117 22.25165766 -21 24 C-23.09807313 25.91993485 -25.03323792 27.94176062 -27 30 C-27.66 29.67 -28.32 29.34 -29 29 C-27.04761147 26.99387601 -25.08862178 24.99507567 -23.125 23 C-22.56941406 22.42765625 -22.01382812 21.8553125 -21.44140625 21.265625 C-19.99865596 19.80549218 -18.5025626 18.39850702 -17 17 C-16.34 17 -15.68 17 -15 17 C-14.690625 16.1646875 -14.690625 16.1646875 -14.375 15.3125 C-12.85847886 12.76198717 -11.04072658 11.32359082 -8.73046875 9.50390625 C-5.47131697 6.67146057 -2.76934082 3.30190636 0 0 Z " fill="#343334" transform="translate(384,724)"/>
<path d="M0 0 C0.70461365 0.02361099 1.40922729 0.04722198 2.13519287 0.07154846 C4.3768078 0.14787602 6.61804996 0.23203204 8.859375 0.31640625 C10.3827945 0.36965795 11.90623198 0.42239813 13.4296875 0.47460938 C17.15647655 0.60344873 20.88297167 0.73930857 24.609375 0.87890625 C24.609375 1.20890625 24.609375 1.53890625 24.609375 1.87890625 C23.98893311 1.9039624 23.36849121 1.92901855 22.72924805 1.95483398 C19.91825103 2.07087346 17.10758259 2.19356384 14.296875 2.31640625 C13.32041016 2.35572266 12.34394531 2.39503906 11.33789062 2.43554688 C10.40009766 2.47744141 9.46230469 2.51933594 8.49609375 2.5625 C7.63201904 2.59915771 6.76794434 2.63581543 5.87768555 2.67358398 C3.4445924 2.80637979 3.4445924 2.80637979 0.609375 3.87890625 C-1.45736406 3.89483591 -3.52488583 3.84506424 -5.58984375 3.7578125 C-6.79833984 3.70947266 -8.00683594 3.66113281 -9.25195312 3.61132812 C-10.51458984 3.55525391 -11.77722656 3.49917969 -13.078125 3.44140625 C-14.35236328 3.38919922 -15.62660156 3.33699219 -16.93945312 3.28320312 C-20.09008539 3.1534018 -23.24041077 3.01843065 -26.390625 2.87890625 C-26.390625 2.54890625 -26.390625 2.21890625 -26.390625 1.87890625 C-24.83601562 1.78802734 -24.83601562 1.78802734 -23.25 1.6953125 C-21.88019627 1.61087254 -20.51040525 1.52622628 -19.140625 1.44140625 C-18.45871094 1.40208984 -17.77679687 1.36277344 -17.07421875 1.32226562 C-13.30349885 1.12217591 -13.30349885 1.12217591 -9.62304688 0.3515625 C-6.41005087 -0.32870437 -3.26015668 -0.12974606 0 0 Z " fill="#3F3F3E" transform="translate(695.390625,251.12109375)"/>
<path d="M0 0 C0.33 0.99 0.66 1.98 1 3 C0.46375 3.515625 -0.0725 4.03125 -0.625 4.5625 C-3.12562273 7.12892859 -5.37730279 9.82796924 -7.6328125 12.609375 C-8.30957031 13.29773438 -8.30957031 13.29773438 -9 14 C-9.66 14 -10.32 14 -11 14 C-11.20625 14.5775 -11.4125 15.155 -11.625 15.75 C-13.49750888 18.81410544 -15.96958519 20.15539968 -19 22 C-19.66 21.67 -20.32 21.34 -21 21 C-14.07 14.07 -7.14 7.14 0 0 Z " fill="#121212" transform="translate(476,632)"/>
<path d="M0 0 C0.99 0.33 1.98 0.66 3 1 C-0.31067517 5.24180256 -3.83683607 8.70157331 -7.9296875 12.1875 C-11.10858261 14.9705327 -14.05550248 17.97268849 -17 21 C-17.66 20.34 -18.32 19.68 -19 19 C-12.73 12.73 -6.46 6.46 0 0 Z " fill="#171717" transform="translate(504,538)"/>
<path d="M0 0 C0.99 0.33 1.98 0.66 3 1 C2.28972656 1.69867188 1.57945312 2.39734375 0.84765625 3.1171875 C-0.07144531 4.02726562 -0.99054687 4.93734375 -1.9375 5.875 C-2.85402344 6.77992188 -3.77054688 7.68484375 -4.71484375 8.6171875 C-7.01187627 10.77682255 -7.01187627 10.77682255 -8 13 C-8.66 13 -9.32 13 -10 13 C-10.33 13.99 -10.66 14.98 -11 16 C-13.5625 17.6875 -13.5625 17.6875 -16 19 C-16.33 18.01 -16.66 17.02 -17 16 C-16.278125 15.443125 -15.55625 14.88625 -14.8125 14.3125 C-12.01408195 12.01157849 -9.53085807 9.59111659 -7 7 C-5.73049252 5.72784219 -4.45961248 4.4570529 -3.1875 3.1875 C-2.58292969 2.58292969 -1.97835937 1.97835938 -1.35546875 1.35546875 C-0.68451172 0.68451172 -0.68451172 0.68451172 0 0 Z " fill="#161616" transform="translate(716,326)"/>
<path d="M0 0 C0.66 0.33 1.32 0.66 2 1 C-2.59169951 5.86537696 -7.4822361 10.10111498 -12.765625 14.203125 C-17.20971445 17.76736614 -17.20971445 17.76736614 -19 23 C-20.32 22.34 -21.64 21.68 -23 21 C-19.44387545 17.39820045 -15.79849585 13.91549428 -12.0625 10.5 C-11.56298828 10.03980469 -11.06347656 9.57960938 -10.54882812 9.10546875 C-7.11690888 5.96138789 -3.59444378 2.95697909 0 0 Z " fill="#292929" transform="translate(321,394)"/>
<path d="M0 0 C0.66 0.33 1.32 0.66 2 1 C-0.22761082 4.34141623 -1.74679229 5.16225169 -5.25 7 C-6.23613281 7.51949219 -7.22226562 8.03898437 -8.23828125 8.57421875 C-9.60533203 9.27998047 -9.60533203 9.27998047 -11 10 C-12.7015625 10.8971875 -12.7015625 10.8971875 -14.4375 11.8125 C-16.64766075 12.83672084 -18.61588473 13.54151629 -21 14 C-17.78223308 10.40319787 -14.12770309 8.16372983 -9.9375 5.875 C-4.88883596 3.07247413 -4.88883596 3.07247413 0 0 Z " fill="#252525" transform="translate(397,341)"/>
<path d="M0 0 C0.99 0.33 1.98 0.66 3 1 C2.04882866 2.1725131 1.08882991 3.33787015 0.125 4.5 C-0.67550781 5.47453125 -0.67550781 5.47453125 -1.4921875 6.46875 C-1.98976563 6.9740625 -2.48734375 7.479375 -3 8 C-3.66 8 -4.32 8 -5 8 C-5.2475 8.5775 -5.495 9.155 -5.75 9.75 C-7.16683317 12.3002997 -8.87627537 14.01785701 -11 16 C-11.66 15.67 -12.32 15.34 -13 15 C-12.401875 14.443125 -11.80375 13.88625 -11.1875 13.3125 C-8.95150193 11.1268626 -8.95150193 11.1268626 -7.625 8.625 C-5.50257886 5.19647354 -2.91347992 2.78399192 0 0 Z " fill="#1B1C1C" transform="translate(547,561)"/>
<path d="M0 0 C0 4.6799478 -2.56855768 7.5360249 -5.71875 10.7578125 C-9.19171313 13.92174078 -9.19171313 13.92174078 -11 15 C-11.99 14.67 -12.98 14.34 -14 14 C-9.38 9.38 -4.76 4.76 0 0 Z " fill="#2C2D2D" transform="translate(450,658)"/>
<path d="M0 0 C0.33 0.99 0.66 1.98 1 3 C-3.33333333 7.33333333 -7.66666667 11.66666667 -12 16 C-12.33 15.01 -12.66 14.02 -13 13 C-9.39746113 7.88671902 -4.77137085 4.00179491 0 0 Z " fill="#1C1B1B" transform="translate(645,714)"/>
<path d="M0 0 C0 4.15310058 -1.45772455 5.74067251 -4 9 C-6.251309 10.85118341 -8.55337834 12.40028584 -11 14 C-11.66 13.67 -12.32 13.34 -13 13 C-8.71 8.71 -4.42 4.42 0 0 Z " fill="#313131" transform="translate(435,673)"/>
<path d="M0 0 C-3.24089736 2.86694766 -5.78497429 3.35858304 -10 4 C-10.66 4.66 -11.32 5.32 -12 6 C-16.03750918 6.82245557 -19.05842614 7.15469014 -23 6 C-19.54574482 4.8003958 -16.08603135 3.61739705 -12.625 2.4375 C-11.64015625 2.09525391 -10.6553125 1.75300781 -9.640625 1.40039062 C-8.22910156 0.92182617 -8.22910156 0.92182617 -6.7890625 0.43359375 C-5.91975098 0.13509521 -5.05043945 -0.16340332 -4.15478516 -0.47094727 C-2 -1 -2 -1 0 0 Z " fill="#2F2F2F" transform="translate(536,281)"/>
<path d="M0 0 C3.875 1.75 3.875 1.75 5 4 C4.29875 4.061875 3.5975 4.12375 2.875 4.1875 C-1.0332733 5.29201202 -3.00357248 7.28230992 -6 10 C-4.79157144 5.56909529 -3.48331435 3.01887244 0 0 Z " fill="#1D1D1E" transform="translate(646,463)"/>
<path d="M0 0 C0.66 0.33 1.32 0.66 2 1 C-0.49996659 3.9777759 -3.04711071 4.94548483 -6.6875 6.1875 C-7.68136719 6.53167969 -8.67523438 6.87585938 -9.69921875 7.23046875 C-10.45847656 7.48441406 -11.21773438 7.73835938 -12 8 C-12.66 7.34 -13.32 6.68 -14 6 C-11.71220962 4.96959833 -9.42048864 3.95047982 -7.125 2.9375 C-6.47402344 2.64294922 -5.82304687 2.34839844 -5.15234375 2.04492188 C-3.45989459 1.30338487 -1.73131425 0.64560999 0 0 Z " fill="#202020" transform="translate(471,304)"/>
<path d="M0 0 C-3.11930825 1.7435756 -5.99110451 2.54645178 -9.5 3.1875 C-10.90765625 3.45626953 -10.90765625 3.45626953 -12.34375 3.73046875 C-14.91111354 3.99098064 -16.57415258 3.80670869 -19 3 C-16.01839377 1.01226251 -14.43749015 0.58688856 -11 0 C-10.38125 -0.20625 -9.7625 -0.4125 -9.125 -0.625 C-5.97561391 -1.18077402 -3.12499801 -0.54086504 0 0 Z " fill="#262626" transform="translate(474,806)"/>
<path d="M0 0 C-1.51167706 4.23269578 -4.30552799 5.66268097 -8 8 C-9.79394446 9.62351109 -9.79394446 9.62351109 -11 11 C-11.66 10.67 -12.32 10.34 -13 10 C-11.40517782 8.32438946 -9.79883156 6.65974066 -8.1875 5 C-7.29417969 4.071875 -6.40085937 3.14375 -5.48046875 2.1875 C-3 0 -3 0 0 0 Z " fill="#2D2D2C" transform="translate(410,701)"/>
<path d="M0 0 C0.99 0.66 1.98 1.32 3 2 C1.04669132 3.03041513 -0.91281528 4.0490893 -2.875 5.0625 C-3.96554687 5.63097656 -5.05609375 6.19945312 -6.1796875 6.78515625 C-7.11039063 7.18605469 -8.04109375 7.58695313 -9 8 C-9.66 7.67 -10.32 7.34 -11 7 C-8.81482901 4.59424393 -6.74080329 3.20464419 -3.8125 1.8125 C-2.73935547 1.29623047 -2.73935547 1.29623047 -1.64453125 0.76953125 C-1.10183594 0.51558594 -0.55914063 0.26164063 0 0 Z " fill="#1F1E1E" transform="translate(561,774)"/>
<path d="M0 0 C0.66 0.33 1.32 0.66 2 1 C0.71451591 2.33929505 -0.57858155 3.67128643 -1.875 5 C-2.59429687 5.7425 -3.31359375 6.485 -4.0546875 7.25 C-6 9 -6 9 -8 9 C-7.45712148 5.19985035 -5.88535357 3.46103687 -3 1 C-2.01 0.67 -1.02 0.34 0 0 Z " fill="#1C1C1D" transform="translate(341,769)"/>
<path d="M0 0 C0.33 0.66 0.66 1.32 1 2 C-1.64 2 -4.28 2 -7 2 C-7 2.66 -7 3.32 -7 4 C-11.95 3.67 -16.9 3.34 -22 3 C-22 2.67 -22 2.34 -22 2 C-11.11 1.01 -11.11 1.01 0 0 Z " fill="#3E3E3D" transform="translate(667,253)"/>
<path d="M0 0 C0.33 0.66 0.66 1.32 1 2 C-1.01577062 6.50584021 -3.83128248 8.49876949 -8 11 C-8.66 10.67 -9.32 10.34 -10 10 C-6.7 6.7 -3.4 3.4 0 0 Z " fill="#353535" transform="translate(465,643)"/>
<path d="M0 0 C3.15702316 3.90869534 6 7.8614939 6 13 C3 12 3 12 1.796875 9.78515625 C1.27867187 8.43744141 1.27867187 8.43744141 0.75 7.0625 C0.39421875 6.16660156 0.0384375 5.27070312 -0.328125 4.34765625 C-1 2 -1 2 0 0 Z " fill="#1D1D1D" transform="translate(679,508)"/>
<path d="M0 0 C1.32 0 2.64 0 4 0 C5.51953125 1.64453125 5.51953125 1.64453125 6.8125 3.8125 C7.47185547 4.87404297 7.47185547 4.87404297 8.14453125 5.95703125 C9 8 9 8 8 11 C4.57515921 7.91764329 2.05392841 4.10785683 0 0 Z " fill="#222222" transform="translate(352,473)"/>
<path d="M0 0 C0 0.66 0 1.32 0 2 C-1.96147874 3.38938077 -3.96166576 4.7260411 -6 6 C-6 3 -6 3 -5 0 C-6.98 0 -8.96 0 -11 0 C-7.07632508 -2.82504594 -4.32061114 -1.49559616 0 0 Z " fill="#323233" transform="translate(786,258)"/>
<path d="M0 0 C0.99 0.33 1.98 0.66 3 1 C-0.33333333 3.66666667 -3.66666667 6.33333333 -7 9 C-7.66 8.67 -8.32 8.34 -9 8 C-2.92207792 1.75324675 -2.92207792 1.75324675 0 0 Z " fill="#1E1E1E" transform="translate(610,745)"/>
<path d="M0 0 C1.26457031 0.12761719 2.52914063 0.25523437 3.83203125 0.38671875 C5.74048828 0.56654297 5.74048828 0.56654297 7.6875 0.75 C8.66332031 0.85699219 9.63914062 0.96398437 10.64453125 1.07421875 C10.31453125 1.73421875 9.98453125 2.39421875 9.64453125 3.07421875 C4.36453125 3.07421875 -0.91546875 3.07421875 -6.35546875 3.07421875 C-3.35546875 0.07421875 -3.35546875 0.07421875 0 0 Z " fill="#363737" transform="translate(415.35546875,812.92578125)"/>
<path d="M0 0 C0.99 0.66 1.98 1.32 3 2 C1.3789897 2.69685498 -0.24696066 3.38222861 -1.875 4.0625 C-2.77992188 4.44535156 -3.68484375 4.82820312 -4.6171875 5.22265625 C-7 6 -7 6 -9 5 C-6.47228379 1.91056908 -3.8555225 0.88355724 0 0 Z " fill="#212120" transform="translate(542,783)"/>
<path d="M0 0 C0.99 0.33 1.98 0.66 3 1 C-0.19990508 3.74277578 -3.00499382 5.6302836 -7 7 C-5.65117186 2.95351557 -3.65173931 2.04497401 0 0 Z " fill="#1C1C1C" transform="translate(597,754)"/>
<path d="M0 0 C0.33 0 0.66 0 1 0 C1.33 5.28 1.66 10.56 2 16 C1.34 16 0.68 16 0 16 C-0.33 16.99 -0.66 17.98 -1 19 C-0.67 12.73 -0.34 6.46 0 0 Z " fill="#3F3F40" transform="translate(384,601)"/>
<path d="M0 0 C0.66 0.33 1.32 0.66 2 1 C0.8125 3.4375 0.8125 3.4375 -1 6 C-3.6875 6.8125 -3.6875 6.8125 -6 7 C-4.02 4.69 -2.04 2.38 0 0 Z " fill="#2C2B2C" transform="translate(512,596)"/>
<path d="M0 0 C0.33 0.99 0.66 1.98 1 3 C-0.52994792 4.23697917 -2.05989583 5.47395833 -3.58984375 6.7109375 C-5.13266437 7.9666391 -5.13266437 7.9666391 -6 10 C-6.66 10 -7.32 10 -8 10 C-6.34908222 5.70761377 -3.26245434 3.1206085 0 0 Z " fill="#363637" transform="translate(564,544)"/>
<path d="M0 0 C0.99 0.33 1.98 0.66 3 1 C0.69 3.31 -1.62 5.62 -4 8 C-4.66 7.34 -5.32 6.68 -6 6 C-4.02 4.02 -2.04 2.04 0 0 Z " fill="#1B1B1C" transform="translate(724,318)"/>
<path d="M0 0 C1.32257813 0.19142578 1.32257813 0.19142578 2.671875 0.38671875 C4.00992187 0.56654297 4.00992187 0.56654297 5.375 0.75 C6.05046875 0.85699219 6.7259375 0.96398437 7.421875 1.07421875 C7.421875 1.40421875 7.421875 1.73421875 7.421875 2.07421875 C2.801875 2.40421875 -1.818125 2.73421875 -6.578125 3.07421875 C-2.578125 0.07421875 -2.578125 0.07421875 0 0 Z " fill="#2F3030" transform="translate(433.578125,810.92578125)"/>
<path d="M0 0 C0.99 0.33 1.98 0.66 3 1 C0.69 3.31 -1.62 5.62 -4 8 C-4.33 7.01 -4.66 6.02 -5 5 C-3.35 3.35 -1.7 1.7 0 0 Z " fill="#1F1F1F" transform="translate(575,468)"/>
<path d="M0 0 C0.33 0.66 0.66 1.32 1 2 C-0.25 4.5625 -0.25 4.5625 -2 7 C-2.99 7.33 -3.98 7.66 -5 8 C-4.45773019 4.20411134 -2.79872437 2.52788007 0 0 Z " fill="#272727" transform="translate(498,610)"/>
<path d="M0 0 C0.33 0.99 0.66 1.98 1 3 C-1.31 4.98 -3.62 6.96 -6 9 C-6.66 8.67 -7.32 8.34 -8 8 C-5.36 5.36 -2.72 2.72 0 0 Z " fill="#3E3E3E" transform="translate(476,632)"/>
<path d="M0 0 C2.5625 2.25 2.5625 2.25 5 5 C4.8125 7.3125 4.8125 7.3125 4 9 C0 4.5 0 4.5 0 0 Z " fill="#201F1F" transform="translate(341,453)"/>
<path d="M0 0 C0.80050781 0.12761719 1.60101563 0.25523437 2.42578125 0.38671875 C3.23402344 0.50660156 4.04226563 0.62648438 4.875 0.75 C5.48988281 0.85699219 6.10476563 0.96398437 6.73828125 1.07421875 C6.73828125 1.40421875 6.73828125 1.73421875 6.73828125 2.07421875 C0.79828125 2.56921875 0.79828125 2.56921875 -5.26171875 3.07421875 C-2.26171875 0.07421875 -2.26171875 0.07421875 0 0 Z " fill="#2D2D2D" transform="translate(447.26171875,808.92578125)"/>
<path d="M0 0 C4.875 4.75 4.875 4.75 6 7 C2.73045798 6.43628586 1.17424117 5.50037734 -1 3 C-0.67 2.01 -0.34 1.02 0 0 Z " fill="#1E1E1E" transform="translate(653,469)"/>
<path d="M0 0 C-1.04874998 2.62187494 -1.64931313 3.79371361 -4.125 5.25 C-4.74375 5.4975 -5.3625 5.745 -6 6 C-6 5.01 -6 4.02 -6 3 C-2.66666667 0 -2.66666667 0 0 0 Z " fill="#1C1B1B" transform="translate(621,738)"/>
<path d="M0 0 C2 3 2 3 1.8125 5.0625 C1 7 1 7 -2 9 C-1.34 6.03 -0.68 3.06 0 0 Z " fill="#2D2D2D" transform="translate(375,658)"/>
<path d="M0 0 C0.33 0.99 0.66 1.98 1 3 C-1.97 5.475 -1.97 5.475 -5 8 C-5.66 7.67 -6.32 7.34 -7 7 C-4.69 4.69 -2.38 2.38 0 0 Z " fill="#3A393A" transform="translate(524,584)"/>
<path d="M0 0 C0.99 0.33 1.98 0.66 3 1 C2.01 1 1.02 1 0 1 C0 0.67 0 0.34 0 0 Z " fill="#3A393B" transform="translate(336,768)"/>
<path d="M0 0 C0.99 0.33 1.98 0.66 3 1 C2.01 1.33 1.02 1.66 0 2 C0 1.34 0 0.68 0 0 Z " fill="#383A38" transform="translate(447,312)"/>
<path d="M0 0 C0.33 0.66 0.66 1.32 1 2 C0.34 1.67 -0.32 1.34 -1 1 C-0.67 0.67 -0.34 0.34 0 0 Z " fill="#454344" transform="translate(371,664)"/>
<path d="" fill="#3A3A38" transform="translate(0,0)"/>
<path d="" fill="#363536" transform="translate(0,0)"/>
<path d="" fill="#434344" transform="translate(0,0)"/>
<path d="" fill="#333433" transform="translate(0,0)"/>
<path d="" fill="#373536" transform="translate(0,0)"/>
<path d="M0 0 C2 1 2 1 2 1 Z " fill="#343333" transform="translate(444,607)"/>
<path d="" fill="#333334" transform="translate(0,0)"/>
<path d="" fill="#353333" transform="translate(0,0)"/>
<path d="" fill="#383938" transform="translate(0,0)"/>
<path d="" fill="#3A3A3A" transform="translate(0,0)"/>
<path d="" fill="#3C3C3B" transform="translate(0,0)"/>
<path d="M0 0 C2 1 2 1 2 1 Z " fill="#333132" transform="translate(549,498)"/>
<path d="" fill="#333332" transform="translate(0,0)"/>
<path d="" fill="#3E3D3D" transform="translate(0,0)"/>
<path d="M0 0 C2 1 2 1 2 1 Z " fill="#343333" transform="translate(623,482)"/>
<path d="M0 0 C2 1 2 1 2 1 Z " fill="#383839" transform="translate(661,473)"/>
<path d="" fill="#3B3B3A" transform="translate(0,0)"/>
<path d="M0 0 C2 1 2 1 2 1 Z " fill="#373736" transform="translate(668,383)"/>
<path d="" fill="#3B3A39" transform="translate(0,0)"/>
<path d="" fill="#383637" transform="translate(0,0)"/>
<path d="" fill="#373839" transform="translate(0,0)"/>
<path d="M0 0 C2 1 2 1 2 1 Z " fill="#383A38" transform="translate(579,265)"/>
<path d="M0 0 C2 1 2 1 2 1 Z " fill="#373736" transform="translate(619,257)"/>
<path d="M0 0 C2 1 2 1 2 1 Z " fill="#3B3939" transform="translate(675,251)"/>
<path d="" fill="#3F4040" transform="translate(0,0)"/>
<path d="" fill="#3C3C3C" transform="translate(0,0)"/>
<path d="" fill="#404041" transform="translate(0,0)"/>
<path d="" fill="#333231" transform="translate(0,0)"/>
<path d="" fill="#3C3A3C" transform="translate(0,0)"/>
<path d="" fill="#303030" transform="translate(0,0)"/>
<path d="" fill="#403F3E" transform="translate(0,0)"/>
<path d="" fill="#414242" transform="translate(0,0)"/>
<path d="" fill="#3E3F3D" transform="translate(0,0)"/>
<path d="" fill="#3D3B3C" transform="translate(0,0)"/>
<path d="" fill="#424342" transform="translate(0,0)"/>
<path d="" fill="#383837" transform="translate(0,0)"/>
<path d="" fill="#353333" transform="translate(0,0)"/>
<path d="" fill="#373535" transform="translate(0,0)"/>
<path d="" fill="#414243" transform="translate(0,0)"/>
<path d="" fill="#424344" transform="translate(0,0)"/>
<path d="" fill="#424042" transform="translate(0,0)"/>
<path d="" fill="#3A3839" transform="translate(0,0)"/>
<path d="" fill="#434343" transform="translate(0,0)"/>
<path d="" fill="#444443" transform="translate(0,0)"/>
<path d="" fill="#454445" transform="translate(0,0)"/>
<path d="" fill="#3B3A39" transform="translate(0,0)"/>
<path d="" fill="#464544" transform="translate(0,0)"/>
<path d="" fill="#474646" transform="translate(0,0)"/>
<path d="" fill="#464345" transform="translate(0,0)"/>
<path d="" fill="#404142" transform="translate(0,0)"/>
<path d="" fill="#464446" transform="translate(0,0)"/>
<path d="" fill="#404040" transform="translate(0,0)"/>
<path d="" fill="#474647" transform="translate(0,0)"/>
<path d="" fill="#424142" transform="translate(0,0)"/>
<path d="" fill="#403D40" transform="translate(0,0)"/>
<path d="" fill="#3F3E3F" transform="translate(0,0)"/>
<path d="" fill="#434142" transform="translate(0,0)"/>
<path d="" fill="#3D3E3F" transform="translate(0,0)"/>
<path d="" fill="#3E3C3B" transform="translate(0,0)"/>
<path d="" fill="#3C3E3D" transform="translate(0,0)"/>
<path d="" fill="#39373B" transform="translate(0,0)"/>
<path d="" fill="#434242" transform="translate(0,0)"/>
<path d="" fill="#434341" transform="translate(0,0)"/>
<path d="" fill="#454445" transform="translate(0,0)"/>
<path d="" fill="#444446" transform="translate(0,0)"/>
<path d="" fill="#3B3838" transform="translate(0,0)"/>
<path d="" fill="#3B3A3A" transform="translate(0,0)"/>
<path d="" fill="#403F3F" transform="translate(0,0)"/>
<path d="" fill="#414140" transform="translate(0,0)"/>
<path d="" fill="#3B3939" transform="translate(0,0)"/>
<path d="" fill="#393839" transform="translate(0,0)"/>
<path d="" fill="#3D3F3E" transform="translate(0,0)"/>
<path d="" fill="#3C3C3B" transform="translate(0,0)"/>
<path d="" fill="#3F3F3D" transform="translate(0,0)"/>
<path d="" fill="#363537" transform="translate(0,0)"/>
<path d="" fill="#383836" transform="translate(0,0)"/>
<path d="" fill="#3B3938" transform="translate(0,0)"/>
<path d="" fill="#404040" transform="translate(0,0)"/>
<path d="" fill="#393939" transform="translate(0,0)"/>
<path d="" fill="#383338" transform="translate(0,0)"/>
<path d="" fill="#393637" transform="translate(0,0)"/>
<path d="" fill="#414142" transform="translate(0,0)"/>
<path d="" fill="#3D3C3C" transform="translate(0,0)"/>
<path d="" fill="#3E3D3E" transform="translate(0,0)"/>
<path d="" fill="#474647" transform="translate(0,0)"/>
<path d="" fill="#413F3F" transform="translate(0,0)"/>
<path d="" fill="#3C3C3D" transform="translate(0,0)"/>
<path d="" fill="#3D3C3D" transform="translate(0,0)"/>
<path d="" fill="#373835" transform="translate(0,0)"/>
<path d="" fill="#3A3B3B" transform="translate(0,0)"/>
<path d="" fill="#3B3B3A" transform="translate(0,0)"/>
<path d="" fill="#3B3B39" transform="translate(0,0)"/>
<path d="" fill="#39393A" transform="translate(0,0)"/>
<path d="" fill="#404041" transform="translate(0,0)"/>
<path d="" fill="#3B3B3B" transform="translate(0,0)"/>
<path d="" fill="#393836" transform="translate(0,0)"/>
<path d="" fill="#373636" transform="translate(0,0)"/>
<path d="" fill="#404040" transform="translate(0,0)"/>
<path d="" fill="#393839" transform="translate(0,0)"/>
<path d="" fill="#383939" transform="translate(0,0)"/>
<path d="" fill="#383838" transform="translate(0,0)"/>
<path d="" fill="#4F4D4E" transform="translate(0,0)"/>
<path d="" fill="#373635" transform="translate(0,0)"/>
<path d="" fill="#373536" transform="translate(0,0)"/>
<path d="" fill="#383737" transform="translate(0,0)"/>
<path d="" fill="#393838" transform="translate(0,0)"/>
<path d="" fill="#363836" transform="translate(0,0)"/>
<path d="" fill="#414143" transform="translate(0,0)"/>
<path d="" fill="#3E3E40" transform="translate(0,0)"/>
<path d="" fill="#353436" transform="translate(0,0)"/>
<path d="" fill="#424342" transform="translate(0,0)"/>
<path d="" fill="#353534" transform="translate(0,0)"/>
<path d="" fill="#423F3F" transform="translate(0,0)"/>
<path d="" fill="#444344" transform="translate(0,0)"/>
<path d="" fill="#403F40" transform="translate(0,0)"/>
<path d="" fill="#403F3F" transform="translate(0,0)"/>
<path d="" fill="#343534" transform="translate(0,0)"/>
<path d="" fill="#3A3B3C" transform="translate(0,0)"/>
<path d="" fill="#3E3E3F" transform="translate(0,0)"/>
<path d="" fill="#353736" transform="translate(0,0)"/>
<path d="" fill="#353635" transform="translate(0,0)"/>
<path d="" fill="#434243" transform="translate(0,0)"/>
<path d="" fill="#353735" transform="translate(0,0)"/>
<path d="" fill="#3B363A" transform="translate(0,0)"/>
<path d="" fill="#3F3D3D" transform="translate(0,0)"/>
<path d="" fill="#4B4B4C" transform="translate(0,0)"/>
<path d="" fill="#363637" transform="translate(0,0)"/>
<path d="" fill="#373737" transform="translate(0,0)"/>
<path d="" fill="#363434" transform="translate(0,0)"/>
<path d="" fill="#3D3D40" transform="translate(0,0)"/>
<path d="" fill="#373636" transform="translate(0,0)"/>
<path d="" fill="#3E3E3E" transform="translate(0,0)"/>
<path d="" fill="#323434" transform="translate(0,0)"/>
<path d="" fill="#373937" transform="translate(0,0)"/>
<path d="" fill="#373634" transform="translate(0,0)"/>
<path d="" fill="#353434" transform="translate(0,0)"/>
<path d="" fill="#373634" transform="translate(0,0)"/>
<path d="" fill="#383635" transform="translate(0,0)"/>
<path d="" fill="#363338" transform="translate(0,0)"/>
<path d="" fill="#373635" transform="translate(0,0)"/>
<path d="" fill="#373939" transform="translate(0,0)"/>
<path d="" fill="#343533" transform="translate(0,0)"/>
<path d="" fill="#3B3C3B" transform="translate(0,0)"/>
<path d="" fill="#353333" transform="translate(0,0)"/>
<path d="" fill="#383638" transform="translate(0,0)"/>
<path d="" fill="#343231" transform="translate(0,0)"/>
<path d="" fill="#343333" transform="translate(0,0)"/>
<path d="" fill="#323033" transform="translate(0,0)"/>
<path d="" fill="#3B3A38" transform="translate(0,0)"/>
<path d="" fill="#333233" transform="translate(0,0)"/>
<path d="" fill="#3A3A3A" transform="translate(0,0)"/>
<path d="" fill="#333335" transform="translate(0,0)"/>
<path d="" fill="#313231" transform="translate(0,0)"/>
<path d="" fill="#323131" transform="translate(0,0)"/>
<path d="" fill="#373635" transform="translate(0,0)"/>
<path d="" fill="#343232" transform="translate(0,0)"/>
<path d="" fill="#323235" transform="translate(0,0)"/>
<path d="" fill="#343334" transform="translate(0,0)"/>
<path d="" fill="#323031" transform="translate(0,0)"/>
<path d="" fill="#333133" transform="translate(0,0)"/>
<path d="" fill="#4A4949" transform="translate(0,0)"/>
<path d="" fill="#363636" transform="translate(0,0)"/>
<path d="" fill="#353534" transform="translate(0,0)"/>
<path d="" fill="#444444" transform="translate(0,0)"/>
<path d="" fill="#323132" transform="translate(0,0)"/>
<path d="" fill="#323232" transform="translate(0,0)"/>
<path d="" fill="#3B3A3B" transform="translate(0,0)"/>
<path d="" fill="#4A4949" transform="translate(0,0)"/>
<path d="" fill="#3A393B" transform="translate(0,0)"/>
<path d="" fill="#3B3B3A" transform="translate(0,0)"/>
<path d="" fill="#323233" transform="translate(0,0)"/>
<path d="" fill="#3B3A39" transform="translate(0,0)"/>
<path d="" fill="#302F2E" transform="translate(0,0)"/>
<path d="" fill="#343335" transform="translate(0,0)"/>
<path d="" fill="#333434" transform="translate(0,0)"/>
<path d="" fill="#38393A" transform="translate(0,0)"/>
<path d="" fill="#373939" transform="translate(0,0)"/>
<path d="" fill="#333332" transform="translate(0,0)"/>
<path d="" fill="#2E2D2D" transform="translate(0,0)"/>
<path d="" fill="#3D3D3D" transform="translate(0,0)"/>
<path d="" fill="#333132" transform="translate(0,0)"/>
<path d="" fill="#323030" transform="translate(0,0)"/>
<path d="" fill="#343334" transform="translate(0,0)"/>
<path d="" fill="#353434" transform="translate(0,0)"/>
<path d="" fill="#3E3F3E" transform="translate(0,0)"/>
<path d="" fill="#343533" transform="translate(0,0)"/>
<path d="" fill="#323131" transform="translate(0,0)"/>
<path d="" fill="#3B3C3C" transform="translate(0,0)"/>
<path d="" fill="#403F3F" transform="translate(0,0)"/>
<path d="" fill="#3C3D3A" transform="translate(0,0)"/>
<path d="" fill="#333233" transform="translate(0,0)"/>
<path d="" fill="#333335" transform="translate(0,0)"/>
<path d="" fill="#31312F" transform="translate(0,0)"/>
<path d="" fill="#3C3A3B" transform="translate(0,0)"/>
<path d="" fill="#373837" transform="translate(0,0)"/>
<path d="" fill="#343433" transform="translate(0,0)"/>
<path d="" fill="#343433" transform="translate(0,0)"/>
<path d="" fill="#373536" transform="translate(0,0)"/>
<path d="" fill="#2F2F32" transform="translate(0,0)"/>
<path d="" fill="#3C3C3D" transform="translate(0,0)"/>
<path d="" fill="#363434" transform="translate(0,0)"/>
<path d="" fill="#353534" transform="translate(0,0)"/>
<path d="" fill="#373737" transform="translate(0,0)"/>
<path d="" fill="#373736" transform="translate(0,0)"/>
<path d="" fill="#3D3D3E" transform="translate(0,0)"/>
<path d="" fill="#383837" transform="translate(0,0)"/>
<path d="" fill="#333434" transform="translate(0,0)"/>
<path d="" fill="#333131" transform="translate(0,0)"/>
<path d="" fill="#373837" transform="translate(0,0)"/>
<path d="" fill="#323335" transform="translate(0,0)"/>
<path d="" fill="#3B3938" transform="translate(0,0)"/>
<path d="" fill="#343633" transform="translate(0,0)"/>
<path d="" fill="#3B3838" transform="translate(0,0)"/>
<path d="" fill="#333132" transform="translate(0,0)"/>
<path d="" fill="#414041" transform="translate(0,0)"/>
<path d="" fill="#434444" transform="translate(0,0)"/>
<path d="" fill="#343733" transform="translate(0,0)"/>
<path d="" fill="#3C3C3D" transform="translate(0,0)"/>
<path d="" fill="#343434" transform="translate(0,0)"/>
<path d="" fill="#3D3F3F" transform="translate(0,0)"/>
<path d="" fill="#303130" transform="translate(0,0)"/>
<path d="" fill="#3A3536" transform="translate(0,0)"/>
<path d="" fill="#312F31" transform="translate(0,0)"/>
<path d="" fill="#3B3B3B" transform="translate(0,0)"/>
<path d="" fill="#303031" transform="translate(0,0)"/>
<path d="" fill="#333230" transform="translate(0,0)"/>
<path d="" fill="#323032" transform="translate(0,0)"/>
<path d="" fill="#3A3B3B" transform="translate(0,0)"/>
<path d="" fill="#3D3B3D" transform="translate(0,0)"/>
<path d="" fill="#3A3C3D" transform="translate(0,0)"/>
<path d="" fill="#383A3B" transform="translate(0,0)"/>
<path d="" fill="#303132" transform="translate(0,0)"/>
<path d="" fill="#373738" transform="translate(0,0)"/>
<path d="" fill="#323231" transform="translate(0,0)"/>
<path d="" fill="#323232" transform="translate(0,0)"/>
<path d="" fill="#3D3D3C" transform="translate(0,0)"/>
<path d="" fill="#3E3D3D" transform="translate(0,0)"/>
<path d="" fill="#3A3839" transform="translate(0,0)"/>
<path d="" fill="#393838" transform="translate(0,0)"/>
<path d="" fill="#303030" transform="translate(0,0)"/>
<path d="" fill="#3B3A38" transform="translate(0,0)"/>
<path d="" fill="#383739" transform="translate(0,0)"/>
<path d="" fill="#323132" transform="translate(0,0)"/>
<path d="" fill="#313132" transform="translate(0,0)"/>
<path d="" fill="#3C3B3C" transform="translate(0,0)"/>
<path d="" fill="#353533" transform="translate(0,0)"/>
<path d="" fill="#313131" transform="translate(0,0)"/>
<path d="" fill="#343433" transform="translate(0,0)"/>
<path d="" fill="#464546" transform="translate(0,0)"/>
<path d="" fill="#424341" transform="translate(0,0)"/>
<path d="" fill="#414140" transform="translate(0,0)"/>
<path d="" fill="#3F413F" transform="translate(0,0)"/>
<path d="" fill="#333236" transform="translate(0,0)"/>
<path d="" fill="#373536" transform="translate(0,0)"/>
<path d="" fill="#3E3D40" transform="translate(0,0)"/>
<path d="" fill="#424040" transform="translate(0,0)"/>
<path d="" fill="#434243" transform="translate(0,0)"/>
<path d="" fill="#373635" transform="translate(0,0)"/>
<path d="" fill="#343633" transform="translate(0,0)"/>
<path d="" fill="#444244" transform="translate(0,0)"/>
<path d="" fill="#414443" transform="translate(0,0)"/>
<path d="" fill="#3F3E41" transform="translate(0,0)"/>
<path d="" fill="#403D3D" transform="translate(0,0)"/>
<path d="" fill="#333234" transform="translate(0,0)"/>
<path d="" fill="#3D3E3C" transform="translate(0,0)"/>
<path d="" fill="#3F3E3E" transform="translate(0,0)"/>
<path d="" fill="#353533" transform="translate(0,0)"/>
<path d="" fill="#3A3B3A" transform="translate(0,0)"/>
<path d="" fill="#383738" transform="translate(0,0)"/>
<path d="" fill="#353636" transform="translate(0,0)"/>
<path d="" fill="#494948" transform="translate(0,0)"/>
<path d="" fill="#3A3934" transform="translate(0,0)"/>
<path d="" fill="#3B3939" transform="translate(0,0)"/>
<path d="" fill="#3D3B38" transform="translate(0,0)"/>
<path d="" fill="#3C393A" transform="translate(0,0)"/>
<path d="" fill="#3A3638" transform="translate(0,0)"/>
<path d="" fill="#393836" transform="translate(0,0)"/>
<path d="" fill="#3D3B3A" transform="translate(0,0)"/>
<path d="" fill="#393A3A" transform="translate(0,0)"/>
<path d="" fill="#3B3C39" transform="translate(0,0)"/>
<path d="" fill="#363635" transform="translate(0,0)"/>
<path d="" fill="#393838" transform="translate(0,0)"/>
<path d="" fill="#383636" transform="translate(0,0)"/>
<path d="" fill="#3B3B3A" transform="translate(0,0)"/>
<path d="" fill="#3C3B3A" transform="translate(0,0)"/>
<path d="" fill="#413E3F" transform="translate(0,0)"/>
<path d="" fill="#373637" transform="translate(0,0)"/>
<path d="" fill="#393A38" transform="translate(0,0)"/>
<path d="" fill="#363436" transform="translate(0,0)"/>
<path d="" fill="#393938" transform="translate(0,0)"/>
<path d="" fill="#3C373B" transform="translate(0,0)"/>
<path d="" fill="#393839" transform="translate(0,0)"/>
<path d="" fill="#3A393B" transform="translate(0,0)"/>
<path d="" fill="#373538" transform="translate(0,0)"/>
<path d="" fill="#373636" transform="translate(0,0)"/>
<path d="" fill="#3B3D39" transform="translate(0,0)"/>
<path d="" fill="#393A39" transform="translate(0,0)"/>
<path d="" fill="#363437" transform="translate(0,0)"/>
<path d="" fill="#3A393A" transform="translate(0,0)"/>
<path d="" fill="#383739" transform="translate(0,0)"/>
<path d="" fill="#3B3A3B" transform="translate(0,0)"/>
<path d="" fill="#484749" transform="translate(0,0)"/>
<path d="" fill="#3B3A38" transform="translate(0,0)"/>
<path d="" fill="#393838" transform="translate(0,0)"/>
<path d="" fill="#3A3839" transform="translate(0,0)"/>
<path d="" fill="#3A393C" transform="translate(0,0)"/>
<path d="" fill="#3B3A37" transform="translate(0,0)"/>
<path d="" fill="#3A3939" transform="translate(0,0)"/>
<path d="" fill="#3B3B3A" transform="translate(0,0)"/>
<path d="" fill="#3A3A39" transform="translate(0,0)"/>
<path d="" fill="#363634" transform="translate(0,0)"/>
<path d="" fill="#3B393B" transform="translate(0,0)"/>
<path d="" fill="#3B3D39" transform="translate(0,0)"/>
<path d="" fill="#3A3A3A" transform="translate(0,0)"/>
<path d="" fill="#373637" transform="translate(0,0)"/>
<path d="" fill="#343637" transform="translate(0,0)"/>
<path d="" fill="#454344" transform="translate(0,0)"/>
<path d="" fill="#3C3B3A" transform="translate(0,0)"/>
<path d="" fill="#3D393A" transform="translate(0,0)"/>
<path d="" fill="#3A3735" transform="translate(0,0)"/>
<path d="" fill="#3A3A39" transform="translate(0,0)"/>
<path d="" fill="#3A3939" transform="translate(0,0)"/>
<path d="" fill="#3D3A3A" transform="translate(0,0)"/>
<path d="" fill="#383639" transform="translate(0,0)"/>
<path d="" fill="#3B3A3B" transform="translate(0,0)"/>
<path d="" fill="#373637" transform="translate(0,0)"/>
<path d="" fill="#3D3A3A" transform="translate(0,0)"/>
<path d="" fill="#373535" transform="translate(0,0)"/>
<path d="" fill="#3B3A3C" transform="translate(0,0)"/>
<path d="" fill="#3D3E3B" transform="translate(0,0)"/>
<path d="" fill="#3E3E3B" transform="translate(0,0)"/>
<path d="" fill="#3D3D3D" transform="translate(0,0)"/>
<path d="" fill="#3B3B3A" transform="translate(0,0)"/>
<path d="" fill="#3D3D3D" transform="translate(0,0)"/>
<path d="" fill="#3D3C3C" transform="translate(0,0)"/>
<path d="" fill="#373836" transform="translate(0,0)"/>
<path d="" fill="#3C3C3B" transform="translate(0,0)"/>
<path d="" fill="#393939" transform="translate(0,0)"/>
<path d="" fill="#454645" transform="translate(0,0)"/>
<path d="" fill="#3A3A36" transform="translate(0,0)"/>
<path d="" fill="#393A38" transform="translate(0,0)"/>
<path d="" fill="#3B3A36" transform="translate(0,0)"/>
<path d="" fill="#383836" transform="translate(0,0)"/>
<path d="" fill="#393B38" transform="translate(0,0)"/>
<path d="" fill="#3B3A3A" transform="translate(0,0)"/>
<path d="" fill="#39393A" transform="translate(0,0)"/>
<path d="" fill="#3B3736" transform="translate(0,0)"/>
<path d="" fill="#3C3D3B" transform="translate(0,0)"/>
<path d="" fill="#4B4B4B" transform="translate(0,0)"/>
<path d="" fill="#393A38" transform="translate(0,0)"/>
<path d="" fill="#3B3B39" transform="translate(0,0)"/>
<path d="" fill="#3B3D3A" transform="translate(0,0)"/>
<path d="" fill="#3C3B3A" transform="translate(0,0)"/>
<path d="" fill="#3A3B39" transform="translate(0,0)"/>
<path d="" fill="#3B3D3B" transform="translate(0,0)"/>
<path d="" fill="#3B3A38" transform="translate(0,0)"/>
<path d="" fill="#3A3A38" transform="translate(0,0)"/>
<path d="" fill="#3D3D3C" transform="translate(0,0)"/>
<path d="" fill="#4A494B" transform="translate(0,0)"/>
<path d="" fill="#4C4D4F" transform="translate(0,0)"/>
<path d="" fill="#424242" transform="translate(0,0)"/>
<path d="" fill="#464646" transform="translate(0,0)"/>
<path d="" fill="#494948" transform="translate(0,0)"/>
<path d="" fill="#464646" transform="translate(0,0)"/>
<path d="" fill="#454343" transform="translate(0,0)"/>
<path d="" fill="#413F3F" transform="translate(0,0)"/>
<path d="" fill="#3D3C3B" transform="translate(0,0)"/>
<path d="" fill="#3E3B3D" transform="translate(0,0)"/>
<path d="" fill="#41403F" transform="translate(0,0)"/>
<path d="" fill="#454343" transform="translate(0,0)"/>
<path d="" fill="#444545" transform="translate(0,0)"/>
<path d="" fill="#454544" transform="translate(0,0)"/>
<path d="" fill="#444545" transform="translate(0,0)"/>
<path d="" fill="#444444" transform="translate(0,0)"/>
<path d="" fill="#3F3F3F" transform="translate(0,0)"/>
<path d="" fill="#444243" transform="translate(0,0)"/>
<path d="" fill="#444244" transform="translate(0,0)"/>
<path d="" fill="#444345" transform="translate(0,0)"/>
<path d="" fill="#434242" transform="translate(0,0)"/>
<path d="" fill="#444244" transform="translate(0,0)"/>
<path d="" fill="#434242" transform="translate(0,0)"/>
</svg>
