<?xml version="1.0" encoding="UTF-8"?>
<svg version="1.1" xmlns="http://www.w3.org/2000/svg" width="1024" height="1024">
<path d="M0 0 C0.83587646 0.03464355 1.67175293 0.06928711 2.53295898 0.10498047 C8.24710809 0.43460809 8.24710809 0.43460809 10.5 2.6875 C10.07412755 3.04213381 9.6482551 3.39676762 9.20947742 3.7621479 C2.25175165 9.69415723 -4.12818668 16.19763534 -10.56958008 22.67529297 C-11.8759885 23.98526274 -13.18263566 25.29499446 -14.48950195 26.60450745 C-17.28946201 29.4109877 -20.08790471 32.218969 -22.88520241 35.02810287 C-27.30672086 39.46798334 -31.73264498 43.9034543 -36.15934753 48.33816528 C-48.74142816 60.9443497 -61.3175221 73.55649677 -73.8894043 86.17285156 C-80.84317217 93.15114032 -87.80050794 100.12585201 -94.76171416 107.09672081 C-99.16556523 111.507122 -103.56486761 115.92199597 -107.96088278 120.34020686 C-110.68929994 123.08032423 -113.4218602 125.81627985 -116.15563202 128.551054 C-117.42522571 129.82280116 -118.69308996 131.09627746 -119.9591198 132.37157249 C-121.68281125 134.10739271 -123.41250366 135.83700015 -125.14387512 137.56515503 C-125.89882608 138.32986769 -125.89882608 138.32986769 -126.66902858 139.1100291 C-128.9529324 141.37737955 -130.39621336 142.65290445 -133.5 143.6875 C-133.36722656 143.06746094 -133.23445313 142.44742188 -133.09765625 141.80859375 C-129.03158268 121.41886715 -130.27679988 103.09448947 -140.5 84.6875 C-141.985 83.6975 -141.985 83.6975 -143.5 82.6875 C-143.5 81.6975 -143.5 80.7075 -143.5 79.6875 C-149.23303989 71.47279701 -156.36329932 63.57897422 -164.5 57.6875 C-154.54960318 36.00314467 -117.01364526 21.52310527 -96.5 13.6875 C-65.34268601 2.43945559 -33.04609754 -1.50945651 0 0 Z " fill="#181819" transform="translate(331.5,409.3125)"/>
<path d="M0 0 C10.09938897 4.60168443 16.05123228 18.74950055 19.99609375 28.44921875 C24.86200431 42.53474931 23.8430049 58.10469883 17.63916016 71.57324219 C10.69739303 85.63975548 0.17777379 96.61768827 -13 105 C-14.33804688 105.86238281 -14.33804688 105.86238281 -15.703125 106.7421875 C-33.63083342 117.76331973 -54.14343383 123.8389582 -75 126 C-76.02867187 126.11085938 -77.05734375 126.22171875 -78.1171875 126.3359375 C-93.73051043 127.77656829 -109.38420503 126.96949503 -125 126 C-125.33 125.01 -125.66 124.02 -126 123 C-124.91392456 122.40190018 -124.91392456 122.40190018 -123.8059082 121.79171753 C-120.82992962 119.89140127 -118.59394884 117.83437105 -116.10546875 115.33251953 C-115.64459869 114.87194153 -115.18372864 114.41136353 -114.70889282 113.93682861 C-113.19696824 112.4235187 -111.69224369 110.90325997 -110.1875 109.3828125 C-109.13089189 108.32246845 -108.07383705 107.26256938 -107.01635742 106.20309448 C-104.23883469 103.41795634 -101.46736435 100.6268712 -98.69714355 97.83447266 C-95.88763322 95.0045523 -93.07250868 92.18022955 -90.2578125 89.35546875 C-85.29734004 84.37588903 -80.34182399 79.39142376 -75.38989258 74.40335083 C-74.60122803 73.61024506 -73.81256348 72.81713928 -73 72 C-72.11731445 71.11142303 -71.23462891 70.22284607 -70.32519531 69.30734253 C-68.26427481 67.26224572 -66.15593602 65.37001366 -63.9375 63.5 C-60.9028483 60.88019769 -58.47601546 58.15905421 -56 55 C-54.34997172 53.64613064 -52.6825613 52.31321858 -51 51 C-49.31237149 49.3545622 -47.6459651 47.68711423 -46 46 C-30.66666667 30.66666667 -15.33333333 15.33333333 0 0 Z " fill="#191919" transform="translate(289,488)"/>
<path d="M0 0 C0.91602493 -0.00095673 1.83204987 -0.00191345 2.77583313 -0.00289917 C4.72531197 -0.00358123 6.67479307 -0.00172516 8.62426758 0.00244141 C11.55620707 0.00770994 14.48798769 0.0025392 17.41992188 -0.00390625 C27.96641592 -0.00727326 38.41476199 0.23042911 48.92578125 1.1328125 C48.92578125 1.7928125 48.92578125 2.4528125 48.92578125 3.1328125 C49.75078125 3.3390625 50.57578125 3.5453125 51.42578125 3.7578125 C60.29818356 7.24339912 64.39402676 12.4363649 68.17578125 20.9453125 C69.86283073 28.11527279 69.5477841 34.37244388 66.28125 41.0234375 C64.34775728 44.03233107 61.98070282 46.35501455 59.31640625 48.72265625 C57.69172835 50.0400694 57.69172835 50.0400694 57.92578125 52.1328125 C56.44078125 52.6278125 56.44078125 52.6278125 54.92578125 53.1328125 C55.50585938 53.4009375 56.0859375 53.6690625 56.68359375 53.9453125 C63.69958633 57.46488634 68.13790273 61.62932467 71.0625 68.99609375 C73.26449956 76.99702429 72.74405022 85.38957398 69.2421875 92.91796875 C64.71930548 100.5276842 57.52769095 105.09900347 49.13720703 107.68380737 C46.45206619 108.22899501 43.95188096 108.2600467 41.2109375 108.26220703 C40.06294678 108.26535919 38.91495605 108.26851135 37.73217773 108.27175903 C35.87894897 108.26872269 35.87894897 108.26872269 33.98828125 108.265625 C32.71605713 108.26658173 31.44383301 108.26753845 30.13305664 108.26852417 C27.443162 108.26920469 24.75335822 108.26786147 22.06347656 108.26318359 C18.62023775 108.25748657 15.1770769 108.26076805 11.73384094 108.26675606 C8.4436516 108.27124382 5.15347161 108.26809926 1.86328125 108.265625 C0.62779541 108.26764923 -0.60769043 108.26967346 -1.88061523 108.27175903 C-3.60260132 108.26703079 -3.60260132 108.26703079 -5.359375 108.26220703 C-6.3687915 108.26141144 -7.37820801 108.26061584 -8.41821289 108.25979614 C-10.79729173 108.14605238 -12.80105694 107.8134689 -15.07421875 107.1328125 C-15.07421875 106.4728125 -15.07421875 105.8128125 -15.07421875 105.1328125 C-13.09421875 104.6378125 -13.09421875 104.6378125 -11.07421875 104.1328125 C-11.04527943 100.50782916 -11.02744083 96.88287537 -11.01171875 93.2578125 C-11.00333984 92.22527344 -10.99496094 91.19273437 -10.98632812 90.12890625 C-10.98310547 89.14277344 -10.97988281 88.15664063 -10.9765625 87.140625 C-10.97132568 86.22941895 -10.96608887 85.31821289 -10.96069336 84.37939453 C-10.9253631 82.09593741 -10.9253631 82.09593741 -12.07421875 80.1328125 C-11.41421875 80.1328125 -10.75421875 80.1328125 -10.07421875 80.1328125 C-10.73421875 77.8228125 -11.39421875 75.5128125 -12.07421875 73.1328125 C-11.41421875 73.1328125 -10.75421875 73.1328125 -10.07421875 73.1328125 C-10.73421875 70.4928125 -11.39421875 67.8528125 -12.07421875 65.1328125 C-11.41421875 65.1328125 -10.75421875 65.1328125 -10.07421875 65.1328125 C-10.10451172 64.57972412 -10.13480469 64.02663574 -10.16601562 63.45678711 C-11.25511308 42.68225317 -11.17788569 21.92840023 -11.07421875 1.1328125 C-7.66005946 -0.57426715 -3.75589813 -0.00860831 0 0 Z M13.92578125 21.1328125 C13.92578125 28.7228125 13.92578125 36.3128125 13.92578125 44.1328125 C17.133961 45.73690238 20.59250455 45.35900336 24.11328125 45.3828125 C24.85642578 45.4034375 25.59957031 45.4240625 26.36523438 45.4453125 C31.63821808 45.48228346 35.2465025 44.59747077 39.92578125 42.1328125 C43.16706477 38.57785638 43.51405299 34.93939149 43.3359375 30.28515625 C42.6404633 26.6355726 40.89532246 25.21780952 37.92578125 23.1328125 C32.47203192 21.17627993 27.68635656 20.88186971 21.98828125 21.0078125 C19.32765625 21.0490625 16.66703125 21.0903125 13.92578125 21.1328125 Z M13.92578125 63.1328125 C13.92578125 71.3828125 13.92578125 79.6328125 13.92578125 88.1328125 C18.85206991 89.36438467 23.06704024 89.75239284 27.92578125 88.1328125 C29.36387455 88.13829095 30.80210403 88.18339917 32.23828125 88.2578125 C36.53450004 88.29972683 39.28190065 87.56206623 42.92578125 85.1328125 C46.35800153 81.35655104 46.45072958 78.48242259 46.26171875 73.5390625 C45.75419837 69.90380027 44.78658768 68.4354128 41.92578125 66.1328125 C35.60654787 63.24945549 29.72054834 62.73950342 22.86328125 62.9453125 C19.91390625 63.0071875 16.96453125 63.0690625 13.92578125 63.1328125 Z " fill="#181819" transform="translate(383.07421875,443.8671875)"/>
<path d="M0 0 C5.15543275 -0.02504882 10.31082871 -0.04302192 15.46630859 -0.05493164 C17.21371072 -0.05990588 18.96110881 -0.06668766 20.70849609 -0.07543945 C62.54706367 -0.27947148 62.54706367 -0.27947148 78.5078125 14.2890625 C83.90454415 19.8995261 87.41316214 25.67377306 90 33 C90.25894043 33.71623535 90.51788086 34.4324707 90.78466797 35.17041016 C92.95677593 41.65586929 93.47388449 47.56219973 93.375 54.375 C93.36484863 55.38723633 93.35469727 56.39947266 93.34423828 57.44238281 C93.04170295 72.01567382 89.0081513 84.3896963 78.90625 95.22265625 C70.3405571 103.20911172 59.32143529 108.1415786 47.56713867 108.11352539 C46.50641647 108.11344986 45.44569427 108.11337433 44.35282898 108.11329651 C42.65257317 108.10555458 42.65257317 108.10555458 40.91796875 108.09765625 C39.74865311 108.0962413 38.57933746 108.09482635 37.37458801 108.09336853 C33.64553249 108.08777793 29.91653733 108.07522709 26.1875 108.0625 C23.65690191 108.05748379 21.12630288 108.05292109 18.59570312 108.04882812 C12.39711487 108.03781157 6.19856175 108.02108273 0 108 C-0.13245206 100.52242131 -0.26295017 93.04481049 -0.39115143 85.56715775 C-0.45077836 82.09260677 -0.51100552 78.61806866 -0.57275391 75.14355469 C-0.64414278 71.1217755 -0.71319819 67.0999622 -0.78125 63.078125 C-0.80348633 61.77266724 -0.82572266 60.46720947 -0.84863281 59.12219238 C-0.98271714 50.70441044 -1.04568421 42.29035168 -0.93762207 33.87188721 C-0.88856155 29.81408902 -0.88856155 29.81408902 -1.56750488 25.83331299 C-1.71022827 25.2283197 -1.85295166 24.62332642 -2 24 C-1.67 23.67 -1.34 23.34 -1 23 C-1 21.2056909 -1.00868572 19.41130134 -1.03515625 17.6171875 C-1.04417969 16.71226562 -1.05320312 15.80734375 -1.0625 14.875 C-1.07410156 13.98554688 -1.08570313 13.09609375 -1.09765625 12.1796875 C-1.01571562 9.51170061 -0.79796258 6.94933503 -0.49389648 4.30126953 C-0.40196518 3.49464874 -0.31003387 2.68802795 -0.21531677 1.85696411 C-0.10873497 0.93776688 -0.10873497 0.93776688 0 0 Z M23 22 C23 43.78 23 65.56 23 88 C36.55314031 89.35531403 47.65136665 89.79292926 59.0625 81.875 C60.0215625 80.946875 60.0215625 80.946875 61 80 C61 79.34 61 78.68 61 78 C61.598125 77.484375 62.19625 76.96875 62.8125 76.4375 C68.88992708 69.66550982 68.54856674 60.73407459 68.2890625 52.109375 C67.79145384 42.95170305 64.70023996 36.46205407 58.875 29.4375 C46.82581362 19.22188546 39.74928854 22 23 22 Z " fill="#181818" transform="translate(698,444)"/>
<path d="M0 0 C1.06669922 -0.01224609 2.13339844 -0.02449219 3.23242188 -0.03710938 C4.25013672 -0.03904297 5.26785156 -0.04097656 6.31640625 -0.04296875 C7.2504126 -0.04707764 8.18441895 -0.05118652 9.14672852 -0.05541992 C11.4375 0.1875 11.4375 0.1875 13.4375 2.1875 C14.24023438 4.09741211 14.24023438 4.09741211 15.03125 6.46484375 C15.33482422 7.35856689 15.63839844 8.25229004 15.95117188 9.1730957 C16.27666016 10.14722412 16.60214844 11.12135254 16.9375 12.125 C20.52677255 22.68502659 24.34903842 33.14160696 28.28710938 43.57592773 C28.90295898 45.21863647 28.90295898 45.21863647 29.53125 46.89453125 C29.89927734 47.8688208 30.26730469 48.84311035 30.64648438 49.84692383 C31.4375 52.1875 31.4375 52.1875 31.4375 54.1875 C32.9225 54.6825 32.9225 54.6825 34.4375 55.1875 C33.7775 55.1875 33.1175 55.1875 32.4375 55.1875 C32.84589111 56.2612085 33.25428223 57.33491699 33.67504883 58.44116211 C35.2032622 62.46048185 36.72905381 66.48071741 38.25415039 70.5012207 C38.91202818 72.23454079 39.5705449 73.96761852 40.22973633 75.70043945 C41.18222247 78.20459114 42.13233607 80.70963247 43.08203125 83.21484375 C43.3727803 83.97772202 43.66352936 84.74060028 43.96308899 85.52659607 C46.79147211 93.00079132 49.24116699 100.50033447 51.4375 108.1875 C42.8575 108.1875 34.2775 108.1875 25.4375 108.1875 C22.63368213 101.87890979 20.35802241 96.10920972 18.3671875 89.59375 C17.68773181 87.03213901 17.68773181 87.03213901 15.4375 86.1875 C12.74094554 86.03073225 10.06620023 85.92913685 7.3671875 85.87109375 C6.57095978 85.85031265 5.77473206 85.82953156 4.95437622 85.80812073 C2.40717315 85.74265851 -0.14013425 85.68375585 -2.6875 85.625 C-4.41277127 85.5818116 -6.13803193 85.53819721 -7.86328125 85.49414062 C-12.09624685 85.38698055 -16.32931753 85.28570377 -20.5625 85.1875 C-20.68222168 85.75597656 -20.80194336 86.32445312 -20.92529297 86.91015625 C-21.96894019 91.75154782 -23.1834866 96.46378383 -24.6875 101.1875 C-25.96807722 104.61287022 -25.96807722 104.61287022 -26.5625 108.1875 C-35.4725 108.1875 -44.3825 108.1875 -53.5625 108.1875 C-51.71764234 101.42302192 -49.90729069 95.00282214 -47.4375 88.5 C-47.13787857 87.69872177 -46.83825714 86.89744354 -46.52955627 86.07188416 C-45.54505312 83.44203751 -44.55380113 80.81479086 -43.5625 78.1875 C-42.86530399 76.32904494 -42.16861962 74.47039786 -41.47241211 72.61157227 C-39.97681109 68.61941023 -38.47892439 64.62811497 -36.97998047 60.63720703 C-34.41188558 53.7931242 -31.8629995 46.94195098 -29.31640625 40.08984375 C-28.66567642 38.33953354 -28.66567642 38.33953354 -28.00180054 36.55386353 C-26.28282759 31.93016529 -24.563943 27.30643448 -22.84594727 22.68237305 C-21.64969072 19.46362301 -20.45197957 16.24541791 -19.25390625 13.02734375 C-18.71438072 11.57411964 -18.71438072 11.57411964 -18.16395569 10.09153748 C-17.83471603 9.20789017 -17.50547638 8.32424286 -17.16625977 7.41381836 C-16.73568016 6.25601112 -16.73568016 6.25601112 -16.29640198 5.07481384 C-15.5625 3.1875 -15.5625 3.1875 -14.5625 1.1875 C-9.80825148 -0.39724951 -4.97853315 0.00301912 0 0 Z M-1.5625 30.1875 C-3.03013898 34.16329521 -4.48489053 38.14369152 -5.9375 42.125 C-6.35 43.24197266 -6.7625 44.35894531 -7.1875 45.50976562 C-9.43861576 51.70033398 -11.31383186 57.71775245 -12.5625 64.1875 C-9.10420353 64.35493748 -5.64585707 64.52131921 -2.1875 64.6875 C-1.20265625 64.73519531 -0.2178125 64.78289062 0.796875 64.83203125 C1.73789062 64.87714844 2.67890625 64.92226563 3.6484375 64.96875 C4.95240479 65.0315918 4.95240479 65.0315918 6.28271484 65.09570312 C7.66672588 65.15466394 9.05223363 65.1875 10.4375 65.1875 C8.92156093 57.39957125 6.4585974 50.09609062 3.8125 42.625 C3.39226563 41.42552734 2.97203125 40.22605469 2.5390625 38.99023438 C1.50975134 36.05435823 0.47580116 33.12020619 -0.5625 30.1875 C-0.8925 30.1875 -1.2225 30.1875 -1.5625 30.1875 Z " fill="#181818" transform="translate(594.5625,443.8125)"/>
<path d="M0 0 C0.33 0.99 0.66 1.98 1 3 C2.13284424 2.83773926 3.26568848 2.67547852 4.43286133 2.50830078 C8.99320847 1.94092381 13.48344273 1.85546719 18.07421875 1.8671875 C18.91990921 1.86623077 19.76559967 1.86527405 20.63691711 1.86428833 C22.41769485 1.86361163 24.19847513 1.86543011 25.97924805 1.86962891 C28.66265609 1.87495073 31.34589419 1.86968379 34.02929688 1.86328125 C43.41688404 1.86001929 52.64751835 2.11993078 62 3 C62 9.93 62 16.86 62 24 C49.13 24 36.26 24 23 24 C23 31.26 23 38.52 23 46 C34.88 46 46.76 46 59 46 C60 63 60 63 58 67 C40.675 66.505 40.675 66.505 23 66 C23 73.26 23 80.52 23 88 C23.66 88.33 24.32 88.66 25 89 C24.34 89 23.68 89 23 89 C23 89.66 23 90.32 23 91 C23.50273438 90.84789062 24.00546875 90.69578125 24.5234375 90.5390625 C27.87008297 89.81061286 31.2148454 89.58310228 34.625 89.375 C35.35904053 89.32996338 36.09308105 89.28492676 36.84936523 89.23852539 C45.26694827 88.81075387 53.6063106 89.36188326 62 90 C63.14982602 94.09003859 63.11094256 98.03177051 63.0625 102.25 C63.05798828 102.99507812 63.05347656 103.74015625 63.04882812 104.5078125 C63.03709246 106.3385764 63.0191585 108.16929873 63 110 C54.67280354 110.15360038 46.34553615 110.30178201 38.01812077 110.4429636 C34.15175646 110.50868537 30.28544438 110.57630377 26.41918945 110.64819336 C22.69103497 110.71744636 18.96282572 110.78180004 15.23452568 110.84269524 C13.80907535 110.86685067 12.38365429 110.8927992 10.95826912 110.92053413 C8.96843949 110.95895154 6.97848108 110.99051632 4.98852539 111.02172852 C3.85379288 111.04171402 2.71906036 111.06169952 1.54994202 111.08229065 C-1 111 -1 111 -2 110 C-2.07587687 108.37794215 -2.08300812 106.75260831 -2.0625 105.12890625 C-2.05412109 104.09443359 -2.04574219 103.05996094 -2.03710938 101.99414062 C-2.02486328 100.86169922 -2.01261719 99.72925781 -2 98.5625 C-1.94669053 89.6888959 -2.07506942 80.86304356 -2.5 72 C-3.04135101 60.06198414 -3.1135978 48.13596721 -3.125 36.1875 C-3.12749756 35.28217529 -3.12999512 34.37685059 -3.13256836 33.4440918 C-3.19761167 4.7964175 -3.19761167 4.7964175 0 0 Z " fill="#181818" transform="translate(807,442)"/>
<path d="M0 0 C23 0 23 0 27 2 C27 2.66 27 3.32 27 4 C26.01 4 25.02 4 24 4 C24.0707373 4.88526367 24.14147461 5.77052734 24.21435547 6.68261719 C25.01783157 17.85785415 25.15366656 28.98743026 25.13037109 40.18896484 C25.12503247 43.23149656 25.13033823 46.27387911 25.13671875 49.31640625 C25.14053835 61.90732586 24.76099555 74.43230592 24 87 C29.35700426 86.88178327 34.71382175 86.75753701 40.07055664 86.62768555 C41.89310904 86.58435713 43.71570148 86.54268053 45.53833008 86.50268555 C48.15718661 86.44493238 50.77584195 86.38125244 53.39453125 86.31640625 C54.21025101 86.29969376 55.02597076 86.28298126 55.8664093 86.26576233 C59.14179544 86.17986755 61.87256401 86.04247866 65 85 C66.19947064 90.41903698 67.13942439 95.42302436 67 101 C67.33 101.66 67.66 102.32 68 103 C67.34 103 66.68 103 66 103 C66.33 104.65 66.66 106.3 67 108 C44.89 108 22.78 108 0 108 C0 90.51 0 73.02 0 55 C-0.66 54.67 -1.32 54.34 -2 54 C-1.34 54 -0.68 54 0 54 C0 36.18 0 18.36 0 0 Z " fill="#191919" transform="translate(468,444)"/>
<path d="M0 0 C0.66 0 1.32 0 2 0 C2.9003955 6.13416212 3.13760235 12.07682756 3.11352539 18.27148438 C3.11367142 19.26751678 3.11381744 20.26354919 3.1139679 21.2897644 C3.11327534 24.55778233 3.10551386 27.82574212 3.09765625 31.09375 C3.09578974 33.369181 3.09436693 35.6446124 3.09336853 37.92004395 C3.08956174 43.89092124 3.07974723 49.86177397 3.06866455 55.8326416 C3.05841082 61.93269519 3.05386244 68.03275277 3.04882812 74.1328125 C3.03812324 86.08855416 3.0205414 98.04427119 3 110 C-5.58 110 -14.16 110 -23 110 C-22.01 109.505 -22.01 109.505 -21 109 C-21.33 108.01 -21.66 107.02 -22 106 C-21.5625 103.8125 -21.5625 103.8125 -21 102 C-21.66 101.67 -22.32 101.34 -23 101 C-22.814375 100.38125 -22.62875 99.7625 -22.4375 99.125 C-21.76313824 96.95839822 -21.76313824 96.95839822 -23 95 C-22.34 95 -21.68 95 -21 95 C-21 94.34 -21 93.68 -21 93 C-21.66 92.67 -22.32 92.34 -23 92 C-22.814375 90.88625 -22.62875 89.7725 -22.4375 88.625 C-21.68319343 85.17431139 -21.68319343 85.17431139 -23 83 C-22.34 83 -21.68 83 -21 83 C-21 82.34 -21 81.68 -21 81 C-21.66 81 -22.32 81 -23 81 C-22.814375 80.113125 -22.62875 79.22625 -22.4375 78.3125 C-21.83847389 75.15552205 -21.83847389 75.15552205 -22.46655273 72.68383789 C-23.07124004 69.6415827 -23.1127 66.84718865 -23.09765625 63.74609375 C-23.09443359 62.56208984 -23.09121094 61.37808594 -23.08789062 60.15820312 C-23.07951172 58.93037109 -23.07113281 57.70253906 -23.0625 56.4375 C-23.05798828 55.20580078 -23.05347656 53.97410156 -23.04882812 52.70507812 C-23.04011553 50.42113277 -23.02934914 48.13719367 -23.01586914 45.85327148 C-23.00316394 43.56887686 -23 41.28442995 -23 39 C-23 27.33333333 -23 15.66666667 -23 4 C-20.00873681 2.27793812 -17.89314287 1.75820077 -14.453125 1.8046875 C-13.18662109 1.81435547 -13.18662109 1.81435547 -11.89453125 1.82421875 C-11.02183594 1.84097656 -10.14914062 1.85773438 -9.25 1.875 C-7.91775391 1.88853516 -7.91775391 1.88853516 -6.55859375 1.90234375 C-4.37211942 1.92585423 -2.18619906 1.95871501 0 2 C0 1.34 0 0.68 0 0 Z M-22 55 C-21 57 -21 57 -21 57 Z " fill="#191919" transform="translate(679,442)"/>
<path d="M0 0 C3.63 0.33 7.26 0.66 11 1 C11.33 1.66 11.66 2.32 12 3 C8.7 3 5.4 3 2 3 C2 36.99 2 70.98 2 106 C22.46 106 42.92 106 64 106 C64 100.39 64 94.78 64 89 C62.14483765 89.00785522 62.14483765 89.00785522 60.25219727 89.01586914 C55.68075275 89.03391561 51.10931141 89.04543071 46.5378418 89.05493164 C44.55606559 89.05997267 42.57429311 89.06680538 40.5925293 89.07543945 C37.75047891 89.08751515 34.90847753 89.09323045 32.06640625 89.09765625 C30.72891075 89.10539818 30.72891075 89.10539818 29.36439514 89.11329651 C27.24259399 89.11349177 25.1208922 89.0621003 23 89 C21.34378022 87.34378022 21.87438662 85.35412038 21.86447144 83.14138794 C21.86649567 82.44689545 21.8685199 81.75240295 21.87060547 81.03686523 C21.86885315 80.30829819 21.86710083 79.57973114 21.86529541 78.8290863 C21.86087293 76.40556496 21.86381838 73.98211592 21.8671875 71.55859375 C21.86651406 69.87524908 21.8655437 68.19190451 21.86428833 66.50856018 C21.86281041 62.97013427 21.86496703 59.43173354 21.86962891 55.89331055 C21.87529574 51.37310218 21.87206725 46.85295358 21.86605644 42.33274746 C21.86242721 38.85046445 21.86360077 35.36819539 21.86618423 31.88591194 C21.86684857 30.220663 21.86604242 28.55541276 21.86370468 26.89016533 C21.86114277 24.54970882 21.86506952 22.20934608 21.87060547 19.86889648 C21.86858124 19.18857361 21.86655701 18.50825073 21.86447144 17.80731201 C21.88483583 13.12012006 22.35048826 8.63214818 23 4 C23.33 4 23.66 4 24 4 C24.96460518 16.07184707 25.15554793 28.08277823 25.13037109 40.18896484 C25.12503247 43.23149656 25.13033823 46.27387911 25.13671875 49.31640625 C25.14053835 61.90732586 24.76099555 74.43230592 24 87 C29.35700426 86.88178327 34.71382175 86.75753701 40.07055664 86.62768555 C41.89310904 86.58435713 43.71570148 86.54268053 45.53833008 86.50268555 C48.15718661 86.44493238 50.77584195 86.38125244 53.39453125 86.31640625 C54.21025101 86.29969376 55.02597076 86.28298126 55.8664093 86.26576233 C59.14179544 86.17986755 61.87256401 86.04247866 65 85 C66.19947064 90.41903698 67.13942439 95.42302436 67 101 C67.33 101.66 67.66 102.32 68 103 C67.34 103 66.68 103 66 103 C66.33 104.65 66.66 106.3 67 108 C44.89 108 22.78 108 0 108 C0 90.51 0 73.02 0 55 C-0.66 54.67 -1.32 54.34 -2 54 C-1.34 54 -0.68 54 0 54 C0 36.18 0 18.36 0 0 Z " fill="#101010" transform="translate(468,444)"/>
<path d="M0 0 C0.66 0 1.32 0 2 0 C2 33.66 2 67.32 2 102 C19.49 102 36.98 102 55 102 C55 102.33 55 102.66 55 103 C49.21259328 104.24342193 43.50514737 104.14416167 37.6171875 104.1328125 C36.52536163 104.13376923 35.43353577 104.13472595 34.30862427 104.13571167 C32.00734398 104.1363905 29.70606174 104.13455699 27.40478516 104.13037109 C23.88049028 104.12500835 20.35632224 104.13033149 16.83203125 104.13671875 C14.59374972 104.13605812 12.35546827 104.13477726 10.1171875 104.1328125 C9.062966 104.13483673 8.00874451 104.13686096 6.9225769 104.13894653 C5.45052292 104.13421829 5.45052292 104.13421829 3.94873047 104.12939453 C2.65683304 104.12820114 2.65683304 104.12820114 1.33883667 104.12698364 C-0.90573946 104.00511774 -2.84694096 103.6264356 -5 103 C-5 102.34 -5 101.68 -5 101 C-3.02 100.505 -3.02 100.505 -1 100 C-0.97106068 96.37501666 -0.95322208 92.75006287 -0.9375 89.125 C-0.92912109 88.09246094 -0.92074219 87.05992187 -0.91210938 85.99609375 C-0.90888672 85.00996094 -0.90566406 84.02382813 -0.90234375 83.0078125 C-0.89710693 82.09660645 -0.89187012 81.18540039 -0.88647461 80.24658203 C-0.85114435 77.96312491 -0.85114435 77.96312491 -2 76 C-1.34 76 -0.68 76 0 76 C-0.66 73.69 -1.32 71.38 -2 69 C-1.34 69 -0.68 69 0 69 C-0.66 66.36 -1.32 63.72 -2 61 C-1.34 61 -0.68 61 0 61 C-0.03029297 60.41025391 -0.06058594 59.82050781 -0.09179688 59.21289062 C-0.76265551 45.70282984 -1.10805525 32.21248898 -1.125 18.6875 C-1.12749756 17.98351074 -1.12999512 17.27952148 -1.13256836 16.55419922 C-1.13845219 14.54004765 -1.13579791 12.5258767 -1.1328125 10.51171875 C-1.13168457 9.35115967 -1.13055664 8.19060059 -1.12939453 6.99487305 C-1.02038237 4.47175577 -0.74058151 2.39935171 0 0 Z " fill="#121112" transform="translate(373,448)"/>
<path d="M0 0 C0.33 0 0.66 0 1 0 C1 33.66 1 67.32 1 102 C21.13 101.67 41.26 101.34 62 101 C62.33 101.99 62.66 102.98 63 104 C54.67280354 104.15360038 46.34553615 104.30178201 38.01812077 104.4429636 C34.15175646 104.50868537 30.28544438 104.57630377 26.41918945 104.64819336 C22.69103497 104.71744636 18.96282572 104.78180004 15.23452568 104.84269524 C13.80907535 104.86685067 12.38365429 104.8927992 10.95826912 104.92053413 C8.96843949 104.95895154 6.97848108 104.99051632 4.98852539 105.02172852 C3.85379288 105.04171402 2.71906036 105.06169952 1.54994202 105.08229065 C-1 105 -1 105 -2 104 C-2.08737645 102.14630389 -2.10698153 100.28932459 -2.09765625 98.43359375 C-2.09443359 97.30888672 -2.09121094 96.18417969 -2.08789062 95.02539062 C-2.07951172 93.84138672 -2.07113281 92.65738281 -2.0625 91.4375 C-2.05798828 90.24962891 -2.05347656 89.06175781 -2.04882812 87.83789062 C-2.03699675 84.89187774 -2.02051287 81.94596319 -2 79 C-1.67 79 -1.34 79 -1 79 C-0.67 52.93 -0.34 26.86 0 0 Z " fill="#0C0C0C" transform="translate(807,448)"/>
<path d="M0 0 C0.66 0.33 1.32 0.66 2 1 C2 27.07 2 53.14 2 80 C16.52 80 31.04 80 46 80 C46 80.66 46 81.32 46 82 C30.82 82 15.64 82 0 82 C-0.15286583 74.56366531 -0.3041496 67.12751655 -0.44254303 59.69093323 C-0.5074199 56.2253468 -0.57462964 52.75984743 -0.64819336 49.29443359 C-0.99601319 32.81851987 -1.03847891 16.45323098 0 0 Z " fill="#030203" transform="translate(698,470)"/>
<path d="M0 0 C0.66 0 1.32 0 2 0 C3.3328414 16.74241133 3.11785523 33.51350452 3.06866455 50.2946167 C3.05828806 54.21723892 3.05383676 58.1398679 3.04882812 62.0625 C3.03822173 69.70835352 3.0206885 77.35416589 3 85 C-5.58 85 -14.16 85 -23 85 C-22.01 84.505 -22.01 84.505 -21 84 C-21.33 83.01 -21.66 82.02 -22 81 C-21.72230092 78.6593935 -21.39460023 76.32375692 -21 74 C-20.34 74 -19.68 74 -19 74 C-19 76.97 -19 79.94 -19 83 C-12.73 83 -6.46 83 0 83 C0 55.61 0 28.22 0 0 Z " fill="#090909" transform="translate(679,467)"/>
<path d="M0 0 C0.33 0.99 0.66 1.98 1 3 C2.134375 2.814375 3.26875 2.62875 4.4375 2.4375 C11.05957545 1.60534539 17.47625653 2.82907169 24 4 C24 4.33 24 4.66 24 5 C16.41 5.33 8.82 5.66 1 6 C0.67 39.66 0.34 73.32 0 108 C-0.33 108 -0.66 108 -1 108 C-2.14330493 83.56793851 -3.20762544 59.15053187 -3.1875 34.6875 C-3.1882251 33.82707092 -3.1889502 32.96664185 -3.18969727 32.08013916 C-3.18706985 4.78060477 -3.18706985 4.78060477 0 0 Z " fill="#1F1E1E" transform="translate(807,442)"/>
<path d="M0 0 C0.33 0 0.66 0 1 0 C1.22304441 1.74818591 1.4278645 3.49870323 1.625 5.25 C1.74101563 6.22453125 1.85703125 7.1990625 1.9765625 8.203125 C2 11 2 11 0 15 C-11.55 14.67 -23.1 14.34 -35 14 C-35 21.26 -35 28.52 -35 36 C-34.34 36.33 -33.68 36.66 -33 37 C-33.66 37 -34.32 37 -35 37 C-35 37.66 -35 38.32 -35 39 C-34.34 39.33 -33.68 39.66 -33 40 C-34.32 40 -35.64 40 -37 40 C-37 31.09 -37 22.18 -37 13 C-33.43072615 11.81024205 -30.20053028 11.87521845 -26.48828125 11.90234375 C-25.76005661 11.9037587 -25.03183197 11.90517365 -24.28153992 11.90663147 C-21.95848461 11.91222341 -19.63552612 11.92477438 -17.3125 11.9375 C-15.73632952 11.94251604 -14.16015752 11.94707877 -12.58398438 11.95117188 C-8.72261902 11.9621902 -4.86132592 11.97944926 -1 12 C-1.01160156 11.30132812 -1.02320313 10.60265625 -1.03515625 9.8828125 C-1.04417969 8.97273438 -1.05320312 8.06265625 -1.0625 7.125 C-1.07410156 6.22007812 -1.08570313 5.31515625 -1.09765625 4.3828125 C-1 2 -1 2 0 0 Z " fill="#0F0F0F" transform="translate(865,494)"/>
<path d="M0 0 C0.33 0 0.66 0 1 0 C2.10838246 13.50552151 2.11705036 26.95710212 2.0625 40.5 C2.05747161 42.69140522 2.05291109 44.88281156 2.04882812 47.07421875 C2.03793636 52.38283753 2.02130585 57.69141332 2 63 C1.34 63 0.68 63 0 63 C0 68.61 0 74.22 0 80 C-0.33 80 -0.66 80 -1 80 C-1.02322795 70.75053576 -1.04096822 61.50108165 -1.05181217 52.25159454 C-1.05701819 47.95613063 -1.0640742 43.66068676 -1.07543945 39.36523438 C-1.08634967 35.21552841 -1.092294 31.06584165 -1.09487724 26.91612244 C-1.09671688 25.33739418 -1.10030911 23.75866692 -1.10573006 22.1799469 C-1.11304861 19.95913466 -1.11398642 17.73840059 -1.11352539 15.51757812 C-1.115746 14.25627075 -1.11796661 12.99496338 -1.12025452 11.69543457 C-0.99111001 7.72680955 -0.54877469 3.93028887 0 0 Z " fill="#070808" transform="translate(491,448)"/>
<path d="M0 0 C0.80179687 0.00451172 1.60359375 0.00902344 2.4296875 0.01367188 C4.41149006 0.02546832 6.39325433 0.04340395 8.375 0.0625 C8.705 0.7225 9.035 1.3825 9.375 2.0625 C3.435 2.0625 -2.505 2.0625 -8.625 2.0625 C-8.625 9.6525 -8.625 17.2425 -8.625 25.0625 C-2.355 25.3925 3.915 25.7225 10.375 26.0625 C10.705 26.7225 11.035 27.3825 11.375 28.0625 C4.445 28.0625 -2.485 28.0625 -9.625 28.0625 C-10.9558911 25.40071779 -10.73768993 23.37510604 -10.72265625 20.3984375 C-10.71943359 19.27695312 -10.71621094 18.15546875 -10.71289062 17 C-10.70451172 15.824375 -10.69613281 14.64875 -10.6875 13.4375 C-10.68298828 12.25414062 -10.67847656 11.07078125 -10.67382812 9.8515625 C-10.66201467 6.92182493 -10.64554258 3.99218728 -10.625 1.0625 C-7.31505287 -0.59247356 -3.63377 -0.03834335 0 0 Z " fill="#0B0B0B" transform="translate(405.625,462.9375)"/>
<path d="M0 0 C0.33 0 0.66 0 1 0 C1 1.98 1 3.96 1 6 C18.82 6 36.64 6 55 6 C55 6.33 55 6.66 55 7 C49.21259328 8.24342193 43.50514737 8.14416167 37.6171875 8.1328125 C36.52536163 8.13376923 35.43353577 8.13472595 34.30862427 8.13571167 C32.00734398 8.1363905 29.70606174 8.13455699 27.40478516 8.13037109 C23.88049028 8.12500835 20.35632224 8.13033149 16.83203125 8.13671875 C14.59374972 8.13605812 12.35546827 8.13477726 10.1171875 8.1328125 C9.062966 8.13483673 8.00874451 8.13686096 6.9225769 8.13894653 C5.45052292 8.13421829 5.45052292 8.13421829 3.94873047 8.12939453 C2.65683304 8.12820114 2.65683304 8.12820114 1.33883667 8.12698364 C-0.90573946 8.00511774 -2.84694096 7.6264356 -5 7 C-5 6.34 -5 5.68 -5 5 C-3.68 4.67 -2.36 4.34 -1 4 C-0.67 2.68 -0.34 1.36 0 0 Z " fill="#080708" transform="translate(373,544)"/>
<path d="M0 0 C0.33 0 0.66 0 1 0 C2.18135474 6.48349807 2.11322974 12.86214507 2.0625 19.4375 C2.05798828 20.55060547 2.05347656 21.66371094 2.04882812 22.81054688 C2.03711193 25.54042101 2.02070699 28.27018174 2 31 C1.67 31 1.34 31 1 31 C0.67 32.98 0.34 34.96 0 37 C-2.81552729 34.18447271 -2.2583114 32.35555766 -2.265625 28.41796875 C-2.26753845 27.76677567 -2.2694519 27.11558258 -2.27142334 26.44465637 C-2.27278505 25.06523249 -2.26908954 23.68579579 -2.26074219 22.30639648 C-2.25009338 20.20591981 -2.26061033 18.10630847 -2.2734375 16.00585938 C-2.27211489 14.66406062 -2.2695504 13.32226241 -2.265625 11.98046875 C-2.26336914 10.76254639 -2.26111328 9.54462402 -2.25878906 8.28979492 C-2.00776956 5.09876864 -1.36799516 2.87082002 0 0 Z M-1 17 C0 19 0 19 0 19 Z " fill="#242424" transform="translate(658,480)"/>
<path d="M0 0 C1.58678567 5.65449814 1.41770587 11.32917653 0 17 C-0.66 17 -1.32 17 -2 17 C-2 12.38 -2 7.76 -2 3 C-5.3 3 -8.6 3 -12 3 C-12 2.67 -12 2.34 -12 2 C-23.385 1.505 -23.385 1.505 -35 1 C-35 0.67 -35 0.34 -35 0 C-23.20567437 -1.0574223 -11.80088222 -0.83375798 0 0 Z " fill="#2C2B2C" transform="translate(869,532)"/>
<path d="M0 0 C8.06209521 -0.14540853 15.96628797 0.308928 24 1 C24 7.6 24 14.2 24 21 C23.67 21 23.34 21 23 21 C22.67 15.39 22.34 9.78 22 4 C9.13 3.505 9.13 3.505 -4 3 C-2.68 2.67 -1.36 2.34 0 2 C0 1.34 0 0.68 0 0 Z " fill="#131212" transform="translate(845,444)"/>
<path d="M0 0 C2.58492789 0.08716617 5.16647502 0.19405119 7.75 0.3125 C8.84441406 0.34633789 8.84441406 0.34633789 9.9609375 0.38085938 C14.66924268 0.61627463 16.06175411 1.04631558 20 4 C6.14 3.67 -7.72 3.34 -22 3 C-21.67 2.34 -21.34 1.68 -21 1 C-14.07 1.33 -7.14 1.66 0 2 C0 1.34 0 0.68 0 0 Z " fill="#0C0C0C" transform="translate(411,444)"/>
<path d="M0 0 C0.99 0.33 1.98 0.66 3 1 C2.67 9.58 2.34 18.16 2 27 C1.34 26.67 0.68 26.34 0 26 C-0.66 26.66 -1.32 27.32 -2 28 C-2 24 -2 24 -1 23 C-1 21.2056909 -1.00868572 19.41130134 -1.03515625 17.6171875 C-1.09467572 11.64823465 -0.77621202 5.91861667 0 0 Z " fill="#0F0F0F" transform="translate(698,444)"/>
<path d="M0 0 C0.33 0 0.66 0 1 0 C1.19448477 2.12437212 1.38038289 4.24953191 1.5625 6.375 C1.66691406 7.55835938 1.77132812 8.74171875 1.87890625 9.9609375 C2 13 2 13 1 15 C2.98 14.34 4.96 13.68 7 13 C5.61811547 16.21043882 4.07578097 18.04936365 1.375 20.25 C0.74335938 20.77078125 0.11171875 21.2915625 -0.5390625 21.828125 C-1.02117187 22.21484375 -1.50328125 22.6015625 -2 23 C-3.15512747 19.53461759 -2.49365554 17.89513995 -1.546875 14.47265625 C-0.49584879 9.72051631 -0.30703843 4.84797518 0 0 Z " fill="#212021" transform="translate(201,530)"/>
<path d="M0 0 C2 3.875 2 3.875 2 5 C-6.91 5 -15.82 5 -25 5 C-24.34 3.68 -23.68 2.36 -23 1 C-22.67 1.66 -22.34 2.32 -22 3 C-11.605 2.505 -11.605 2.505 -1 2 C-0.67 1.34 -0.34 0.68 0 0 Z " fill="#040304" transform="translate(566,547)"/>
<path d="M0 0 C0.33 0 0.66 0 1 0 C1.77528479 3.42573937 2.11918778 6.57239245 2.09765625 10.08203125 C2.09282227 11.47905273 2.09282227 11.47905273 2.08789062 12.90429688 C2.07951172 13.86400391 2.07113281 14.82371094 2.0625 15.8125 C2.05798828 16.79154297 2.05347656 17.77058594 2.04882812 18.77929688 C2.03708684 21.18626111 2.02066419 23.59309857 2 26 C0.68 26 -0.64 26 -2 26 C-1.814375 25.21625 -1.62875 24.4325 -1.4375 23.625 C-0.74037734 21.02910225 -0.74037734 21.02910225 -2 19 C-1.34 19 -0.68 19 0 19 C0 18.34 0 17.68 0 17 C-0.66 17 -1.32 17 -2 17 C-1.505 15.515 -1.505 15.515 -1 14 C-0.77439324 11.60745424 -0.59151405 9.21071877 -0.4375 6.8125 C-0.35371094 5.54019531 -0.26992188 4.26789063 -0.18359375 2.95703125 C-0.12300781 1.98121094 -0.06242188 1.00539063 0 0 Z " fill="#0F0E0F" transform="translate(658,506)"/>
<path d="M0 0 C0 0.66 0 1.32 0 2 C-8.58 2 -17.16 2 -26 2 C-25.67 1.34 -25.34 0.68 -25 0 C-5.63829787 -2.81914894 -5.63829787 -2.81914894 0 0 Z " fill="#0C0C0D" transform="translate(606,509)"/>
<path d="M0 0 C9.9 0 19.8 0 30 0 C30.33 0.66 30.66 1.32 31 2 C20.27790555 2.96057505 10.63554628 3.03946292 0 1 C0 0.67 0 0.34 0 0 Z " fill="#0A0909" transform="translate(169,612)"/>
<path d="M0 0 C0.99 0.33 1.98 0.66 3 1 C-2.94 6.94 -8.88 12.88 -15 19 C-15.66 18.34 -16.32 17.68 -17 17 C-11.39 11.39 -5.78 5.78 0 0 Z " fill="#111112" transform="translate(276,501)"/>
<path d="M0 0 C0.33 0 0.66 0 1 0 C1.05786668 3.79160297 1.09355054 7.58309311 1.125 11.375 C1.14175781 12.45523437 1.15851563 13.53546875 1.17578125 14.6484375 C1.18222656 15.6796875 1.18867188 16.7109375 1.1953125 17.7734375 C1.20578613 18.72653809 1.21625977 19.67963867 1.22705078 20.66162109 C1 23 1 23 -1 25 C-1.22282257 21.95877308 -1.42868018 18.9179572 -1.625 15.875 C-1.68945312 15.0190625 -1.75390625 14.163125 -1.8203125 13.28125 C-2.12306989 8.36144244 -1.98895393 4.6307706 0 0 Z " fill="#0A0909" transform="translate(374,483)"/>
<path d="M0 0 C0 0.33 0 0.66 0 1 C-9.24 1 -18.48 1 -28 1 C-28 0.67 -28 0.34 -28 0 C-18.29915458 -1.47844069 -9.63252185 -2.70459577 0 0 Z " fill="#060606" transform="translate(735,446)"/>
<path d="M0 0 C6.93 0 13.86 0 21 0 C21 1.98 21 3.96 21 6 C20.34 6.66 19.68 7.32 19 8 C19 6.35 19 4.7 19 3 C16.36 3 13.72 3 11 3 C11 2.67 11 2.34 11 2 C7.37 1.67 3.74 1.34 0 1 C0 0.67 0 0.34 0 0 Z " fill="#292829" transform="translate(845,488)"/>
<path d="M0 0 C0.33 0 0.66 0 1 0 C0.8735512 6.06954219 -1.15872992 8.97538106 -5.11328125 13.49609375 C-7 15 -7 15 -11 15 C-10.29875 14.38125 -9.5975 13.7625 -8.875 13.125 C-5.58801637 9.88497328 -3.49480923 6.00243383 -1.234375 2.01171875 C-0.82703125 1.34785156 -0.4196875 0.68398438 0 0 Z " fill="#111010" transform="translate(452,530)"/>
<path d="M0 0 C-1.63544013 3.27088026 -5.12503262 3.90382329 -8.375 5.1875 C-9.40367187 5.61579102 -9.40367187 5.61579102 -10.453125 6.05273438 C-15.63116776 8.12294408 -15.63116776 8.12294408 -19 7 C-16.25159154 5.1677277 -13.60990005 3.77340523 -10.625 2.375 C-9.68914062 1.92898438 -8.75328125 1.48296875 -7.7890625 1.0234375 C-4.96871397 -0.01148031 -2.97340138 -0.205435 0 0 Z " fill="#131313" transform="translate(235,425)"/>
<path d="M0 0 C0.66 0 1.32 0 2 0 C2.84334329 2.22582389 3.67478551 4.45496026 4.5 6.6875 C4.73847656 7.31333984 4.97695313 7.93917969 5.22265625 8.58398438 C6.5412725 12.18192299 7.29329235 15.16520253 7 19 C4.44612397 16.44612397 3.66911986 13.99273882 2.375 10.625 C1.92898438 9.48289062 1.48296875 8.34078125 1.0234375 7.1640625 C0 4 0 4 0 0 Z " fill="#101011" transform="translate(626,501)"/>
<path d="M0 0 C0.66 0 1.32 0 2 0 C2 9.57 2 19.14 2 29 C1.67 29 1.34 29 1 29 C1 22.07 1 15.14 1 8 C0.34 7.67 -0.32 7.34 -1 7 C-0.67 4.69 -0.34 2.38 0 0 Z " fill="#0C0C0C" transform="translate(373,448)"/>
<path d="M0 0 C2.6317496 0.96497485 3.77878021 1.58828539 5.125 4.09375 C6.21257916 7.70606651 6.21780465 11.08246709 6.125 14.8125 C6.11597656 15.50537109 6.10695313 16.19824219 6.09765625 16.91210938 C6.07426157 18.60822395 6.03839641 20.30415871 6 22 C5.67 22 5.34 22 5 22 C4.96132813 20.96552734 4.96132813 20.96552734 4.921875 19.91015625 C4.55719656 13.86809752 3.58730959 9.18427831 0.83984375 3.77734375 C0 2 0 2 0 0 Z " fill="#0C0C0C" transform="translate(448,506)"/>
<path d="M0 0 C0.33 0.99 0.66 1.98 1 3 C0.48050781 3.44730469 -0.03898438 3.89460937 -0.57421875 4.35546875 C-3.73639284 7.09679897 -6.82214418 9.81810201 -9.75 12.8125 C-11.83106365 14.83575632 -13.41431983 15.79950564 -16 17 C-11.01595832 10.96668638 -5.58084697 5.4815829 0 0 Z " fill="#282828" transform="translate(186,590)"/>
<path d="M0 0 C0.66 0 1.32 0 2 0 C1.39818232 6.31908569 -1.30538791 10.77484912 -6 15 C-6.66 14.67 -7.32 14.34 -8 14 C-6.66365029 9.99095087 -4.95062557 7.95062557 -2 5 C-0.74563813 2.36777038 -0.74563813 2.36777038 0 0 Z " fill="#121212" transform="translate(764,513)"/>
<path d="M0 0 C0.33 0 0.66 0 1 0 C1.22304441 1.74818591 1.4278645 3.49870323 1.625 5.25 C1.74101563 6.22453125 1.85703125 7.1990625 1.9765625 8.203125 C2.00112537 11.13429393 1.5312717 12.54528964 0 15 C-2.31 14.34 -4.62 13.68 -7 13 C-7 12.67 -7 12.34 -7 12 C-5.02 12 -3.04 12 -1 12 C-1.01160156 11.30132812 -1.02320313 10.60265625 -1.03515625 9.8828125 C-1.04417969 8.97273438 -1.05320312 8.06265625 -1.0625 7.125 C-1.07410156 6.22007812 -1.08570313 5.31515625 -1.09765625 4.3828125 C-1 2 -1 2 0 0 Z " fill="#090809" transform="translate(865,494)"/>
<path d="M0 0 C0.33 0 0.66 0 1 0 C1.054348 2.0622048 1.09294961 4.12482816 1.125 6.1875 C1.14820313 7.33605469 1.17140625 8.48460937 1.1953125 9.66796875 C1.00484152 12.91740372 0.39360127 15.08660521 -1 18 C-1.66 18 -2.32 18 -3 18 C-2.01 12.06 -1.02 6.12 0 0 Z " fill="#0D0C0C" transform="translate(789,502)"/>
<path d="M0 0 C0 3.69418201 -1.28179295 5.77836178 -3 9 C-3.66 9 -4.32 9 -5 9 C-5.33 9.99 -5.66 10.98 -6 12 C-6.66 10.68 -7.32 9.36 -8 8 C-5.36 5.36 -2.72 2.72 0 0 Z " fill="#222122" transform="translate(175,457)"/>
<path d="M0 0 C1.125 3.75 1.125 3.75 0 6 C1.98 6 3.96 6 6 6 C6 6.33 6 6.66 6 7 C2.37 7 -1.26 7 -5 7 C-5.33 6.01 -5.66 5.02 -6 4 C-5.195625 3.525625 -4.39125 3.05125 -3.5625 2.5625 C-1.15246512 1.23099846 -1.15246512 1.23099846 0 0 Z " fill="#2F2F30" transform="translate(169,607)"/>
<path d="M0 0 C0.99 0 1.98 0 3 0 C3 2.97 3 5.94 3 9 C2.34 9 1.68 9 1 9 C1 9.99 1 10.98 1 12 C0.34 11.67 -0.32 11.34 -1 11 C-0.814375 10.38125 -0.62875 9.7625 -0.4375 9.125 C0.23686176 6.95839822 0.23686176 6.95839822 -1 5 C-0.34 5 0.32 5 1 5 C1 4.34 1 3.68 1 3 C0.34 2.67 -0.32 2.34 -1 2 C-0.67 1.34 -0.34 0.68 0 0 Z " fill="#202021" transform="translate(657,532)"/>
<path d="M0 0 C0.99 0.33 1.98 0.66 3 1 C5.52167512 6.17606998 5.19972232 11.38558376 5 17 C4.67 17 4.34 17 4 17 C4 14.03 4 11.06 4 8 C3.34 8 2.68 8 2 8 C1.34 5.36 0.68 2.72 0 0 Z " fill="#202020" transform="translate(447,461)"/>
<path d="M0 0 C0.33 0 0.66 0 1 0 C1.22226864 1.76913824 1.42733873 3.54044371 1.625 5.3125 C1.74101563 6.29863281 1.85703125 7.28476562 1.9765625 8.30078125 C2 11 2 11 0 14 C-1 13 -1 13 -1.1328125 10.3125 C-1.13023437 9.219375 -1.12765625 8.12625 -1.125 7 C-1.12757813 5.906875 -1.13015625 4.81375 -1.1328125 3.6875 C-1 1 -1 1 0 0 Z " fill="#09090A" transform="translate(680,450)"/>
<path d="M0 0 C0.66 0 1.32 0 2 0 C3.75747614 4.50353262 4.19294408 8.17639811 4 13 C1.47519307 10.47519307 1.44261367 8.86176966 0.875 5.375 C0.70742188 4.37210938 0.53984375 3.36921875 0.3671875 2.3359375 C0.24601562 1.56507813 0.12484375 0.79421875 0 0 Z " fill="#100F10" transform="translate(306,514)"/>
<path d="M0 0 C1.79158489 -0.02696365 3.58328473 -0.04637917 5.375 -0.0625 C6.37273438 -0.07410156 7.37046875 -0.08570313 8.3984375 -0.09765625 C11 0 11 0 13 1 C13 1.66 13 2.32 13 3 C11.58249437 2.88490339 10.16598831 2.75746342 8.75 2.625 C7.96109375 2.55539062 7.1721875 2.48578125 6.359375 2.4140625 C3.914123 1.98492887 2.15163097 1.21399362 0 0 Z " fill="#0C0B0C" transform="translate(743,446)"/>
<path d="M0 0 C11.52164009 -0.18451025 11.52164009 -0.18451025 17 1 C16.67 1.66 16.34 2.32 16 3 C14.00045254 3.04254356 11.99958364 3.04080783 10 3 C9.67 2.67 9.34 2.34 9 2 C7.48530552 1.76807135 5.96245438 1.58784762 4.4375 1.4375 C3.61121094 1.35371094 2.78492188 1.26992188 1.93359375 1.18359375 C1.29550781 1.12300781 0.65742188 1.06242187 0 1 C0 0.67 0 0.34 0 0 Z " fill="#1F1E1F" transform="translate(283,411)"/>
<path d="M0 0 C0.66 0.66 1.32 1.32 2 2 C0.88121617 3.17262904 -0.24523051 4.33795138 -1.375 5.5 C-2.00148437 6.1496875 -2.62796875 6.799375 -3.2734375 7.46875 C-5 9 -5 9 -7 9 C-5.44499019 5.18315774 -2.96404505 2.80804268 0 0 Z " fill="#0C0D0D" transform="translate(254,523)"/>
<path d="M0 0 C3.81287042 1.44626119 5.32707177 3.30194812 7 7 C6.57421875 9.1640625 6.57421875 9.1640625 6 11 C4.99735282 9.35577799 3.99794896 7.70957779 3 6.0625 C2.443125 5.14597656 1.88625 4.22945313 1.3125 3.28515625 C0 1 0 1 0 0 Z " fill="#100F10" transform="translate(298,500)"/>
<path d="M0 0 C1.40907283 2.81814566 0.50872691 4.17277204 -0.4375 7.125 C-0.72496094 8.03507812 -1.01242187 8.94515625 -1.30859375 9.8828125 C-1.53675781 10.58148438 -1.76492188 11.28015625 -2 12 C-2.66 12 -3.32 12 -4 12 C-3.5317879 7.22423661 -2.75668002 3.95523655 0 0 Z " fill="#0F0E0F" transform="translate(564,491)"/>
<path d="M0 0 C0.66 0 1.32 0 2 0 C5.42857143 7.28571429 5.42857143 7.28571429 5 12 C2.32522069 9.32522069 1.3535886 6.507025 0 3 C0 2.01 0 1.02 0 0 Z " fill="#0E0F0E" transform="translate(783,470)"/>
<path d="M0 0 C0.33 0 0.66 0 1 0 C1.3125 3.1875 1.3125 3.1875 1 7 C-1.5 9.9375 -1.5 9.9375 -4 12 C-3.33501617 7.61110675 -1.81242323 4.0188515 0 0 Z " fill="#0F0F0F" transform="translate(583,497)"/>
<path d="M0 0 C0.33 0.66 0.66 1.32 1 2 C-2.63 2.33 -6.26 2.66 -10 3 C-10 2.01 -10 1.02 -10 0 C-6.64338305 -1.67830848 -3.63864406 -0.6353188 0 0 Z " fill="#090909" transform="translate(479,445)"/>
<path d="M0 0 C0.33 0.99 0.66 1.98 1 3 C-0.98 4.98 -2.96 6.96 -5 9 C-5.99 8.67 -6.98 8.34 -8 8 C-7.236875 7.4225 -6.47375 6.845 -5.6875 6.25 C-3.33799083 4.28296907 -1.70676495 2.51523256 0 0 Z " fill="#0A0909" transform="translate(446,485)"/>
<path d="M0 0 C2 1.625 2 1.625 4 4 C4.25 7.25 4.25 7.25 4 10 C1.16625119 6.79663178 0.4794463 4.21912747 0 0 Z " fill="#0E0E0D" transform="translate(616,475)"/>
<path d="M0 0 C0.33 0 0.66 0 1 0 C1 3.96 1 7.92 1 12 C0.01 12.33 -0.98 12.66 -2 13 C-1.34 8.71 -0.68 4.42 0 0 Z " fill="#080808" transform="translate(450,469)"/>
<path d="M0 0 C0.81210937 0.29003906 1.62421875 0.58007812 2.4609375 0.87890625 C3.27820313 1.16636719 4.09546875 1.45382812 4.9375 1.75 C5.56398438 1.97816406 6.19046875 2.20632813 6.8359375 2.44140625 C6.8359375 2.77140625 6.8359375 3.10140625 6.8359375 3.44140625 C5.5778125 3.31765625 4.3196875 3.19390625 3.0234375 3.06640625 C1.96189453 2.96199219 1.96189453 2.96199219 0.87890625 2.85546875 C-1.1640625 2.44140625 -1.1640625 2.44140625 -4.1640625 0.44140625 C-2.1640625 -0.55859375 -2.1640625 -0.55859375 0 0 Z " fill="#111011" transform="translate(745.1640625,464.55859375)"/>
<path d="M0 0 C0.66 0 1.32 0 2 0 C2.33 2.64 2.66 5.28 3 8 C2.01 8.33 1.02 8.66 0 9 C-0.84454356 5.62182575 -1.10844919 3.32534757 0 0 Z " fill="#222222" transform="translate(679,442)"/>
<path d="M0 0 C0.33 0.99 0.66 1.98 1 3 C-1.97 5.475 -1.97 5.475 -5 8 C-5 5 -5 5 -2.5 2.3125 C-1.675 1.549375 -0.85 0.78625 0 0 Z " fill="#121111" transform="translate(295,573)"/>
<path d="M0 0 C0.33 0.99 0.66 1.98 1 3 C-0.9375 6.1875 -0.9375 6.1875 -3 9 C-3.66 8.34 -4.32 7.68 -5 7 C-3.35 4.69 -1.7 2.38 0 0 Z " fill="#0F0F0F" transform="translate(302,563)"/>
<path d="M0 0 C3.86107457 2.57404971 3.94319692 4.61020259 5 9 C4.01 8.67 3.02 8.34 2 8 C0.5522078 5.10441559 0 3.25811062 0 0 Z " fill="#0E0E0D" transform="translate(641,543)"/>
<path d="M0 0 C-1.25125384 3.75376152 -2.5652404 4.24073289 -6 6 C-6.66 6 -7.32 6 -8 6 C-6.72879117 2.18637351 -4.19078006 0 0 0 Z " fill="#131313" transform="translate(279,589)"/>
<path d="M0 0 C0.99 0.66 1.98 1.32 3 2 C0.69 3.65 -1.62 5.3 -4 7 C-4 4 -4 4 -2 1.8125 C-1.34 1.214375 -0.68 0.61625 0 0 Z " fill="#262525" transform="translate(339,410)"/>
<path d="M0 0 C0.33 0 0.66 0 1 0 C0.67 2.64 0.34 5.28 0 8 C-0.99 8 -1.98 8 -3 8 C-2.01 5.36 -1.02 2.72 0 0 Z " fill="#131212" transform="translate(570,536)"/>
<path d="M0 0 C0.99 0.33 1.98 0.66 3 1 C2.34 1 1.68 1 1 1 C0.67 1.66 0.34 2.32 0 3 C0 2.01 0 1.02 0 0 Z " fill="#373635" transform="translate(831,509)"/>
<path d="M0 0 C0.33 0 0.66 0 1 0 C1 1.65 1 3.3 1 5 C0.67 5 0.34 5 0 5 C0 3.35 0 1.7 0 0 Z " fill="#393837" transform="translate(466,475)"/>
<path d="M0 0 C0.99 0.495 0.99 0.495 2 1 C1.34 1.66 0.68 2.32 0 3 C0 2.01 0 1.02 0 0 Z " fill="#3F3D3E" transform="translate(193,576)"/>
<path d="M0 0 C0.33 0.66 0.66 1.32 1 2 C0.01 1.67 -0.98 1.34 -2 1 C-1.34 0.67 -0.68 0.34 0 0 Z " fill="#3E3D3D" transform="translate(539,550)"/>
<path d="M0 0 C0.66 0.66 1.32 1.32 2 2 C1.01 1.67 0.02 1.34 -1 1 C-0.67 0.67 -0.34 0.34 0 0 Z " fill="#3D3D3E" transform="translate(189,494)"/>
<path d="M0 0 C3 1 3 1 3 1 Z " fill="#3F3D3D" transform="translate(229,612)"/>
<path d="" fill="#403E3D" transform="translate(0,0)"/>
<path d="" fill="#3B393A" transform="translate(0,0)"/>
<path d="" fill="#3A3A3C" transform="translate(0,0)"/>
<path d="" fill="#373837" transform="translate(0,0)"/>
<path d="" fill="#373736" transform="translate(0,0)"/>
<path d="" fill="#373737" transform="translate(0,0)"/>
<path d="" fill="#353636" transform="translate(0,0)"/>
<path d="" fill="#383838" transform="translate(0,0)"/>
<path d="" fill="#38383A" transform="translate(0,0)"/>
<path d="M0 0 C0.66 0 1.32 0 2 0 C1.67 0.66 1.34 1.32 1 2 C0.67 1.34 0.34 0.68 0 0 Z " fill="#3A3939" transform="translate(837,467)"/>
<path d="M0 0 C0.66 0 1.32 0 2 0 C1.67 0.66 1.34 1.32 1 2 C0.67 1.34 0.34 0.68 0 0 Z " fill="#464747" transform="translate(176,448)"/>
<path d="" fill="#494949" transform="translate(0,0)"/>
<path d="" fill="#3B3A3A" transform="translate(0,0)"/>
<path d="" fill="#3C3C3C" transform="translate(0,0)"/>
<path d="" fill="#373639" transform="translate(0,0)"/>
<path d="" fill="#383736" transform="translate(0,0)"/>
<path d="" fill="#373637" transform="translate(0,0)"/>
<path d="M0 0 C2 1 2 1 2 1 Z " fill="#3D3C3E" transform="translate(848,530)"/>
<path d="M0 0 C2 1 2 1 2 1 Z " fill="#3A3939" transform="translate(582,530)"/>
<path d="M0 0 C2 1 2 1 2 1 Z " fill="#3E3E3F" transform="translate(498,529)"/>
<path d="" fill="#383A3A" transform="translate(0,0)"/>
<path d="" fill="#39383A" transform="translate(0,0)"/>
<path d="" fill="#3C3C3D" transform="translate(0,0)"/>
<path d="" fill="#373638" transform="translate(0,0)"/>
<path d="" fill="#393839" transform="translate(0,0)"/>
<path d="" fill="#3A3A3B" transform="translate(0,0)"/>
<path d="" fill="#393839" transform="translate(0,0)"/>
<path d="" fill="#373638" transform="translate(0,0)"/>
<path d="" fill="#373636" transform="translate(0,0)"/>
<path d="" fill="#393A38" transform="translate(0,0)"/>
<path d="" fill="#393937" transform="translate(0,0)"/>
<path d="" fill="#363533" transform="translate(0,0)"/>
<path d="" fill="#363535" transform="translate(0,0)"/>
<path d="" fill="#373537" transform="translate(0,0)"/>
<path d="" fill="#3A393A" transform="translate(0,0)"/>
<path d="M0 0 C2 1 2 1 2 1 Z " fill="#3A3B3B" transform="translate(852,471)"/>
<path d="" fill="#3B393B" transform="translate(0,0)"/>
<path d="" fill="#393838" transform="translate(0,0)"/>
<path d="M0 0 C2 1 2 1 2 1 Z " fill="#373637" transform="translate(419,468)"/>
<path d="M0 0 C2 1 2 1 2 1 Z " fill="#3A3938" transform="translate(725,467)"/>
<path d="" fill="#3A3A3C" transform="translate(0,0)"/>
<path d="" fill="#3E3D3E" transform="translate(0,0)"/>
<path d="" fill="#464846" transform="translate(0,0)"/>
<path d="" fill="#444442" transform="translate(0,0)"/>
<path d="" fill="#464747" transform="translate(0,0)"/>
<path d="M0 0 C2 1 2 1 2 1 Z " fill="#474746" transform="translate(581,442)"/>
<path d="" fill="#4A4B49" transform="translate(0,0)"/>
<path d="" fill="#444242" transform="translate(0,0)"/>
<path d="" fill="#707272" transform="translate(0,0)"/>
<path d="" fill="#716F6F" transform="translate(0,0)"/>
<path d="" fill="#7C7B7C" transform="translate(0,0)"/>
<path d="" fill="#707172" transform="translate(0,0)"/>
<path d="" fill="#7F7F81" transform="translate(0,0)"/>
<path d="" fill="#787877" transform="translate(0,0)"/>
<path d="" fill="#6F6F70" transform="translate(0,0)"/>
<path d="" fill="#414243" transform="translate(0,0)"/>
<path d="" fill="#484441" transform="translate(0,0)"/>
<path d="" fill="#4F504E" transform="translate(0,0)"/>
<path d="" fill="#525251" transform="translate(0,0)"/>
<path d="" fill="#3F3F3D" transform="translate(0,0)"/>
<path d="" fill="#3F3E3D" transform="translate(0,0)"/>
<path d="" fill="#403F3E" transform="translate(0,0)"/>
<path d="" fill="#403E3E" transform="translate(0,0)"/>
<path d="" fill="#4F514E" transform="translate(0,0)"/>
<path d="" fill="#4C4C4D" transform="translate(0,0)"/>
<path d="" fill="#4D4F4D" transform="translate(0,0)"/>
<path d="" fill="#3F4140" transform="translate(0,0)"/>
<path d="" fill="#464647" transform="translate(0,0)"/>
<path d="" fill="#424142" transform="translate(0,0)"/>
<path d="" fill="#404041" transform="translate(0,0)"/>
<path d="" fill="#404242" transform="translate(0,0)"/>
<path d="" fill="#403F3F" transform="translate(0,0)"/>
<path d="" fill="#3E3E40" transform="translate(0,0)"/>
<path d="" fill="#414142" transform="translate(0,0)"/>
<path d="" fill="#404040" transform="translate(0,0)"/>
<path d="" fill="#40403D" transform="translate(0,0)"/>
<path d="" fill="#3E3E3D" transform="translate(0,0)"/>
<path d="" fill="#3F3F3E" transform="translate(0,0)"/>
<path d="" fill="#3C3B3B" transform="translate(0,0)"/>
<path d="" fill="#404041" transform="translate(0,0)"/>
<path d="" fill="#3A3B3A" transform="translate(0,0)"/>
<path d="" fill="#3D3F40" transform="translate(0,0)"/>
<path d="" fill="#3A3B3A" transform="translate(0,0)"/>
<path d="" fill="#3D3D3C" transform="translate(0,0)"/>
<path d="" fill="#403F3F" transform="translate(0,0)"/>
<path d="" fill="#3D3C3F" transform="translate(0,0)"/>
<path d="" fill="#3C3B3C" transform="translate(0,0)"/>
<path d="" fill="#3E3C3C" transform="translate(0,0)"/>
<path d="" fill="#404040" transform="translate(0,0)"/>
<path d="" fill="#3E3C3C" transform="translate(0,0)"/>
<path d="" fill="#3E403F" transform="translate(0,0)"/>
<path d="" fill="#393B3A" transform="translate(0,0)"/>
<path d="" fill="#383435" transform="translate(0,0)"/>
<path d="" fill="#3C3C3D" transform="translate(0,0)"/>
<path d="" fill="#3D3D3E" transform="translate(0,0)"/>
<path d="" fill="#3C3D3D" transform="translate(0,0)"/>
<path d="" fill="#3A3838" transform="translate(0,0)"/>
<path d="" fill="#3C373A" transform="translate(0,0)"/>
<path d="" fill="#403E3E" transform="translate(0,0)"/>
<path d="" fill="#3D3B3A" transform="translate(0,0)"/>
<path d="" fill="#373837" transform="translate(0,0)"/>
<path d="" fill="#3E3D3A" transform="translate(0,0)"/>
<path d="" fill="#3D3A3D" transform="translate(0,0)"/>
<path d="" fill="#3C393A" transform="translate(0,0)"/>
<path d="" fill="#3E3D3C" transform="translate(0,0)"/>
<path d="" fill="#353738" transform="translate(0,0)"/>
<path d="" fill="#3C3B3D" transform="translate(0,0)"/>
<path d="" fill="#3C3C3B" transform="translate(0,0)"/>
<path d="" fill="#3B3939" transform="translate(0,0)"/>
<path d="" fill="#3A383A" transform="translate(0,0)"/>
<path d="" fill="#393835" transform="translate(0,0)"/>
<path d="" fill="#383735" transform="translate(0,0)"/>
<path d="" fill="#3B3B3A" transform="translate(0,0)"/>
<path d="" fill="#373638" transform="translate(0,0)"/>
<path d="" fill="#3A3939" transform="translate(0,0)"/>
<path d="" fill="#3D3B39" transform="translate(0,0)"/>
<path d="" fill="#3A3B39" transform="translate(0,0)"/>
<path d="" fill="#393738" transform="translate(0,0)"/>
<path d="" fill="#3C3D39" transform="translate(0,0)"/>
<path d="" fill="#363637" transform="translate(0,0)"/>
<path d="" fill="#353534" transform="translate(0,0)"/>
<path d="" fill="#3D3C3F" transform="translate(0,0)"/>
<path d="" fill="#3B3B3D" transform="translate(0,0)"/>
<path d="" fill="#3B3A39" transform="translate(0,0)"/>
<path d="" fill="#3C393C" transform="translate(0,0)"/>
<path d="" fill="#39383A" transform="translate(0,0)"/>
<path d="" fill="#363735" transform="translate(0,0)"/>
<path d="" fill="#3B3A3B" transform="translate(0,0)"/>
<path d="" fill="#3D3C3C" transform="translate(0,0)"/>
<path d="" fill="#3B3A3B" transform="translate(0,0)"/>
<path d="" fill="#373738" transform="translate(0,0)"/>
<path d="" fill="#38393A" transform="translate(0,0)"/>
<path d="" fill="#383637" transform="translate(0,0)"/>
<path d="" fill="#383938" transform="translate(0,0)"/>
<path d="" fill="#3C3B3F" transform="translate(0,0)"/>
<path d="" fill="#3D3B3B" transform="translate(0,0)"/>
<path d="" fill="#373939" transform="translate(0,0)"/>
<path d="" fill="#3A3B3B" transform="translate(0,0)"/>
<path d="" fill="#383736" transform="translate(0,0)"/>
<path d="" fill="#3A3B3B" transform="translate(0,0)"/>
<path d="" fill="#777877" transform="translate(0,0)"/>
<path d="" fill="#3C3B3C" transform="translate(0,0)"/>
<path d="" fill="#3A3637" transform="translate(0,0)"/>
<path d="" fill="#383532" transform="translate(0,0)"/>
<path d="" fill="#343538" transform="translate(0,0)"/>
<path d="" fill="#3B393A" transform="translate(0,0)"/>
<path d="" fill="#3B3A3B" transform="translate(0,0)"/>
<path d="" fill="#373838" transform="translate(0,0)"/>
<path d="" fill="#3A393A" transform="translate(0,0)"/>
<path d="" fill="#3D393B" transform="translate(0,0)"/>
<path d="" fill="#363435" transform="translate(0,0)"/>
<path d="" fill="#39393A" transform="translate(0,0)"/>
<path d="" fill="#393939" transform="translate(0,0)"/>
<path d="" fill="#353634" transform="translate(0,0)"/>
<path d="" fill="#363835" transform="translate(0,0)"/>
<path d="" fill="#3B3B3A" transform="translate(0,0)"/>
<path d="" fill="#393A3B" transform="translate(0,0)"/>
<path d="" fill="#353536" transform="translate(0,0)"/>
<path d="" fill="#383738" transform="translate(0,0)"/>
<path d="" fill="#3A3736" transform="translate(0,0)"/>
<path d="" fill="#373535" transform="translate(0,0)"/>
<path d="" fill="#353533" transform="translate(0,0)"/>
<path d="" fill="#39393B" transform="translate(0,0)"/>
<path d="" fill="#393B3B" transform="translate(0,0)"/>
<path d="" fill="#373635" transform="translate(0,0)"/>
<path d="" fill="#3A3939" transform="translate(0,0)"/>
<path d="" fill="#383638" transform="translate(0,0)"/>
<path d="" fill="#3A3A3A" transform="translate(0,0)"/>
<path d="" fill="#343438" transform="translate(0,0)"/>
<path d="" fill="#383839" transform="translate(0,0)"/>
<path d="" fill="#373537" transform="translate(0,0)"/>
<path d="" fill="#393839" transform="translate(0,0)"/>
<path d="" fill="#38383A" transform="translate(0,0)"/>
<path d="" fill="#403F3F" transform="translate(0,0)"/>
<path d="" fill="#393738" transform="translate(0,0)"/>
<path d="" fill="#393739" transform="translate(0,0)"/>
<path d="" fill="#3B3638" transform="translate(0,0)"/>
<path d="" fill="#393638" transform="translate(0,0)"/>
<path d="" fill="#3A383A" transform="translate(0,0)"/>
<path d="" fill="#3A3938" transform="translate(0,0)"/>
<path d="" fill="#3A3736" transform="translate(0,0)"/>
<path d="" fill="#363638" transform="translate(0,0)"/>
<path d="" fill="#3A383A" transform="translate(0,0)"/>
<path d="" fill="#373435" transform="translate(0,0)"/>
<path d="" fill="#373636" transform="translate(0,0)"/>
<path d="" fill="#383636" transform="translate(0,0)"/>
<path d="" fill="#292825" transform="translate(0,0)"/>
<path d="" fill="#3D3C3E" transform="translate(0,0)"/>
<path d="" fill="#373A37" transform="translate(0,0)"/>
<path d="" fill="#393839" transform="translate(0,0)"/>
<path d="" fill="#3F3E3E" transform="translate(0,0)"/>
<path d="" fill="#3A383B" transform="translate(0,0)"/>
<path d="" fill="#3F3F3E" transform="translate(0,0)"/>
<path d="" fill="#333333" transform="translate(0,0)"/>
<path d="" fill="#37393A" transform="translate(0,0)"/>
<path d="" fill="#3F3D3E" transform="translate(0,0)"/>
<path d="" fill="#373837" transform="translate(0,0)"/>
<path d="" fill="#343535" transform="translate(0,0)"/>
<path d="" fill="#3B3B39" transform="translate(0,0)"/>
<path d="" fill="#3D3C3D" transform="translate(0,0)"/>
<path d="" fill="#3A3B3A" transform="translate(0,0)"/>
<path d="" fill="#3C3A3A" transform="translate(0,0)"/>
<path d="" fill="#3E3E40" transform="translate(0,0)"/>
<path d="" fill="#393839" transform="translate(0,0)"/>
<path d="" fill="#393B3A" transform="translate(0,0)"/>
<path d="" fill="#393938" transform="translate(0,0)"/>
<path d="" fill="#3A393A" transform="translate(0,0)"/>
<path d="" fill="#383838" transform="translate(0,0)"/>
<path d="" fill="#37393A" transform="translate(0,0)"/>
<path d="" fill="#3D3D40" transform="translate(0,0)"/>
<path d="" fill="#3A3A3B" transform="translate(0,0)"/>
<path d="" fill="#3E3E3E" transform="translate(0,0)"/>
<path d="" fill="#373739" transform="translate(0,0)"/>
<path d="" fill="#37383A" transform="translate(0,0)"/>
<path d="" fill="#393638" transform="translate(0,0)"/>
<path d="" fill="#403E3F" transform="translate(0,0)"/>
<path d="" fill="#39393B" transform="translate(0,0)"/>
<path d="" fill="#383A38" transform="translate(0,0)"/>
<path d="" fill="#383737" transform="translate(0,0)"/>
<path d="" fill="#383736" transform="translate(0,0)"/>
<path d="" fill="#3A3A3A" transform="translate(0,0)"/>
<path d="" fill="#393737" transform="translate(0,0)"/>
<path d="" fill="#383638" transform="translate(0,0)"/>
<path d="" fill="#363437" transform="translate(0,0)"/>
<path d="" fill="#343333" transform="translate(0,0)"/>
<path d="" fill="#3E3F3E" transform="translate(0,0)"/>
<path d="" fill="#383535" transform="translate(0,0)"/>
<path d="" fill="#363537" transform="translate(0,0)"/>
<path d="" fill="#3B3A3A" transform="translate(0,0)"/>
<path d="" fill="#3A3837" transform="translate(0,0)"/>
<path d="" fill="#3B373A" transform="translate(0,0)"/>
<path d="" fill="#3A3A38" transform="translate(0,0)"/>
<path d="" fill="#353636" transform="translate(0,0)"/>
<path d="" fill="#383536" transform="translate(0,0)"/>
<path d="" fill="#3B3A39" transform="translate(0,0)"/>
<path d="" fill="#383636" transform="translate(0,0)"/>
<path d="" fill="#393937" transform="translate(0,0)"/>
<path d="" fill="#393A39" transform="translate(0,0)"/>
<path d="" fill="#3B3839" transform="translate(0,0)"/>
<path d="" fill="#3C3A39" transform="translate(0,0)"/>
<path d="" fill="#3C393A" transform="translate(0,0)"/>
<path d="" fill="#3C3B3C" transform="translate(0,0)"/>
<path d="" fill="#39393A" transform="translate(0,0)"/>
<path d="" fill="#38373A" transform="translate(0,0)"/>
<path d="" fill="#393738" transform="translate(0,0)"/>
<path d="" fill="#3A393B" transform="translate(0,0)"/>
<path d="" fill="#383737" transform="translate(0,0)"/>
<path d="" fill="#393839" transform="translate(0,0)"/>
<path d="" fill="#383839" transform="translate(0,0)"/>
<path d="" fill="#3A3937" transform="translate(0,0)"/>
<path d="" fill="#383736" transform="translate(0,0)"/>
<path d="" fill="#444242" transform="translate(0,0)"/>
<path d="" fill="#373637" transform="translate(0,0)"/>
<path d="" fill="#393939" transform="translate(0,0)"/>
<path d="" fill="#414240" transform="translate(0,0)"/>
<path d="" fill="#3A3C3C" transform="translate(0,0)"/>
<path d="" fill="#383837" transform="translate(0,0)"/>
<path d="" fill="#393938" transform="translate(0,0)"/>
<path d="" fill="#434242" transform="translate(0,0)"/>
<path d="" fill="#3E3A3B" transform="translate(0,0)"/>
<path d="" fill="#3B3A3A" transform="translate(0,0)"/>
<path d="" fill="#3C3B3B" transform="translate(0,0)"/>
<path d="" fill="#3B3B3A" transform="translate(0,0)"/>
<path d="" fill="#3F3D3D" transform="translate(0,0)"/>
<path d="" fill="#3B3C3A" transform="translate(0,0)"/>
<path d="" fill="#343638" transform="translate(0,0)"/>
<path d="" fill="#3B3C3D" transform="translate(0,0)"/>
<path d="" fill="#393839" transform="translate(0,0)"/>
<path d="" fill="#3B3A3A" transform="translate(0,0)"/>
<path d="" fill="#393938" transform="translate(0,0)"/>
<path d="" fill="#373736" transform="translate(0,0)"/>
<path d="" fill="#3B3B3B" transform="translate(0,0)"/>
<path d="" fill="#4C4C4C" transform="translate(0,0)"/>
<path d="" fill="#3D3C3B" transform="translate(0,0)"/>
<path d="" fill="#3C3E3B" transform="translate(0,0)"/>
<path d="" fill="#3A3638" transform="translate(0,0)"/>
<path d="" fill="#45484A" transform="translate(0,0)"/>
<path d="" fill="#3E3B3D" transform="translate(0,0)"/>
<path d="" fill="#3C3B3C" transform="translate(0,0)"/>
<path d="" fill="#49474A" transform="translate(0,0)"/>
<path d="" fill="#3B3B3B" transform="translate(0,0)"/>
<path d="" fill="#3E3F3F" transform="translate(0,0)"/>
<path d="" fill="#3D3D3E" transform="translate(0,0)"/>
<path d="" fill="#454545" transform="translate(0,0)"/>
<path d="" fill="#3E3F3D" transform="translate(0,0)"/>
<path d="" fill="#3E3C3E" transform="translate(0,0)"/>
<path d="" fill="#3D3E3D" transform="translate(0,0)"/>
<path d="" fill="#3B3838" transform="translate(0,0)"/>
<path d="" fill="#484544" transform="translate(0,0)"/>
<path d="" fill="#3C3C3C" transform="translate(0,0)"/>
<path d="" fill="#3D3D3F" transform="translate(0,0)"/>
<path d="" fill="#3F3F3F" transform="translate(0,0)"/>
<path d="" fill="#434543" transform="translate(0,0)"/>
<path d="" fill="#424241" transform="translate(0,0)"/>
<path d="" fill="#3C3D3E" transform="translate(0,0)"/>
<path d="" fill="#413F3E" transform="translate(0,0)"/>
<path d="" fill="#464745" transform="translate(0,0)"/>
<path d="" fill="#3D3F41" transform="translate(0,0)"/>
<path d="" fill="#484547" transform="translate(0,0)"/>
<path d="" fill="#454445" transform="translate(0,0)"/>
<path d="" fill="#484545" transform="translate(0,0)"/>
<path d="" fill="#4A4746" transform="translate(0,0)"/>
<path d="" fill="#464644" transform="translate(0,0)"/>
<path d="" fill="#454445" transform="translate(0,0)"/>
<path d="" fill="#464646" transform="translate(0,0)"/>
<path d="" fill="#484C49" transform="translate(0,0)"/>
<path d="" fill="#444142" transform="translate(0,0)"/>
<path d="" fill="#484648" transform="translate(0,0)"/>
<path d="" fill="#474346" transform="translate(0,0)"/>
<path d="" fill="#4A494C" transform="translate(0,0)"/>
<path d="" fill="#4A4A49" transform="translate(0,0)"/>
<path d="" fill="#4B4848" transform="translate(0,0)"/>
<path d="" fill="#414043" transform="translate(0,0)"/>
<path d="" fill="#444643" transform="translate(0,0)"/>
<path d="" fill="#49494D" transform="translate(0,0)"/>
<path d="" fill="#434345" transform="translate(0,0)"/>
<path d="" fill="#434243" transform="translate(0,0)"/>
<path d="" fill="#3B3A3C" transform="translate(0,0)"/>
<path d="" fill="#424241" transform="translate(0,0)"/>
<path d="" fill="#434441" transform="translate(0,0)"/>
<path d="" fill="#474241" transform="translate(0,0)"/>
<path d="" fill="#414143" transform="translate(0,0)"/>
<path d="" fill="#3F3D3E" transform="translate(0,0)"/>
<path d="" fill="#4A4B46" transform="translate(0,0)"/>
<path d="" fill="#484A48" transform="translate(0,0)"/>
<path d="" fill="#4B4E4C" transform="translate(0,0)"/>
<path d="" fill="#434242" transform="translate(0,0)"/>
<path d="" fill="#4E4B4D" transform="translate(0,0)"/>
<path d="" fill="#404343" transform="translate(0,0)"/>
<path d="" fill="#6D6D6E" transform="translate(0,0)"/>
<path d="" fill="#828385" transform="translate(0,0)"/>
<path d="" fill="#7C7D7D" transform="translate(0,0)"/>
<path d="" fill="#7A7A7A" transform="translate(0,0)"/>
<path d="" fill="#787878" transform="translate(0,0)"/>
<path d="" fill="#797779" transform="translate(0,0)"/>
<path d="" fill="#7C7A7B" transform="translate(0,0)"/>
<path d="" fill="#7C7D7E" transform="translate(0,0)"/>
<path d="" fill="#7E7E7E" transform="translate(0,0)"/>
<path d="" fill="#7A7C7C" transform="translate(0,0)"/>
<path d="" fill="#7C7D7E" transform="translate(0,0)"/>
<path d="" fill="#7C7A7B" transform="translate(0,0)"/>
<path d="" fill="#7B7B7C" transform="translate(0,0)"/>
<path d="" fill="#7D7D7E" transform="translate(0,0)"/>
</svg>
