<svg id="Layer_1" data-name="Layer 1" xmlns="http://www.w3.org/2000/svg" width="3in" height="1.5in" viewBox="0 0 216 108">
  <g>
    <path d="M48.50387,69.30825a11.71417,11.71417,0,0,0-8.61174-4.05354,11.92816,11.92816,0,0,0-11.67857,11.815,11.168,11.168,0,0,0,3.43916,7.93171,12.455,12.455,0,0,0,8.23941,3.54275,12.2136,12.2136,0,0,0,8.61174-3.91508v2.24524a13.21418,13.21418,0,1,1-8.51019-23.14994A12.73359,12.73359,0,0,1,48.50387,67.061Z" style="fill: #043673"/>
    <path d="M68.45283,63.72447a13.17577,13.17577,0,1,0,13.3125,13.174,13.34688,13.34688,0,0,0-13.3125-13.174m0,1.53034a11.64476,11.64476,0,1,1-11.67652,11.6437,11.77842,11.77842,0,0,1,11.67652-11.6437" style="fill: #043673"/>
    <polygon points="89.154 64.067 89.154 89.735 97.323 89.735 97.323 88.203 90.787 88.203 90.787 64.067 89.154 64.067" style="fill: #043673"/>
    <polygon points="104.881 64.067 104.881 89.735 113.05 89.735 113.05 88.203 106.516 88.203 106.516 64.067 104.881 64.067" style="fill: #043673"/>
    <polygon points="120.267 64.067 120.267 89.735 132.526 89.735 132.526 88.203 121.9 88.203 121.9 76.458 132.253 76.458 132.253 74.926 121.9 74.926 121.9 65.596 132.526 65.596 132.526 64.067 120.267 64.067" style="fill: #043673"/>
    <path d="M165.00092,77.37638c.0687,3.232-.40619,6.0598-2.68734,8.54609a13.09,13.09,0,1,1,1.598-16.206L162.58437,70.773a11.76173,11.76173,0,0,0-9.90719-5.51824A11.93435,11.93435,0,0,0,141.03451,76.8984a11.72835,11.72835,0,0,0,11.64267,11.64575,12.25,12.25,0,0,0,7.55834-2.82682,8.558,8.558,0,0,0,3.13043-6.80959h-9.1892V77.37638Z" style="fill: #043673"/>
    <polygon points="173.239 64.067 173.239 89.735 185.495 89.735 185.495 88.203 174.873 88.203 174.873 76.458 185.223 76.458 185.223 74.926 174.873 74.926 174.873 65.596 185.495 65.596 185.495 64.067 173.239 64.067" style="fill: #043673"/>
    <path d="M100.94429,45.08513l10.03643-5.81262s-1.28725,1.22571-1.10365,4.66281c0,0-.20719,6.89062,0,7.72964,0,0,.09539,4.192,5.93672,3.49967a4.52043,4.52043,0,0,0,3.6361-4.5428s0-11.96371-.06463-12.57605c0,0,.21027-2.6945-1.95189-2.15294,0,0,10.42517-6.10186,11.03853-6.53162,0,0-.9898.64516-1.11083,3.34582V54.67025s-.0718,3.33248,2.00113,3.71507c0,0-9.28664.08923-9.95848.03077l-.01846-3.192s-2.74783,3.90071-9.92565,3.90071c0,0-6.15725.17848-6.65266-4.51613,0,0-.30361-5.21156-.30361-7.78913,0,0,.16206-2.34577-1.559-1.73445" style="fill: #043673"/>
    <path d="M157.39631,23.28059l9.59435-5.54183s.18565,17.11577.18565,17.85223c0,0,1.90472-4.53768,9.26408-5.70595,0,0,8.384-1.34776,8.88151,5.46593.20821,2.77759.161,16.205.161,19.8667,0,0,.041,2.70681,1.92933,3.24427,0,0-11.4642.01333-11.95448.01333a3.6395,3.6395,0,0,0,1.84215-3.313s.24206-15.40082-.06155-16.6255c0,0-.05744-4.29459-4.41971-4.29459a6.11869,6.11869,0,0,0-5.36952,5.58389c-.32206,2.68527-.14873,13.42225-.14873,14.969a4.04031,4.04031,0,0,0,1.96933,3.68019c-6.25776.001-6.068,0-11.87344,0a3.85671,3.85671,0,0,0,1.99087-3.6207s-.18463-26.8086-.18463-28.09893c0,0,.21745-4.24329-1.80624-3.475" style="fill: #043673"/>
    <path d="M42.82757,56.33013s-6.49778,1.06057-6.748-2.517c-.25642-3.57865-.05436-18.73433-.05436-18.73433l-.12924-12.0632c-.07282-2.64425,3.44429-2.52731,3.44429-2.52731,7.32038,0,6.61368,7.37166,6.61368,7.37166,0,4.02484-6.146,8.97279-6.146,8.97279l-.0482.02154.04513.01128c.57439.13642,8.40249,1.94574,8.9738,11.79242,0,0,.879,6.84447-5.95108,7.6722M57.2468,47.00451c-1.236-9.36665-12.21193-10.737-12.21193-10.737,7.77887-4.58588,8.46711-8.68867,8.46711-9.69693a7.33013,7.33013,0,0,0-6.28751-7.77887c-1.69445-.54464-21.98886-.1959-21.98886-.1959a3.78551,3.78551,0,0,1,1.956,3.192c.12411.85748.3672,32.94533.3672,32.94533-.38874,3.13248-2.26371,3.74174-2.26371,3.74174.5508,0,21.96117-.121,21.96117-.121,11.538-.5467,10.00053-11.34932,10.00053-11.34932" style="fill: #043673"/>
    <path d="M85.771,36.43718l10.27336-5.71825.1241,6.05468s1.09135-5.6844,6.85883-6.73369c0,0,7.32244-1.50265,7.145,5.67825-.00206.17437-8.75636,4.96539-8.75636,4.96539a5.30445,5.30445,0,0,0,.9939-1.76009,3.47614,3.47614,0,0,0,.16513-2.10884c-.8103-2.64116-3.70481-1.2298-4.73563-.10256,0,0-1.54573,1.01338-1.54573,5.0936,0,0,.06051,12.70221.002,13.31968,0,0,.03385,2.82374,1.8042,3.34992,0,0-12.27039.04821-12.32885-.07385a3.74024,3.74024,0,0,0,1.81035-3.14991c.12923-2.314.25437-15.32492.25437-15.94238,0,0,.12616-3.42377-2.06472-2.872" style="fill: #043673"/>
    <path d="M61.905,41.62422l.20411-8.3471s4.95206-3.66379,10.58518-3.73148c0,0,9.63641-.40823,10.78929,8.823,0,0-.26873,13.43661-.40413,15.47056,0,0-.20821,3.80123,2.51091,4.54691H74.8s.678-14.79155.40207-16.15163c0,0-7.48142,4.21664-8.20659,7.944-.21129,1.07083-.60413,5.01873,3.25556,5.01873A3.51709,3.51709,0,0,0,72.62658,54.068s.00513,3.41864.00513,3.84431c0,0-1.837,1.2893-6.65369.81645,0,0-7.66912-.66875-7.66912-7.942,0-1.01749.54259-4.752,6.31521-7.263,5.76441-2.50885,7.46091-2.713,9.35947-4.47818,1.89856-1.76625,2.14781-6.0516-2.035-6.37983-2.5827-.20411-6.4465,2.2391-10.04361,8.95842" style="fill: #043673"/>
    <path d="M150.68929,41.4915l5.38182-6.24649s-3.94174-6.1552-13.64791-5.19412c-11.08058,1.09852-13.652,10.28978-13.56072,13.55457.06463,2.21652-.479,13.26839,12.30425,15.96084,0,0,6.73472,1.63906,14.52179-3.07811l1.82677-7.59322s-4.80846,7.40552-10.579,7.49681c0,0-7.92657,1.08313-9.60871-11.24778-1.54163-11.25188,5.37259-12.59349,7.11012-12.59349.96723,0,6.6383.48208,6.25161,8.941" style="fill: #043673"/>
  </g>
</svg>
